<?xml version="1.0" encoding="utf-8"?>
<!-- Generator: Adobe Illustrator 16.0.0, SVG Export Plug-In . SVG Version: 6.00 Build 0)  -->
<!DOCTYPE svg PUBLIC "-//W3C//DTD SVG 1.1//EN" "http://www.w3.org/Graphics/SVG/1.1/DTD/svg11.dtd">
<svg version="1.1" id="圖層_1" xmlns="http://www.w3.org/2000/svg" xmlns:xlink="http://www.w3.org/1999/xlink" x="0px" y="0px"
	 width="15px" height="15px" viewBox="0 0 15 15" enable-background="new 0 0 15 15" xml:space="preserve">
<g>
	<path d="M12.757,10.354c-0.965-0.713-2.145-1.206-3.429-1.447c1.595-0.704,2.712-2.303,2.712-4.156
		c0-2.505-2.037-4.541-4.542-4.541c-2.503,0-4.541,2.036-4.541,4.541c0,1.853,1.116,3.452,2.712,4.156
		c-1.284,0.241-2.463,0.734-3.427,1.447C0.796,11.422,0,12.854,0,14.386c0,0.224,0.18,0.403,0.403,0.403h14.193
		c0.223,0,0.404-0.18,0.404-0.403C15,12.854,14.203,11.422,12.757,10.354z M4.042,4.751c0-1.907,1.551-3.458,3.456-3.458
		c1.908,0,3.458,1.551,3.458,3.458c0,1.906-1.551,3.457-3.458,3.457C5.593,8.208,4.042,6.657,4.042,4.751z M1.292,13.829
		C1.556,11.521,4.239,9.7,7.499,9.7c3.261,0,5.943,1.82,6.208,4.129H1.292z"/>
</g>
</svg>
