<?xml version="1.0" encoding="utf-8"?>
<!-- Generator: Adobe Illustrator 16.0.0, SVG Export Plug-In . SVG Version: 6.00 Build 0)  -->
<!DOCTYPE svg PUBLIC "-//W3C//DTD SVG 1.1//EN" "http://www.w3.org/Graphics/SVG/1.1/DTD/svg11.dtd">
<svg version="1.1" id="圖層_1" xmlns="http://www.w3.org/2000/svg" xmlns:xlink="http://www.w3.org/1999/xlink" x="0px" y="0px"
	 width="50px" height="50px" viewBox="0 0 50 50" enable-background="new 0 0 50 50" xml:space="preserve">
<g>
	<path fill="#040000" d="M44.553,20.531c-0.681-0.989-1.965-1.431-2.935-1.431h-1.542v-3.29c0-1.802-1.496-3.268-3.335-3.268
		l-14.076-0.004c-0.013-0.041-0.021-0.078-0.021-0.079v-0.855c0-1.811-1.48-3.284-3.299-3.284H8.351
		c-1.807,0-3.222,1.442-3.222,3.284v26.329l-0.015,0.061c-0.243,0.824-0.094,1.657,0.422,2.346c0.609,0.813,1.713,1.339,2.815,1.339
		h28.965c1.578,0,2.793-1.107,3.247-2.953l4.278-15.887C45.127,22.036,45.023,21.217,44.553,20.531z M22.657,15.308h14.08
		c0.315,0,0.571,0.225,0.571,0.502v3.288H12.653c-1.543,0-2.726,1.068-3.244,2.935l-1.517,5.632V11.604
		c0-0.306,0.189-0.52,0.459-0.52h10.993c0.294,0,0.534,0.233,0.534,0.52v0.902C19.903,13.865,20.886,15.308,22.657,15.308z
		 M12.653,21.865h28.965c0.224,0,0.448,0.085,0.575,0.169l-4.311,16.011c-0.097,0.401-0.305,0.87-0.569,0.87H8.351
		c-0.276,0-0.533-0.137-0.58-0.171l4.305-15.978C12.228,22.219,12.454,21.865,12.653,21.865z"/>
	<path fill="#040000" d="M19.797,31.795h3.856v3.809c0,0.762,0.621,1.382,1.383,1.382c0.761,0,1.381-0.62,1.381-1.382v-3.809h3.808
		c0.763,0,1.383-0.619,1.383-1.383c-0.003-0.761-0.623-1.38-1.383-1.38h-3.81v-3.86c0-0.761-0.62-1.38-1.382-1.38
		c-0.762,0-1.382,0.619-1.382,1.38v3.86h-3.854c-0.764,0-1.384,0.62-1.384,1.382S19.034,31.795,19.797,31.795z"/>
</g>
</svg>
