<?xml version="1.0" encoding="utf-8"?>
<!-- Generator: Adobe Illustrator 16.0.0, SVG Export Plug-In . SVG Version: 6.00 Build 0)  -->
<!DOCTYPE svg PUBLIC "-//W3C//DTD SVG 1.1//EN" "http://www.w3.org/Graphics/SVG/1.1/DTD/svg11.dtd">
<svg version="1.1" id="圖層_1" xmlns="http://www.w3.org/2000/svg" xmlns:xlink="http://www.w3.org/1999/xlink" x="0px" y="0px"
	 width="80px" height="80px" viewBox="0 0 80 80" enable-background="new 0 0 80 80" xml:space="preserve">
<g>
	<g>
		<path fill="#040000" d="M79.269,31.424c-1.178-1.715-3.44-2.484-5.159-2.484h-4.219v-7.803c0-3.117-2.597-5.653-5.79-5.653H35.194
			c-0.575,0-0.741-0.214-0.861-0.433c-0.161-0.292-0.216-0.653-0.225-0.789v-1.758c0-3.134-2.564-5.686-5.717-5.686H5.827
			c-3.121,0-5.564,2.499-5.564,5.686v54.175L0.185,66.97c-0.397,1.368-0.148,2.75,0.701,3.884c1.058,1.416,2.997,2.328,4.941,2.328
			h59.455c2.726,0,4.835-1.975,5.65-5.284l8.803-32.692C80.21,33.893,80.044,32.554,79.269,31.424z M3.831,12.503
			c0-1.206,0.858-2.117,1.996-2.117h22.564c1.186,0,2.148,0.95,2.148,2.117v1.799l0.001,0.034c0.036,1.896,1.305,4.716,4.653,4.716
			h28.907c1.225,0,2.222,0.934,2.222,2.084v7.803H14.656c-2.663,0-4.719,1.913-5.644,5.246L3.831,53.426V12.503z M76.369,34.021
			l-0.034,0.087l-8.854,32.88l-0.013,0.04c-0.234,0.966-0.831,2.588-2.188,2.588H5.827c-0.819,0-1.694-0.378-2.083-0.896
			c-0.181-0.244-0.219-0.463-0.131-0.763l0.006-0.019l8.834-32.805c0.333-1.2,0.986-2.625,2.203-2.625h59.453
			c0.869,0,1.866,0.419,2.219,0.935C76.438,33.602,76.476,33.741,76.369,34.021z"/>
	</g>
	<path fill="#040000" d="M50.726,49.329h-8.869v-8.972c0-0.984-0.8-1.781-1.784-1.781c-0.986,0-1.785,0.797-1.785,1.781v8.972h-8.97
		c-0.986,0-1.785,0.797-1.785,1.784c0,0.984,0.799,1.781,1.785,1.781h8.97v8.872c0,0.984,0.798,1.784,1.785,1.784
		c0.984,0,1.784-0.8,1.784-1.784v-8.872h8.869c0.984,0,1.781-0.797,1.781-1.781C52.507,50.126,51.71,49.329,50.726,49.329z"/>
</g>
</svg>
