<?xml version="1.0" encoding="utf-8"?>
<!-- Generator: Adobe Illustrator 16.0.0, SVG Export Plug-In . SVG Version: 6.00 Build 0)  -->
<!DOCTYPE svg PUBLIC "-//W3C//DTD SVG 1.1//EN" "http://www.w3.org/Graphics/SVG/1.1/DTD/svg11.dtd">
<svg version="1.1" id="圖層_1" xmlns="http://www.w3.org/2000/svg" xmlns:xlink="http://www.w3.org/1999/xlink" x="0px" y="0px"
	 width="50px" height="50px" viewBox="0 0 50 50" enable-background="new 0 0 50 50" xml:space="preserve">
<path d="M43.077,8.5H6.922c-1.725,0-3.123,1.398-3.123,3.124v26.753c0,1.725,1.398,3.123,3.123,3.123h36.155
	c1.726,0,3.124-1.398,3.124-3.123V11.624C46.201,9.898,44.803,8.5,43.077,8.5z M42.415,19.605v1.893v7.066v1.894v7.257H32.066
	h-1.893H19.826h-1.893H7.585v-7.257v-1.894v-7.066v-1.893v-7.319h10.348h1.893h10.348h1.893h10.349V19.605z"/>
<path d="M36.723,31.378c0,0.988-0.802,1.79-1.79,1.79H15.067c-0.988,0-1.79-0.802-1.79-1.79V18.624c0-0.989,0.801-1.79,1.79-1.79
	h19.866c0.988,0,1.79,0.801,1.79,1.79V31.378z"/>
</svg>
