<?xml version="1.0" encoding="utf-8"?>
<!-- Generator: Adobe Illustrator 16.0.0, SVG Export Plug-In . SVG Version: 6.00 Build 0)  -->
<!DOCTYPE svg PUBLIC "-//W3C//DTD SVG 1.1//EN" "http://www.w3.org/Graphics/SVG/1.1/DTD/svg11.dtd">
<svg version="1.1" id="圖層_1" xmlns="http://www.w3.org/2000/svg" xmlns:xlink="http://www.w3.org/1999/xlink" x="0px" y="0px"
	 width="45px" height="45px" viewBox="0 0 45 45" enable-background="new 0 0 45 45" xml:space="preserve">
<g>
	<path d="M43.447,9.594C42.502,8.603,41.188,8,39.787,8h-6.977c-0.011-1-0.456-2.127-1.192-2.819C30.85,4.413,29.831,4,28.75,4
		H15.917c-1.109,0-2.143,0.413-2.912,1.181C12.246,5.94,11.824,7,11.813,8H4.881c-1.403,0-2.55,0.603-3.493,1.592
		C0.413,10.567,0,11.951,0,13.288V34.59c0,1.402,0.399,2.814,1.388,3.758C2.363,39.322,3.543,40,4.881,40h34.906
		c1.401,0,2.715-0.664,3.658-1.652C44.42,37.373,45,35.928,45,34.59V13.288C45,11.886,44.434,10.536,43.447,9.594z M40.354,38H4.311
		c-0.736,0-1.208-0.41-1.725-0.929C2.061,36.547,2,35.75,2,35.004V13.007c0-0.747,0.061-1.549,0.586-2.074
		C3.103,10.416,3.575,10,4.311,10h8.525C13.563,10,14,9.67,14,8.943v-1.28c0-0.451,0.236-0.892,0.526-1.181
		C14.816,6.192,15.301,6,15.751,6h13.206c0.453,0,1.083,0.192,1.371,0.482C30.618,6.771,31,7.211,31,7.663v1.28
		C31,9.67,31.146,10,31.873,10h8.525c0.735,0,1.354,0.416,1.87,0.933C42.795,11.459,43,12.262,43,13.007V35l0,0v0.004
		c0,0.746-0.228,1.543-0.751,2.067C41.722,37.598,41.1,38,40.354,38z"/>
	<path d="M22.334,13.292c-2.808,0-5.552,1.136-7.531,3.116c-2.01,2.01-3.117,4.684-3.117,7.531c0,2.807,1.136,5.553,3.117,7.531
		c2.008,2.01,4.683,3.116,7.531,3.116c2.806,0,5.551-1.136,7.532-3.116c2.008-2.009,3.114-4.684,3.114-7.531
		c0-2.806-1.136-5.55-3.114-7.531C27.885,14.427,25.14,13.292,22.334,13.292z M22.334,32.562c-2.258,0-4.417-0.89-6.078-2.502
		c-1.613-1.616-2.502-3.774-2.502-6.078c0-2.257,0.889-4.416,2.502-6.077c1.614-1.613,3.773-2.502,6.078-2.502
		c2.257,0,4.416,0.889,6.077,2.502c1.613,1.614,2.501,3.772,2.501,6.079c0.042,2.262-0.846,4.419-2.499,6.074
		C26.749,31.672,24.591,32.562,22.334,32.562z"/>
	<circle cx="37.561" cy="15.469" r="2.02"/>
</g>
</svg>
