<?xml version="1.0" encoding="utf-8"?>
<!-- Generator: Adobe Illustrator 16.0.0, SVG Export Plug-In . SVG Version: 6.00 Build 0)  -->
<!DOCTYPE svg PUBLIC "-//W3C//DTD SVG 1.1//EN" "http://www.w3.org/Graphics/SVG/1.1/DTD/svg11.dtd">
<svg version="1.1" id="Layer_1" xmlns="http://www.w3.org/2000/svg" xmlns:xlink="http://www.w3.org/1999/xlink" x="0px" y="0px"
	 width="1920px" height="1080px" viewBox="0 0 1920 1080" enable-background="new 0 0 1920 1080" xml:space="preserve">
<g>
	<g>
		<g>
			<path d="M1407.989,268.643c-19.105-20.047-45.511-31.868-75.542-31.868h-151.116v-1.821c0-22.763-9.121-44.616-24.6-59.169
				c-15.479-15.479-36.405-24.584-59.168-24.584H824.452c-23.674,0-44.615,9.105-60.094,24.584
				c-15.479,15.479-24.584,36.406-24.584,59.169v1.821h-150.19c-30.063,0-56.452,11.821-75.573,31.868
				c-19.121,19.121-31.868,46.421-31.868,75.543v453.378c0,30.047,11.837,56.438,31.868,75.558
				c19.121,19.12,46.422,31.868,75.573,31.868h742.863c30.031,0,56.437-11.837,75.542-31.868
				c19.121-19.12,31.868-46.422,31.868-75.558V344.186C1439.857,314.154,1428.036,287.764,1407.989,268.643z M1406.563,806.366
				h-0.941c0,16.92-6.57,31.943-17.846,43.233c-11.291,11.291-26.314,17.878-43.25,17.878H577.443
				c-16.905,0-31.96-6.587-43.22-17.878c-11.289-11.29-17.876-26.313-17.876-43.233V338.222c0-16.936,6.587-31.959,17.876-43.25
				c11.26-11.275,26.314-17.862,43.22-17.862H758.88c14.098,0,25.389-11.275,25.389-25.373v-27.255
				c0-10.35,3.748-19.743,10.334-26.329s15.994-10.35,26.314-10.35h281.077c10.35,0,19.758,3.764,26.314,10.35
				c6.586,6.586,10.349,15.979,10.349,26.329v27.255c0,14.098,11.29,25.373,25.389,25.373h181.421
				c16.936,0,31.975,6.586,43.25,17.862c11.275,11.29,17.847,26.313,17.847,43.25V806.366z"/>
			<path d="M961,346.933c-61.899,0-118.353,25.479-158.386,65.542c-40.973,40.958-65.557,96.5-65.557,158.399
				c0,61.901,25.479,118.354,65.557,158.416c40.944,40.959,96.486,65.527,158.386,65.527c61.915,0,118.353-25.479,158.415-65.527
				c40.973-40.974,65.543-96.515,65.543-158.416c0-61.899-25.495-118.351-65.543-158.399
				C1079.353,372.412,1022.915,346.933,961,346.933z M1092.236,703.007c-33.78,32.809-80.096,54.038-131.236,54.038
				c-51.125,0-97.44-21.229-131.221-54.038c-33.75-33.78-54.024-80.096-54.024-131.222c0-51.125,21.215-97.44,54.024-131.221
				c33.78-33.75,80.096-54.024,131.221-54.024c51.141,0,97.456,21.23,131.236,54.024c33.765,33.781,54.024,80.095,54.024,131.221
				C1147.217,622.911,1126.001,669.227,1092.236,703.007z"/>
			<path d="M1285.1,350.302c22.276,0,40.336,18.059,40.336,40.321c0,22.277-18.06,40.321-40.336,40.321
				c-22.262,0-40.306-18.043-40.306-40.321C1244.794,368.361,1262.838,350.302,1285.1,350.302z"/>
		</g>
	</g>
</g>
</svg>
