<?xml version="1.0" encoding="utf-8"?>
<!-- Generator: Adobe Illustrator 16.0.0, SVG Export Plug-In . SVG Version: 6.00 Build 0)  -->
<!DOCTYPE svg PUBLIC "-//W3C//DTD SVG 1.1//EN" "http://www.w3.org/Graphics/SVG/1.1/DTD/svg11.dtd">
<svg version="1.1" id="圖層_1" xmlns="http://www.w3.org/2000/svg" xmlns:xlink="http://www.w3.org/1999/xlink" x="0px" y="0px"
	 width="80px" height="80px" viewBox="0 0 80 80" enable-background="new 0 0 80 80" xml:space="preserve">
<g>
	<path fill="#040000" d="M61.184,27.636c-0.968-1.016-2.292-1.575-3.729-1.575h-6.854c-0.041-1.083-0.484-2.095-1.227-2.793
		c-0.793-0.792-1.843-1.228-2.957-1.228H33.584c-1.142,0-2.208,0.436-3,1.228c-0.753,0.754-1.185,1.74-1.225,2.793h-6.81
		c-1.438,0-2.763,0.559-3.728,1.57c-0.999,0.999-1.571,2.357-1.571,3.728v21.302c0,1.437,0.56,2.762,1.571,3.728
		c0.998,0.998,2.356,1.57,3.728,1.57h34.905c1.438,0,2.762-0.56,3.726-1.57c0.999-0.999,1.571-2.357,1.571-3.728V31.359
		C62.751,29.921,62.191,28.596,61.184,27.636z M58.021,55.696H21.979c-0.712,0-1.354-0.265-1.854-0.767
		c-0.501-0.502-0.767-1.143-0.767-1.854V31.078c0-0.712,0.265-1.354,0.767-1.854c0.5-0.501,1.142-0.767,1.854-0.767h8.525
		c0.795,0,1.442-0.647,1.442-1.442v-1.28c0-0.417,0.146-0.794,0.412-1.06c0.268-0.267,0.644-0.414,1.06-0.414h13.207
		c0.419,0,0.795,0.146,1.06,0.413c0.267,0.267,0.413,0.643,0.413,1.061v1.28c0,0.795,0.647,1.442,1.443,1.442h8.524
		c0.712,0,1.354,0.265,1.855,0.767c0.501,0.501,0.766,1.142,0.766,1.854v21.747h-0.045v0.25c0,0.712-0.265,1.354-0.765,1.854
		C59.375,55.431,58.732,55.696,58.021,55.696z"/>
	<path fill="#040000" d="M40.001,31.238c-2.84,0-5.617,1.149-7.619,3.152c-2.033,2.032-3.153,4.738-3.153,7.619
		c0,2.84,1.149,5.617,3.153,7.62c2.032,2.033,4.738,3.152,7.619,3.152c2.838,0,5.616-1.149,7.62-3.152
		c2.033-2.033,3.152-4.739,3.152-7.62c0-2.838-1.149-5.615-3.152-7.619C45.617,32.387,42.839,31.238,40.001,31.238z M40.001,50.508
		c-2.225,0-4.353-0.877-5.989-2.466c-1.589-1.592-2.465-3.719-2.465-5.989c0-2.226,0.876-4.354,2.465-5.989
		c1.59-1.589,3.717-2.465,5.989-2.465c2.226,0,4.354,0.876,5.989,2.465c1.59,1.591,2.465,3.718,2.465,5.994
		c0.042,2.226-0.834,4.352-2.462,5.981C44.354,49.631,42.226,50.508,40.001,50.508z"/>
	<circle fill="#040000" cx="55.229" cy="33.541" r="1.895"/>
</g>
</svg>
