<?xml version="1.0" encoding="utf-8"?>
<!-- Generator: Adobe Illustrator 16.0.0, SVG Export Plug-In . SVG Version: 6.00 Build 0)  -->
<!DOCTYPE svg PUBLIC "-//W3C//DTD SVG 1.1//EN" "http://www.w3.org/Graphics/SVG/1.1/DTD/svg11.dtd">
<svg version="1.1" id="圖層_1" xmlns="http://www.w3.org/2000/svg" xmlns:xlink="http://www.w3.org/1999/xlink" x="0px" y="0px"
	 width="20px" height="20px" viewBox="0 0 20 20" enable-background="new 0 0 20 20" xml:space="preserve">
<circle fill="#FFFFFF" cx="10" cy="10" r="10"/>
<path fill="#3C3C3C" d="M11.414,10l3.293-3.292c0.391-0.391,0.391-1.023,0-1.414s-1.023-0.391-1.414,0L10,8.586L6.707,5.292
	c-0.391-0.391-1.023-0.391-1.414,0c-0.391,0.39-0.391,1.023,0,1.414L8.586,10l-3.293,3.293c-0.391,0.391-0.391,1.023,0,1.414
	C5.488,14.902,5.744,15,6,15s0.512-0.098,0.707-0.293L10,11.414l3.292,3.293C13.488,14.902,13.744,15,14,15s0.512-0.098,0.707-0.293
	c0.391-0.391,0.391-1.023,0-1.414L11.414,10z"/>
</svg>
