<?xml version="1.0" encoding="utf-8"?>
<!-- Generator: Adobe Illustrator 16.0.0, SVG Export Plug-In . SVG Version: 6.00 Build 0)  -->
<!DOCTYPE svg PUBLIC "-//W3C//DTD SVG 1.1//EN" "http://www.w3.org/Graphics/SVG/1.1/DTD/svg11.dtd">
<svg version="1.1" id="Layer_1" xmlns="http://www.w3.org/2000/svg" xmlns:xlink="http://www.w3.org/1999/xlink" x="0px" y="0px"
	 width="1920px" height="1080px" viewBox="0 0 1920 1080" enable-background="new 0 0 1920 1080" xml:space="preserve">
<g>
	<path d="M819.864,874.13c19.481,7.298,39.744,12.905,60.229,16.669l9.754-53.083c-17.365-3.19-34.541-7.943-51.053-14.127
		L819.864,874.13z"/>
	<path d="M712.732,810.745c15.8,13.566,32.879,25.813,50.762,36.397l27.494-46.443c-15.18-8.984-29.679-19.383-43.097-30.902
		L712.732,810.745z"/>
	<path d="M646.13,588.467l-53.29,8.558c3.303,20.564,8.452,40.948,15.303,60.587l50.959-17.78
		C653.294,623.186,648.929,605.903,646.13,588.467z"/>
	<path d="M633.84,714.545c10.182,18.118,22.037,35.464,35.238,51.555l41.728-34.229c-11.209-13.664-21.272-28.389-29.915-43.766
		L633.84,714.545z"/>
	<path d="M944.91,842.71l-2.28-0.01l-0.372,53.971l2.652,0.01c19.97,0,40.011-1.668,59.564-4.958l-8.952-53.222
		C978.918,841.294,961.889,842.71,944.91,842.71z"/>
	<path d="M1206.669,692.057l46.645,27.147c10.485-18.012,19.422-37.047,26.567-56.576l-50.684-18.545
		C1223.14,660.639,1215.56,676.779,1206.669,692.057z"/>
	<path d="M1046.781,825.144l18.165,50.823c19.57-6.994,38.661-15.785,56.739-26.123l-26.793-46.852
		C1079.561,811.762,1063.374,819.214,1046.781,825.144z"/>
	<path d="M1138.44,772.748l34.538,41.472c15.976-13.302,30.886-28.102,44.318-43.982l-41.209-34.854
		C1164.677,748.876,1152.011,761.446,1138.44,772.748z"/>
	<path d="M944.91,183.855c-90.229,0-175.06,33.137-240.246,92.729l-71.097-71.097l-20.815,197.565l197.565-20.817l-67.393-67.39
		c55.07-49.514,126.288-77.058,201.985-77.058c166.865,0,302.621,135.246,302.621,302.941c0,17.348-1.546,35.356-4.593,52.674
		l53.153,9.195c3.59-20.399,5.41-42.594,5.41-61.869C1301.502,344.12,1141.535,183.855,944.91,183.855z"/>
</g>
</svg>
