<?xml version="1.0" encoding="utf-8"?>
<!-- Generator: Adobe Illustrator 16.0.0, SVG Export Plug-In . SVG Version: 6.00 Build 0)  -->
<!DOCTYPE svg PUBLIC "-//W3C//DTD SVG 1.1//EN" "http://www.w3.org/Graphics/SVG/1.1/DTD/svg11.dtd">
<svg version="1.1" id="圖層_1" xmlns="http://www.w3.org/2000/svg" xmlns:xlink="http://www.w3.org/1999/xlink" x="0px" y="0px"
	 width="25px" height="25px" viewBox="0 0 25 25" enable-background="new 0 0 25 25" xml:space="preserve">
<g>
	<path d="M8.034,24.209c0.683,0.256,1.394,0.453,2.112,0.585l0.342-1.861c-0.609-0.112-1.211-0.279-1.791-0.496L8.034,24.209z"/>
	<path d="M4.277,21.986c0.554,0.476,1.153,0.905,1.78,1.276l0.964-1.629c-0.532-0.314-1.041-0.68-1.512-1.084L4.277,21.986z"/>
	<path d="M1.941,14.19l-1.869,0.3c0.116,0.722,0.296,1.437,0.537,2.125l1.787-0.623C2.192,15.408,2.039,14.803,1.941,14.19z"/>
	<path d="M1.51,18.612c0.357,0.636,0.772,1.244,1.236,1.809l1.463-1.201c-0.393-0.479-0.746-0.995-1.049-1.534L1.51,18.612z"/>
	<path d="M12.42,23.107h-0.08L12.327,25h0.093c0.7,0,1.403-0.059,2.089-0.174l-0.314-1.866
		C13.612,23.058,13.015,23.107,12.42,23.107z"/>
	<path d="M21.601,17.824l1.635,0.951c0.369-0.631,0.682-1.299,0.932-1.983l-1.777-0.65C22.179,16.722,21.911,17.288,21.601,17.824z"
		/>
	<path d="M15.993,22.491l0.637,1.782c0.686-0.245,1.355-0.554,1.99-0.916l-0.939-1.643C17.142,22.022,16.575,22.283,15.993,22.491z"
		/>
	<path d="M19.208,20.653l1.211,1.455c0.561-0.467,1.082-0.985,1.555-1.543l-1.445-1.222C20.128,19.816,19.683,20.258,19.208,20.653z
		"/>
	<path d="M12.42,0C9.255,0,6.28,1.163,3.994,3.252L1.5,0.759l-0.73,6.929l6.929-0.73L5.336,4.594
		c1.931-1.736,4.429-2.703,7.084-2.703c5.853,0,10.612,4.744,10.612,10.625c0,0.608-0.053,1.239-0.16,1.847l1.863,0.322
		c0.127-0.715,0.191-1.493,0.191-2.169C24.927,5.621,19.315,0,12.42,0z"/>
</g>
</svg>
