<?xml version="1.0" encoding="utf-8"?>
<!-- Generator: Adobe Illustrator 16.0.0, SVG Export Plug-In . SVG Version: 6.00 Build 0)  -->
<!DOCTYPE svg PUBLIC "-//W3C//DTD SVG 1.1//EN" "http://www.w3.org/Graphics/SVG/1.1/DTD/svg11.dtd">
<svg version="1.1" id="Capa_1" xmlns="http://www.w3.org/2000/svg" xmlns:xlink="http://www.w3.org/1999/xlink" x="0px" y="0px"
	 width="841.89px" height="595.281px" viewBox="0 0 841.89 595.281" enable-background="new 0 0 841.89 595.281"
	 xml:space="preserve">
<g>
	<path d="M514.985,359.802c-5.425-5.426-14.219-5.425-19.643,0l-43.877,43.877V256.277c0-7.67-6.219-13.889-13.889-13.889
		c-7.671,0-13.89,6.218-13.89,13.889v147.632l-44.106-44.107c-5.425-5.424-14.219-5.424-19.643,0
		c-5.424,5.424-5.424,14.218,0,19.642l67.117,67.118c0.185,0.206,0.357,0.416,0.554,0.612c2.714,2.714,6.268,4.069,9.822,4.069
		c0.009,0,0.02-0.002,0.028-0.002c0.011,0,0.021,0.002,0.03,0.002c3.555,0,7.109-1.356,9.821-4.069
		c0.198-0.198,0.374-0.409,0.558-0.617l67.115-67.113C520.409,374.019,520.409,365.225,514.985,359.802z"/>
	<path d="M190.521,522.199c-10.913,0-39.178-1.679-65.864-17.263c-24.32-14.2-53.312-43.956-53.312-105.063
		c0-47.709,21.857-84.89,63.208-107.955c39.251-21.895,80.993-22.777,88.962-22.777c0.142,0,0.282,0,0.421,0
		c6.933-21,24.67-58.122,60.063-74.302c17.545-8.021,37.976-12.201,60.723-12.201c11.142,0,20.811,0.949,27.713,1.957
		c5.588-10.447,15.972-27.638,31.59-44.84c33.003-36.347,73.755-55.574,117.851-55.574c22.645,0,46.447,5.018,70.75,14.928
		c68.563,27.958,94.788,76.563,104.716,112.417c6.999,25.281,7.036,47.714,6.159,60.571c10.01,4.531,25.762,12.844,41.066,25.805
		c33.65,28.499,49.113,65.641,44.717,107.413c-5.481,52.063-33.44,81.048-55.932,96.196c-24.181,16.284-47.227,20.283-48.196,20.444
		c-0.76,0.128-1.527,0.186-2.297,0.186H193.478C192.925,522.14,191.917,522.199,190.521,522.199z M223.517,296.468
		c-18.683,0-49.648,5.103-75.431,19.484c-32.489,18.121-48.961,46.358-48.961,83.923c0,38.478,13.303,65.757,39.541,81.078
		c21.412,12.503,45.104,13.475,51.856,13.475c1.239,0,1.931-0.15,1.938-0.15c0.252-0.014,0.461-0.137,0.714-0.137h488.33
		c4.028-1,20.41-4.828,37.2-16.377c25.048-17.23,39.499-42.564,42.957-75.416c3.44-32.675-8.35-60.673-35.042-83.277
		c-20.647-17.485-42.253-24.851-42.469-24.923c-6.532-2.194-10.468-8.838-9.247-15.62c0.042-0.238,4.694-27.944-4.622-60.638
		c-12.219-42.891-41.873-74.203-88.139-93.068c-20.958-8.546-41.232-12.877-60.263-12.877c-36.309,0-68.852,15.423-96.725,45.839
		c-21.532,23.499-32.041,47.53-32.145,47.77c-2.684,6.214-9.468,9.612-16.044,8.013c-0.111-0.027-13.846-3.262-32.241-3.262
		c-18.733,0-35.278,3.221-49.173,9.573c-34.951,15.977-48.127,66.5-48.256,67.009c-0.951,3.746-3.422,6.938-6.815,8.79
		c-3.258,1.777-7.089,2.186-10.634,1.127C229.194,296.69,227.137,296.468,223.517,296.468z"/>
</g>
</svg>
