<?xml version="1.0" encoding="utf-8"?>
<!-- Generator: Adobe Illustrator 16.0.0, SVG Export Plug-In . SVG Version: 6.00 Build 0)  -->
<!DOCTYPE svg PUBLIC "-//W3C//DTD SVG 1.1//EN" "http://www.w3.org/Graphics/SVG/1.1/DTD/svg11.dtd">
<svg version="1.1" id="圖層_1" xmlns="http://www.w3.org/2000/svg" xmlns:xlink="http://www.w3.org/1999/xlink" x="0px" y="0px"
	 width="45px" height="45px" viewBox="0 0 45 45" enable-background="new 0 0 45 45" xml:space="preserve">
<g>
	<path d="M26.881,26.117l-2.977,2.988v-9.992c0-0.518-0.42-0.938-0.938-0.938s-0.938,0.42-0.938,0.938v9.96l-2.969-2.956
		c-0.366-0.367-0.967-0.367-1.333,0c-0.367,0.366-0.37,0.96-0.003,1.327l4.533,4.535c0.013,0.014,0.023,0.028,0.037,0.041
		c0.184,0.184,0.423,0.275,0.663,0.275c0.001,0,0.001,0,0.002,0s0.001,0,0.002,0c0.24,0,0.48-0.092,0.663-0.275
		c0.014-0.013,0.025-0.027,0.038-0.041l4.535-4.535c0.366-0.367,0.372-0.961,0.006-1.327C27.836,25.75,27.248,25.75,26.881,26.117z"
		/>
	<path d="M42.165,21.957c-0.914-0.838-1.855-1.391-2.488-1.709c0.146-0.838,0.288-2.242,0.021-3.828
		c-0.395-2.344-1.774-5.539-6.11-7.453c-1.586-0.7-3.162-1.055-4.688-1.055c-2.805,0-5.495,1.215-7.778,3.513
		c-1.089,1.097-1.84,2.189-2.247,2.849c-0.437-0.068-1.044-0.137-1.741-0.137c-1.44,0-2.733,0.279-3.845,0.829
		c-2.229,1.104-3.339,3.717-3.771,5.021c-0.735,0.038-1.853,0.218-3.075,0.631c-1.664,0.563-3.103,1.422-4.161,2.484
		C0.759,24.632-0.01,26.558,0,28.824c0.017,4.106,1.827,6.113,3.343,7.074c1.687,1.069,3.475,1.188,4.165,1.188
		c0.088,0,0.152,0.001,0.189,0.001H38.24c0.056,0,0.111-0.01,0.167-0.02c0.062-0.011,1.525-0.287,3.053-1.399
		c1.406-1.024,3.154-2.982,3.494-6.487C45.228,26.377,44.263,23.878,42.165,21.957z M43.086,29.003
		c-0.485,4.995-4.351,6.047-4.942,6.208H7.676c-0.02,0-0.034-0.004-0.053-0.003c-0.003,0-1.733,0.084-3.275-0.893
		c-1.629-1.032-2.46-2.883-2.471-5.497c-0.007-1.75,0.576-3.228,1.735-4.392c1.935-1.942,5.009-2.571,6.194-2.571
		c0.078,0,0.125,0.004,0.147,0.006c0.235,0.067,0.49,0.04,0.707-0.078c0.236-0.128,0.406-0.352,0.466-0.613
		c0.221-0.955,1.188-3.627,2.994-4.521c0.851-0.421,1.864-0.635,3.013-0.635c1.129,0,1.973,0.215,1.979,0.217
		c0.425,0.112,0.872-0.088,1.073-0.479c0.008-0.016,0.806-1.545,2.305-3.042c1.942-1.938,4.099-2.921,6.409-2.921
		c1.263,0,2.584,0.301,3.93,0.895c2.843,1.255,4.526,3.268,5.005,5.98c0.369,2.088-0.134,3.844-0.138,3.859
		c-0.143,0.477,0.111,0.98,0.579,1.15c0.013,0.005,1.344,0.498,2.621,1.668C42.566,24.871,43.303,26.777,43.086,29.003z"/>
</g>
</svg>
