<?xml version="1.0" encoding="utf-8"?>
<!-- Generator: Adobe Illustrator 16.0.0, SVG Export Plug-In . SVG Version: 6.00 Build 0)  -->
<!DOCTYPE svg PUBLIC "-//W3C//DTD SVG 1.1//EN" "http://www.w3.org/Graphics/SVG/1.1/DTD/svg11.dtd">
<svg version="1.1" id="圖層_1" xmlns="http://www.w3.org/2000/svg" xmlns:xlink="http://www.w3.org/1999/xlink" x="0px" y="0px"
	 width="15px" height="15px" viewBox="0 0 15 15" enable-background="new 0 0 15 15" xml:space="preserve">
<g>
	<path d="M7.5,0.001C3.365,0.001,0,3.364,0,7.5c0,4.135,3.365,7.499,7.5,7.499c4.136,0,7.5-3.364,7.5-7.499
		C15,3.364,11.636,0.001,7.5,0.001z M7.5,13.328c-3.214,0-5.829-2.614-5.829-5.828c0-3.215,2.615-5.83,5.829-5.83
		c3.215,0,5.829,2.614,5.829,5.83C13.329,10.714,10.715,13.328,7.5,13.328z"/>
	<path d="M9.961,8.858C9.482,9.681,8.592,10.19,7.637,10.19c-1.483,0-2.691-1.208-2.691-2.69c0-1.484,1.208-2.692,2.691-2.692
		c0.955,0,1.846,0.512,2.324,1.333l0.063,0.107h1.808l-0.108-0.291c-0.314-0.833-0.867-1.542-1.598-2.047
		C9.393,3.402,8.533,3.133,7.637,3.133c-2.408,0-4.366,1.96-4.366,4.367c0,2.408,1.958,4.365,4.366,4.365
		c0.896,0,1.756-0.268,2.488-0.775c0.73-0.506,1.283-1.215,1.598-2.048l0.108-0.291h-1.808L9.961,8.858z"/>
</g>
</svg>
