<?xml version="1.0" encoding="utf-8"?>
<!-- Generator: Adobe Illustrator 16.0.0, SVG Export Plug-In . SVG Version: 6.00 Build 0)  -->
<!DOCTYPE svg PUBLIC "-//W3C//DTD SVG 1.1//EN" "http://www.w3.org/Graphics/SVG/1.1/DTD/svg11.dtd">
<svg version="1.1" id="Layer_1" xmlns="http://www.w3.org/2000/svg" xmlns:xlink="http://www.w3.org/1999/xlink" x="0px" y="0px"
	 width="1920px" height="1080px" viewBox="0 0 1920 1080" enable-background="new 0 0 1920 1080" xml:space="preserve">
<g>
	<path d="M1074.479,874.131c-19.479,7.297-39.743,12.905-60.227,16.667l-9.755-53.082c17.364-3.189,34.541-7.943,51.054-14.127
		L1074.479,874.131z"/>
	<path d="M1181.611,810.746c-15.799,13.565-32.878,25.813-50.762,36.397l-27.492-46.444c15.18-8.984,29.679-19.383,43.096-30.902
		L1181.611,810.746z"/>
	<path d="M1248.215,588.468l53.288,8.557c-3.303,20.564-8.452,40.949-15.303,60.588l-50.959-17.781
		C1241.049,623.186,1245.414,605.904,1248.215,588.468z"/>
	<path d="M1260.503,714.546c-10.182,18.117-22.036,35.464-35.237,51.554l-41.728-34.229c11.21-13.665,21.271-28.388,29.914-43.765
		L1260.503,714.546z"/>
	<path d="M949.434,842.71l2.28-0.01l0.373,53.972l-2.653,0.009c-19.969,0-40.011-1.667-59.565-4.957l8.953-53.223
		C915.426,841.294,932.455,842.71,949.434,842.71z"/>
	<path d="M687.675,692.057l-46.645,27.147c-10.485-18.012-19.423-37.046-26.568-56.576l50.684-18.545
		C671.204,660.64,678.784,676.78,687.675,692.057z"/>
	<path d="M847.563,825.144l-18.165,50.824c-19.571-6.996-38.661-15.786-56.739-26.124l26.793-46.852
		C814.783,811.763,830.969,819.214,847.563,825.144z"/>
	<path d="M755.903,772.749l-34.538,41.472c-15.975-13.303-30.886-28.103-44.318-43.984l41.209-34.854
		C729.667,748.877,742.333,761.446,755.903,772.749z"/>
	<path d="M949.434,183.855c90.229,0,175.061,33.137,240.246,92.729l71.097-71.097l20.815,197.565l-197.564-20.817l67.392-67.39
		c-55.069-49.514-126.288-77.059-201.985-77.059c-166.865,0-302.621,135.246-302.621,302.942c0,17.349,1.545,35.356,4.593,52.675
		l-53.155,9.195c-3.589-20.399-5.409-42.595-5.409-61.87C592.842,344.12,752.808,183.855,949.434,183.855z"/>
</g>
</svg>
