<?xml version="1.0" encoding="utf-8"?>
<!-- Generator: Adobe Illustrator 16.0.0, SVG Export Plug-In . SVG Version: 6.00 Build 0)  -->
<!DOCTYPE svg PUBLIC "-//W3C//DTD SVG 1.1//EN" "http://www.w3.org/Graphics/SVG/1.1/DTD/svg11.dtd">
<svg version="1.1" id="圖層_1" xmlns="http://www.w3.org/2000/svg" xmlns:xlink="http://www.w3.org/1999/xlink" x="0px" y="0px"
	 width="25px" height="25px" viewBox="0 0 25 25" enable-background="new 0 0 25 25" xml:space="preserve">
<g>
	<path d="M16.964,24.209c-0.683,0.256-1.394,0.453-2.111,0.584l-0.343-1.861c0.609-0.111,1.212-0.279,1.791-0.496L16.964,24.209z"/>
	<path d="M20.722,21.986c-0.554,0.475-1.153,0.904-1.78,1.275l-0.964-1.629c0.532-0.314,1.04-0.68,1.511-1.084L20.722,21.986z"/>
	<path d="M23.058,14.189l1.869,0.301c-0.116,0.721-0.297,1.436-0.537,2.125l-1.787-0.623C22.807,15.408,22.959,14.801,23.058,14.189
		z"/>
	<path d="M23.488,18.611c-0.356,0.637-0.772,1.244-1.235,1.809l-1.464-1.201c0.394-0.479,0.746-0.994,1.049-1.533L23.488,18.611z"/>
	<path d="M12.579,23.107h0.08L12.672,25h-0.093c-0.7,0-1.403-0.059-2.089-0.174l0.313-1.867
		C11.386,23.057,11.983,23.107,12.579,23.107z"/>
	<path d="M3.398,17.824l-1.636,0.951c-0.368-0.631-0.681-1.299-0.932-1.984l1.778-0.65C2.821,16.721,3.086,17.287,3.398,17.824z"/>
	<path d="M9.006,22.49l-0.637,1.783c-0.687-0.246-1.356-0.555-1.99-0.916l0.94-1.643C7.856,22.021,8.424,22.283,9.006,22.49z"/>
	<path d="M5.792,20.652L4.58,22.107c-0.56-0.467-1.083-0.984-1.554-1.543l1.445-1.223C4.871,19.816,5.315,20.258,5.792,20.652z"/>
	<path d="M12.579,0c3.164,0,6.14,1.163,8.426,3.252l2.493-2.494l0.73,6.929l-6.93-0.73l2.364-2.363
		c-1.932-1.736-4.43-2.703-7.084-2.703c-5.853,0-10.614,4.743-10.614,10.625c0,0.609,0.054,1.24,0.161,1.847l-1.864,0.322
		c-0.126-0.715-0.189-1.494-0.189-2.169C0.073,5.621,5.683,0,12.579,0z"/>
</g>
</svg>
