<?xml version="1.0" encoding="utf-8"?>
<!-- Generator: Adobe Illustrator 16.0.0, SVG Export Plug-In . SVG Version: 6.00 Build 0)  -->
<!DOCTYPE svg PUBLIC "-//W3C//DTD SVG 1.1//EN" "http://www.w3.org/Graphics/SVG/1.1/DTD/svg11.dtd">
<svg version="1.1" id="圖層_1" xmlns="http://www.w3.org/2000/svg" xmlns:xlink="http://www.w3.org/1999/xlink" x="0px" y="0px"
	 width="50px" height="50px" viewBox="0 0 50 50" enable-background="new 0 0 50 50" xml:space="preserve">
<g>
	<path fill="#FFAA00" d="M33.781,26.253c-0.711-0.713-1.848-0.713-2.559,0l-4.404,4.423V14.921c0-1.007-0.813-1.823-1.818-1.823
		c-1.008,0-1.818,0.816-1.818,1.823v15.743l-4.438-4.412c-0.712-0.713-1.879-0.713-2.592,0c-0.712,0.713-0.718,1.868-0.005,2.58
		l7.464,7.468c0.021,0.021,0.037,0.045,0.061,0.066c0.355,0.357,0.821,0.535,1.288,0.535c0.001,0,0.002,0,0.002,0
		c0.002,0,0.002,0,0.004,0c0.467,0,0.932-0.178,1.288-0.535c0.023-0.021,0.041-0.045,0.063-0.066l7.467-7.468
		C34.496,28.12,34.496,26.965,33.781,26.253z"/>
	<path fill="#FFAA00" d="M41.443,43.033H8.425C5.959,43.033,4,41,4,38.52v-5.926c0-1.004,0.811-1.822,1.818-1.822
		c1.007,0,1.819,0.818,1.819,1.822v5.926c0,0.461,0.343,0.875,0.789,0.875h33.018c0.465,0,0.922-0.422,0.922-0.875v-5.926
		c0-1.004,0.811-1.822,1.816-1.822c1.008,0,1.818,0.818,1.818,1.822v5.926C46.002,41,43.934,43.033,41.443,43.033z"/>
</g>
</svg>
