<?xml version="1.0" encoding="utf-8"?>
<!-- Generator: Adobe Illustrator 16.0.0, SVG Export Plug-In . SVG Version: 6.00 Build 0)  -->
<!DOCTYPE svg PUBLIC "-//W3C//DTD SVG 1.1//EN" "http://www.w3.org/Graphics/SVG/1.1/DTD/svg11.dtd">
<svg version="1.1" id="Layer_1" xmlns="http://www.w3.org/2000/svg" xmlns:xlink="http://www.w3.org/1999/xlink" x="0px" y="0px"
	 width="841.89px" height="595.281px" viewBox="0 0 841.89 595.281" enable-background="new 0 0 841.89 595.281"
	 xml:space="preserve">
<g>
	<path d="M571.148,230.554c-12.141-12.146-31.5-12.146-43.643,0l-75.061,75.391V37.399c0-17.173-13.827-31.095-31-31.095
		c-17.174,0-31,13.921-31,31.095V305.76l-75.633-75.206c-12.143-12.143-32.042-12.143-44.186,0
		c-12.144,12.143-12.25,31.831-0.106,43.973l127.228,127.278c0.347,0.385,0.646,0.787,1.018,1.158
		c6.072,6.074,14.015,9.107,21.971,9.107c0.021,0,0.032-0.005,0.051-0.005c0.019,0,0.031,0.005,0.053,0.005
		c7.957,0,15.913-3.037,21.985-9.107c0.371-0.371,0.696-0.773,1.044-1.158l127.278-127.278
		C583.293,262.385,583.293,242.697,571.148,230.554z"/>
	<path d="M701.763,583.14H138.899c-42.042,0-75.454-34.652-75.454-76.938V405.206c0-17.171,13.827-31.094,31-31.094
		s31,13.923,31,31.094v100.996c0,7.86,5.835,14.938,13.454,14.938h562.864c7.866,0,15.682-7.213,15.682-14.938V405.206
		c0-17.171,13.828-31.094,31-31.094c17.175,0,31,13.923,31,31.094v100.996C779.445,548.488,744.199,583.14,701.763,583.14z"/>
</g>
</svg>
