<?xml version="1.0" encoding="utf-8"?>
<!-- Generator: Adobe Illustrator 16.0.0, SVG Export Plug-In . SVG Version: 6.00 Build 0)  -->
<!DOCTYPE svg PUBLIC "-//W3C//DTD SVG 1.1//EN" "http://www.w3.org/Graphics/SVG/1.1/DTD/svg11.dtd">
<svg version="1.1" id="圖層_1" xmlns="http://www.w3.org/2000/svg" xmlns:xlink="http://www.w3.org/1999/xlink" x="0px" y="0px"
	 width="50px" height="50px" viewBox="0 0 50 50" enable-background="new 0 0 50 50" xml:space="preserve">
<g>
	<path d="M25,44.65c-5.342,0-10.364-2.08-14.142-5.857C7.081,35.016,5,29.993,5,24.651c0-5.342,2.081-10.365,5.858-14.142
		c3.777-3.777,8.8-5.858,14.142-5.858s10.363,2.081,14.143,5.858C42.92,14.286,45,19.309,45,24.651
		c0,5.342-2.08,10.365-5.857,14.142C35.363,42.57,30.342,44.65,25,44.65z M25,8.727c-8.781,0-15.925,7.144-15.925,15.924
		c0,8.781,7.144,15.924,15.925,15.924c8.781,0,15.925-7.144,15.925-15.924C40.925,15.871,33.781,8.727,25,8.727z"/>
</g>
<g>
	<path d="M25.001,29.911c-1.104,0-2-0.896-2-2v-13c0-1.104,0.896-2,2-2s2,0.896,2,2v13C27.001,29.016,26.105,29.911,25.001,29.911z"
		/>
	<circle cx="25" cy="33.891" r="2.5"/>
</g>
</svg>
