<?xml version="1.0" encoding="utf-8"?>
<!-- Generator: Adobe Illustrator 16.0.0, SVG Export Plug-In . SVG Version: 6.00 Build 0)  -->
<!DOCTYPE svg PUBLIC "-//W3C//DTD SVG 1.1//EN" "http://www.w3.org/Graphics/SVG/1.1/DTD/svg11.dtd">
<svg version="1.1" id="圖層_1" xmlns="http://www.w3.org/2000/svg" xmlns:xlink="http://www.w3.org/1999/xlink" x="0px" y="0px"
	 width="110px" height="110px" viewBox="0 0 110 110" enable-background="new 0 0 110 110" xml:space="preserve">
<g>
	<g>
		<path fill="#FF6900" d="M55,5c6.752,0,13.299,1.321,19.46,3.927c5.953,2.518,11.302,6.124,15.895,10.718
			c4.594,4.594,8.199,9.941,10.718,15.895c2.605,6.161,3.927,12.708,3.927,19.461c0,6.751-1.321,13.299-3.927,19.46
			c-2.519,5.953-6.124,11.301-10.718,15.895s-9.941,8.199-15.895,10.718C68.299,103.679,61.752,105,55,105
			c-6.752,0-13.3-1.321-19.46-3.927c-5.954-2.519-11.301-6.124-15.895-10.718c-4.593-4.594-8.199-9.941-10.717-15.895
			C6.321,68.3,5,61.752,5,55c0-6.752,1.321-13.3,3.927-19.461c2.518-5.954,6.124-11.301,10.717-15.895
			c4.594-4.594,9.941-8.2,15.895-10.718C41.7,6.321,48.248,5,55,5 M55,0C24.624,0,0,24.625,0,55c0,30.375,24.625,55,55,55
			s55-24.624,55-55C110,24.625,85.375,0,55,0L55,0z"/>
	</g>
	<g>
		<path fill="#FF6900" d="M54.958,72.75c-2.209,0-4-1.791-4-4v-44c0-2.209,1.791-4,4-4c2.209,0,3.999,1.791,3.999,4v44
			C58.957,70.959,57.167,72.75,54.958,72.75z"/>
		<circle fill="#FF6900" cx="54.958" cy="83.75" r="5.5"/>
	</g>
</g>
</svg>
