<?xml version="1.0" encoding="utf-8"?>
<!-- Generator: Adobe Illustrator 16.0.0, SVG Export Plug-In . SVG Version: 6.00 Build 0)  -->
<!DOCTYPE svg PUBLIC "-//W3C//DTD SVG 1.1//EN" "http://www.w3.org/Graphics/SVG/1.1/DTD/svg11.dtd">
<svg version="1.1" id="圖層_1" xmlns="http://www.w3.org/2000/svg" xmlns:xlink="http://www.w3.org/1999/xlink" x="0px" y="0px"
	 width="50px" height="50px" viewBox="0 0 50 50" enable-background="new 0 0 50 50" xml:space="preserve">
<g>
	<path d="M10.544,41.5h14.858v-4.848h-8.806l11.447-11.447l-3.44-3.441L13.346,33.021v-8.616H8.5v15.051
		C8.5,40.584,9.415,41.5,10.544,41.5z"/>
	<path d="M13.346,15.516c0-1.199,0.971-2.17,2.17-2.17h18.967c1.199,0,2.17,0.971,2.17,2.17v18.967c0,1.199-0.972,2.17-2.17,2.17
		h-3.928V41.5h8.9c1.129,0,2.045-0.916,2.045-2.045V10.544c0-1.129-0.916-2.044-2.045-2.044H10.544C9.415,8.5,8.5,9.415,8.5,10.544
		v8.708h4.846V15.516L13.346,15.516z"/>
</g>
</svg>
