<?xml version="1.0" encoding="utf-8"?>
<!-- Generator: Adobe Illustrator 16.0.0, SVG Export Plug-In . SVG Version: 6.00 Build 0)  -->
<!DOCTYPE svg PUBLIC "-//W3C//DTD SVG 1.1//EN" "http://www.w3.org/Graphics/SVG/1.1/DTD/svg11.dtd">
<svg version="1.1" id="圖層_1" xmlns="http://www.w3.org/2000/svg" xmlns:xlink="http://www.w3.org/1999/xlink" x="0px" y="0px"
	 width="50px" height="50px" viewBox="0 0 50 50" enable-background="new 0 0 50 50" xml:space="preserve">
<path d="M25,44.65c-5.342,0-10.364-2.08-14.142-5.857C7.081,35.016,5,29.993,5,24.651c0-5.342,2.081-10.365,5.858-14.142
	c3.777-3.777,8.8-5.858,14.142-5.858s10.363,2.081,14.143,5.858C42.92,14.286,45,19.309,45,24.651c0,5.342-2.08,10.365-5.857,14.142
	C35.363,42.57,30.342,44.65,25,44.65z M25,8.727c-8.781,0-15.925,7.144-15.925,15.924c0,8.781,7.144,15.924,15.925,15.924
	c8.781,0,15.925-7.144,15.925-15.924C40.925,15.871,33.781,8.727,25,8.727z"/>
<path d="M27.828,24.65l4.586-4.585c0.781-0.781,0.781-2.047,0-2.828c-0.781-0.781-2.047-0.781-2.828,0L25,21.823l-4.586-4.586
	c-0.781-0.781-2.048-0.781-2.828,0c-0.781,0.781-0.781,2.047,0,2.828l4.586,4.585l-4.586,4.586c-0.781,0.781-0.781,2.047,0,2.828
	c0.391,0.391,0.902,0.586,1.414,0.586s1.024-0.195,1.414-0.586L25,27.479l4.586,4.586c0.391,0.391,0.902,0.586,1.414,0.586
	s1.023-0.195,1.414-0.586c0.781-0.781,0.781-2.047,0-2.828L27.828,24.65z"/>
</svg>
