<?xml version="1.0" encoding="utf-8"?>
<!-- Generator: Adobe Illustrator 16.0.0, SVG Export Plug-In . SVG Version: 6.00 Build 0)  -->
<!DOCTYPE svg PUBLIC "-//W3C//DTD SVG 1.1//EN" "http://www.w3.org/Graphics/SVG/1.1/DTD/svg11.dtd">
<svg version="1.1" id="Capa_1" xmlns="http://www.w3.org/2000/svg" xmlns:xlink="http://www.w3.org/1999/xlink" x="0px" y="0px"
	 width="841.89px" height="595.281px" viewBox="0 0 841.89 595.281" enable-background="new 0 0 841.89 595.281"
	 xml:space="preserve">
<g>
	<path d="M744.468,230.494c-9.211-13.423-26.911-19.354-40.365-19.354h-32.658v-61.185c0-24.383-20.65-43.815-45.611-43.815h-226.11
		c-4.494,0-5.686-1.876-6.629-3.591c-1.258-2.286-1.649-5.307-1.649-6.37V82.43c0-24.521-20.27-44.289-44.925-44.289H170.03
		c-24.4,0-43.585,19.354-43.585,44.289v423.72l-0.579,2.286c-3.103,10.712-1.138,21.552,5.511,30.442
		c8.271,11.061,23.454,18.263,38.654,18.263h465.013c21.313,0,37.83-15.506,44.207-41.397l68.852-255.682
		C751.81,249.79,750.532,239.327,744.468,230.494z M154.445,82.43c0-9.442,6.688-16.289,15.585-16.289h176.49
		c9.268,0,16.925,7.157,16.925,16.289v14.068l-0.056,0.519c0.285,14.822,10.153,37.124,36.334,37.124h226.11
		c9.572,0,17.611,6.819,17.611,15.815v61.185H239.092c-20.822,0-36.9,14.876-44.129,40.95l-40.518,150.424V82.43z M721.777,250.722
		l-0.263,0.684l-69.252,257.176l-0.081,0.327c-1.844,7.553-6.523,20.232-17.138,20.232H170.03c-6.399,0-13.248-2.959-16.287-7.021
		c-1.416-1.893-1.712-3.624-1.023-5.961l0.046-0.16l69.091-256.451c2.607-9.378,7.71-20.406,17.234-20.406h465.011
		c6.801,0,14.588,3.157,17.356,7.19C722.315,247.577,722.619,248.541,721.777,250.722z"/>
	<path d="M495.673,399.617l-44.229,44.434v-148.55c0-7.706-6.294-13.953-14-13.953s-14,6.247-14,13.953v148.073l-44.116-43.957
		c-5.449-5.449-14.364-5.449-19.813,0c-5.449,5.449-5.489,14.283-0.04,19.732l67.41,67.429c0.184,0.207,0.35,0.247,0.547,0.446
		c2.725,2.725,6.291,3.916,9.862,3.916c0.009,0,0.017,0,0.026,0s0.02,0,0.028,0c3.571,0,7.142-1.191,9.866-3.916
		c0.197-0.199,0.373-0.324,0.557-0.531l67.429-67.387c5.449-5.449,5.552-14.262,0.103-19.711
		C509.855,394.145,501.123,394.167,495.673,399.617z"/>
</g>
</svg>
