<?xml version="1.0" encoding="utf-8"?>
<!-- Generator: Adobe Illustrator 16.0.0, SVG Export Plug-In . SVG Version: 6.00 Build 0)  -->
<!DOCTYPE svg PUBLIC "-//W3C//DTD SVG 1.1//EN" "http://www.w3.org/Graphics/SVG/1.1/DTD/svg11.dtd">
<svg version="1.1" id="Capa_1" xmlns="http://www.w3.org/2000/svg" xmlns:xlink="http://www.w3.org/1999/xlink" x="0px" y="0px"
	 width="841.89px" height="595.281px" viewBox="0 0 841.89 595.281" enable-background="new 0 0 841.89 595.281"
	 xml:space="preserve">
<path d="M735.834,20.14h-48.05h-36.167h-65.1h-36.167h-65.1h-36.167h-65.099h-36.167h-65.1h-36.167h-65.1h-36.167H95.168
	c-28.535,0-51.724,22.037-51.724,50.571v452.6c0,28.535,23.189,52.829,51.724,52.829h45.983h36.167h65.1h36.167h65.1h36.167h65.1
	h36.166h65.101h36.166h65.101h36.167h52.183c28.536,0,51.61-24.294,51.61-52.829v-452.6C787.445,42.177,764.371,20.14,735.834,20.14
	z M735.318,56.14h0.517c8.548,0,15.61,6.024,15.61,14.571v56.429h-63v-71H735.318z M79.445,433.14v-270h672v270H79.445z
	 M652.445,56.14v71h-65v-71H652.445z M550.445,56.14v71h-65v-71H550.445z M449.445,56.14v71h-65v-71H449.445z M348.445,56.14v71h-65
	v-71H348.445z M247.445,56.14v71h-66v-71H247.445z M95.168,56.14h50.276v71h-66V70.712C79.445,62.165,86.622,56.14,95.168,56.14z
	 M95.168,540.14c-8.547,0-15.724-8.281-15.724-16.829V470.14h62v70H95.168z M177.445,540.14v-70h65v70H177.445z M279.445,540.14v-70
	h65v70H279.445z M380.445,540.14v-70h65v70H380.445z M481.445,540.14v-70h65v70H481.445z M582.445,540.14v-70h65v70H582.445z
	 M735.834,540.14h-51.39v-70h67v53.171C751.445,531.859,744.382,540.14,735.834,540.14z"/>
</svg>
