<?xml version="1.0" encoding="utf-8"?>
<!-- Generator: Adobe Illustrator 16.0.0, SVG Export Plug-In . SVG Version: 6.00 Build 0)  -->
<!DOCTYPE svg PUBLIC "-//W3C//DTD SVG 1.1//EN" "http://www.w3.org/Graphics/SVG/1.1/DTD/svg11.dtd">
<svg version="1.1" id="圖層_1" xmlns="http://www.w3.org/2000/svg" xmlns:xlink="http://www.w3.org/1999/xlink" x="0px" y="0px"
	 width="80px" height="80px" viewBox="0 0 80 80" enable-background="new 0 0 80 80" xml:space="preserve">
<path d="M60.168,22.5h-3.024h-2.276H50.77h-2.277h-4.098h-2.277H38.02h-2.276h-4.098h-2.277h-4.098h-2.277h-3.154
	c-1.797,0-3.256,1.388-3.256,3.184v28.491c0,1.797,1.459,3.326,3.256,3.326h2.895h2.276h4.099h2.276h4.099h2.275h4.099h2.277h4.098
	h2.276h4.098h2.277h3.285c1.796,0,3.248-1.529,3.248-3.326V25.683C63.417,23.887,61.965,22.5,60.168,22.5z M60.136,24.766h0.033
	c0.538,0,0.982,0.379,0.982,0.917v3.553h-3.966v-4.47H60.136z M18.849,48.498V31.501h42.303v16.997H18.849z M54.919,24.766v4.47
	h-4.092v-4.47H54.919z M48.498,24.766v4.47h-4.092v-4.47H48.498z M42.141,24.766v4.47h-4.093v-4.47H42.141z M35.782,24.766v4.47
	H31.69v-4.47H35.782z M29.425,24.766v4.47H25.27v-4.47H29.425z M19.839,24.766h3.164v4.47h-4.154v-3.553
	C18.849,25.145,19.301,24.766,19.839,24.766z M19.839,55.234c-0.538,0-0.99-0.521-0.99-1.061v-3.348h3.903v4.408H19.839z
	 M25.019,55.234v-4.408h4.092v4.408H25.019z M31.438,55.234v-4.408h4.092v4.408H31.438z M37.797,55.234v-4.408h4.092v4.408H37.797z
	 M44.154,55.234v-4.408h4.092v4.408H44.154z M50.513,55.234v-4.408h4.092v4.408H50.513z M60.168,55.234h-3.234v-4.408h4.218v3.348
	C61.151,54.713,60.706,55.234,60.168,55.234z"/>
</svg>
