<?xml version="1.0" encoding="utf-8"?>
<!-- Generator: Adobe Illustrator 16.0.0, SVG Export Plug-In . SVG Version: 6.00 Build 0)  -->
<!DOCTYPE svg PUBLIC "-//W3C//DTD SVG 1.1//EN" "http://www.w3.org/Graphics/SVG/1.1/DTD/svg11.dtd">
<svg version="1.1" id="圖層_1" xmlns="http://www.w3.org/2000/svg" xmlns:xlink="http://www.w3.org/1999/xlink" x="0px" y="0px"
	 width="110px" height="110px" viewBox="0 0 110 110" enable-background="new 0 0 110 110" xml:space="preserve">
<g>
	<path fill="#FF6900" d="M55,110c-14.691,0-28.502-5.722-38.891-16.109C5.721,83.502,0,69.69,0,55
		c0-14.691,5.721-28.503,16.109-38.892S40.309,0,55,0C69.691,0,83.503,5.72,93.892,16.108C104.279,26.497,110,40.309,110,55
		c0,14.69-5.721,28.502-16.108,38.891C83.503,104.278,69.691,110,55,110z M55,11.207c-24.147,0-43.792,19.645-43.792,43.793
		c0,24.147,19.646,43.792,43.792,43.792c24.147,0,43.793-19.645,43.793-43.792C98.793,30.852,79.147,11.207,55,11.207z"/>
	<path fill="#FF6900" d="M48.376,75.002c-1.434,0-2.868-0.547-3.963-1.641l-15.549-15.55c-2.188-2.188-2.188-5.736,0-7.925
		c2.188-2.188,5.736-2.188,7.925,0l11.587,11.587l24.836-24.836c2.188-2.188,5.736-2.188,7.925,0c2.188,2.188,2.188,5.737,0,7.926
		L52.338,73.361C51.244,74.455,49.81,75.002,48.376,75.002z"/>
</g>
</svg>
