<?xml version="1.0" encoding="utf-8"?>
<!-- Generator: Adobe Illustrator 16.0.0, SVG Export Plug-In . SVG Version: 6.00 Build 0)  -->
<!DOCTYPE svg PUBLIC "-//W3C//DTD SVG 1.1//EN" "http://www.w3.org/Graphics/SVG/1.1/DTD/svg11.dtd">
<svg version="1.1" id="Capa_1" xmlns="http://www.w3.org/2000/svg" xmlns:xlink="http://www.w3.org/1999/xlink" x="0px" y="0px"
	 width="486.547px" height="486.547px" viewBox="0 0 486.547 486.547" enable-background="new 0 0 486.547 486.547"
	 xml:space="preserve">
<g>
	<path d="M243.13,464.176c-58.882,0-114.24-22.931-155.876-64.566c-41.636-41.637-64.566-96.993-64.566-155.876
		c0-58.882,22.93-114.24,64.566-155.876c41.636-41.636,96.994-64.566,155.876-64.566c58.882,0,114.239,22.93,155.876,64.566
		c41.636,41.636,64.565,96.994,64.565,155.876c0,58.883-22.93,114.239-64.565,155.876
		C357.369,441.245,302.012,464.176,243.13,464.176z M243.13,68.213c-96.783,0-175.521,78.738-175.521,175.521
		c0,96.783,78.738,175.522,175.521,175.522c96.782,0,175.521-78.739,175.521-175.522C418.651,146.951,339.912,68.213,243.13,68.213z
		"/>
	<path d="M216.58,323.905c-5.748,0-11.496-2.192-15.882-6.577l-62.322-62.322c-8.771-8.771-8.771-22.992,0-31.763
		c8.771-8.771,22.992-8.771,31.763-0.001l46.441,46.44l99.542-99.541c8.77-8.771,22.992-8.771,31.763,0
		c8.771,8.771,8.771,22.993,0,31.764L232.461,317.327C228.076,321.712,222.327,323.905,216.58,323.905z"/>
</g>
</svg>
