<?xml version="1.0" encoding="utf-8"?>
<!-- Generator: Adobe Illustrator 16.0.0, SVG Export Plug-In . SVG Version: 6.00 Build 0)  -->
<!DOCTYPE svg PUBLIC "-//W3C//DTD SVG 1.1//EN" "http://www.w3.org/Graphics/SVG/1.1/DTD/svg11.dtd">
<svg version="1.1" id="圖層_1" xmlns="http://www.w3.org/2000/svg" xmlns:xlink="http://www.w3.org/1999/xlink" x="0px" y="0px"
	 width="45px" height="45px" viewBox="0 0 45 45" enable-background="new 0 0 45 45" xml:space="preserve">
<g>
	<g>
		<rect x="43.518" y="21.454" width="1.482" height="2.224"/>
		<path d="M40.712,23.678h-2.753v-2.224h2.753V23.678z M35.206,23.678H32.4v-2.224h2.806V23.678z M29.647,23.678h-2.807v-2.224
			h2.807V23.678z M24.088,23.678h-2.806v-2.224h2.806V23.678z M18.529,23.678h-2.806v-2.224h2.806V23.678z M12.971,23.678h-2.753
			v-2.224h2.753V23.678z M7.412,23.678H4.659v-2.224h2.753V23.678z"/>
		<rect y="21.454" width="1.482" height="2.224"/>
	</g>
	<path d="M33.318,7.634l-2.02,6.673H13.807l-2.037-6.67H33.3 M36.847,4.989H8.223l3.639,11.965h21.38l3.604-11.99V4.989z"/>
	<path d="M31.284,30.715l2.054,6.675H11.77l2.037-6.671h17.481 M33.242,28.125h-21.38L8.223,40.036h28.663L33.242,28.125
		L33.242,28.125z"/>
</g>
</svg>
