<?xml version="1.0" encoding="utf-8"?>
<!-- Generator: Adobe Illustrator 16.0.0, SVG Export Plug-In . SVG Version: 6.00 Build 0)  -->
<!DOCTYPE svg PUBLIC "-//W3C//DTD SVG 1.1//EN" "http://www.w3.org/Graphics/SVG/1.1/DTD/svg11.dtd">
<svg version="1.1" id="圖層_1" xmlns="http://www.w3.org/2000/svg" xmlns:xlink="http://www.w3.org/1999/xlink" x="0px" y="0px"
	 width="25px" height="25px" viewBox="0 0 25 25" enable-background="new 0 0 25 25" xml:space="preserve">
<g>
	<g>
		<path fill="#040000" d="M24.771,9.82c-0.369-0.536-1.076-0.776-1.612-0.776h-1.318V6.605c0-0.974-0.812-1.767-1.81-1.767h-9.033
			c-0.18,0-0.231-0.067-0.269-0.135c-0.05-0.091-0.067-0.204-0.07-0.247V3.907c0-0.979-0.801-1.777-1.787-1.777H1.821
			c-0.975,0-1.739,0.781-1.739,1.777v16.93l-0.024,0.091c-0.124,0.428-0.046,0.859,0.219,1.215c0.331,0.441,0.937,0.728,1.544,0.728
			H20.4c0.852,0,1.511-0.617,1.766-1.651l2.751-10.216C25.064,10.591,25.014,10.173,24.771,9.82z M1.197,3.907
			c0-0.377,0.268-0.662,0.624-0.662h7.051c0.371,0,0.671,0.297,0.671,0.662v0.562V4.48c0.011,0.592,0.408,1.474,1.454,1.474h9.032
			c0.384,0,0.695,0.292,0.695,0.651v2.438H4.58c-0.832,0-1.475,0.598-1.764,1.639l-1.619,6.013V3.907z M23.865,10.631l-0.012,0.027
			l-2.767,10.275l-0.004,0.012c-0.073,0.303-0.261,0.81-0.685,0.81H1.821c-0.256,0-0.529-0.118-0.651-0.28
			c-0.057-0.076-0.068-0.145-0.041-0.238l0.002-0.006l2.761-10.25c0.104-0.375,0.308-0.82,0.688-0.82h18.579
			c0.271,0,0.583,0.131,0.692,0.292C23.887,10.5,23.898,10.544,23.865,10.631z"/>
	</g>
</g>
</svg>
