<?xml version="1.0" encoding="utf-8"?>
<!-- Generator: Adobe Illustrator 16.0.0, SVG Export Plug-In . SVG Version: 6.00 Build 0)  -->
<!DOCTYPE svg PUBLIC "-//W3C//DTD SVG 1.1//EN" "http://www.w3.org/Graphics/SVG/1.1/DTD/svg11.dtd">
<svg version="1.1" id="Capa_1" xmlns="http://www.w3.org/2000/svg" xmlns:xlink="http://www.w3.org/1999/xlink" x="0px" y="0px"
	 width="841.89px" height="595.281px" viewBox="0 0 841.89 595.281" enable-background="new 0 0 841.89 595.281"
	 xml:space="preserve">
<path fill="none" stroke="#FFFFFF" stroke-width="35" stroke-miterlimit="10" d="M629.5,331"/>
<g>
	<path d="M751.6,29.14h-46.5h-35h-63h-35h-63h-35h-63h-35h-63h-35h-63h-35h-48.5c-27.614,0-50.156,21.245-50.156,48.859v438
		c0,27.614,22.542,51.141,50.156,51.141h44.5h35h63h35h63h35h63h35h63h35h63h35h50.5c27.615,0,49.845-23.526,49.845-51.141V78
		C801.445,50.385,779.215,29.14,751.6,29.14z M751.1,64.14h0.5c8.271,0,14.845,5.588,14.845,13.859v54.141h-61v-68H751.1z
		 M116.445,429.14v-262h650v262H116.445z M670.445,64.14v68h-63v-68H670.445z M572.445,64.14v68h-63v-68H572.445z M474.445,64.14v68
		h-63v-68H474.445z M376.445,64.14v68h-63v-68H376.445z M278.445,64.14v68h-63v-68H278.445z M131.601,64.14h48.844v68h-64V78
		C116.445,69.728,123.33,64.14,131.601,64.14z M131.601,532.14c-8.271,0-15.156-7.869-15.156-16.141V464.14h60v68H131.601z
		 M211.445,532.14v-68h63v68H211.445z M309.445,532.14v-68h63v68H309.445z M407.445,532.14v-68h63v68H407.445z M505.445,532.14v-68
		h63v68H505.445z M603.445,532.14v-68h63v68H603.445z M751.6,532.14h-50.155v-68h65V516
		C766.445,524.271,759.872,532.14,751.6,532.14z"/>
	<g>
		<path d="M334.798,241.683H271.31v40.697h53.07c4.919,0,8.591,1.104,11.016,3.311c2.423,2.208,3.636,5.154,3.636,8.846
			c0,3.689-1.231,6.619-3.69,8.791c-2.461,2.169-6.115,3.255-10.961,3.255h-53.07v52.419c0,6.657-1.503,11.596-4.504,14.813
			c-3.003,3.219-6.855,4.831-11.558,4.831c-4.775,0-8.666-1.629-11.667-4.885c-3.003-3.256-4.504-8.176-4.504-14.76V236.583
			c0-4.63,0.687-8.411,2.062-11.341c1.373-2.932,3.527-5.064,6.458-6.403c2.93-1.339,6.674-2.009,11.232-2.009h75.969
			c5.137,0,8.954,1.141,11.45,3.419c2.495,2.278,3.744,5.265,3.744,8.954c0,3.762-1.249,6.782-3.744,9.062
			C343.752,240.545,339.935,241.683,334.798,241.683z"/>
		<path d="M435.729,313.963h-29.52v45.039c0,6.44-1.519,11.324-4.558,14.651s-6.875,4.993-11.504,4.993
			c-4.848,0-8.755-1.647-11.722-4.939c-2.967-3.291-4.449-8.121-4.449-14.488V236.583c0-7.09,1.628-12.155,4.884-15.194
			s8.428-4.559,15.52-4.559h41.349c12.227,0,21.633,0.941,28.217,2.822c6.512,1.811,12.137,4.813,16.877,9.008
			c4.738,4.197,8.338,9.334,10.799,15.411c2.457,6.077,3.689,12.915,3.689,20.512c0,16.208-4.992,28.487-14.977,36.845
			S455.481,313.963,435.729,313.963z M427.915,241.033h-21.705v48.619h21.705c7.598,0,13.947-0.795,19.047-2.387
			c5.102-1.592,8.988-4.195,11.666-7.814c2.676-3.617,4.016-8.357,4.016-14.217c0-7.018-2.061-12.733-6.186-17.148
			C451.827,243.385,442.311,241.033,427.915,241.033z"/>
		<path d="M643.125,328.179c0,9.624-2.48,18.27-7.436,25.938c-4.955,7.671-12.209,13.675-21.76,18.017
			c-9.549,4.341-20.873,6.513-33.969,6.513c-15.701,0-28.65-2.967-38.852-8.9c-7.236-4.268-13.115-9.965-17.637-17.094
			c-4.521-7.125-6.783-14.055-6.783-20.783c0-3.906,1.357-7.252,4.07-10.038c2.713-2.784,6.168-4.179,10.365-4.179
			c3.398,0,6.275,1.086,8.627,3.256c2.35,2.17,4.357,5.391,6.023,9.658c2.025,5.066,4.215,9.299,6.566,12.699
			c2.35,3.402,5.66,6.205,9.93,8.41c4.268,2.209,9.877,3.311,16.822,3.311c9.551,0,17.311-2.225,23.279-6.674
			c5.969-4.45,8.953-10.002,8.953-16.66c0-5.28-1.611-9.566-4.83-12.859c-3.221-3.292-7.379-5.807-12.48-7.543
			c-5.1-1.736-11.92-3.582-20.457-5.535c-11.434-2.676-21-5.807-28.705-9.388c-7.707-3.581-13.82-8.465-18.342-14.651
			c-4.523-6.187-6.783-13.873-6.783-23.062c0-8.754,2.389-16.532,7.164-23.334c4.773-6.8,11.682-12.027,20.729-15.682
			c9.043-3.653,19.678-5.481,31.906-5.481c9.768,0,18.215,1.213,25.342,3.637c7.125,2.424,13.039,5.643,17.744,9.658
			c4.701,4.016,8.139,8.231,10.309,12.645c2.172,4.414,3.256,8.719,3.256,12.914c0,3.836-1.355,7.29-4.068,10.363
			c-2.713,3.077-6.098,4.613-10.148,4.613c-3.689,0-6.494-0.923-8.41-2.768c-1.918-1.846-3.998-4.865-6.24-9.063
			c-2.895-6.004-6.367-10.689-10.418-14.054c-4.053-3.364-10.564-5.047-19.535-5.047c-8.322,0-15.031,1.829-20.133,5.481
			c-5.102,3.654-7.65,8.049-7.65,13.186c0,3.185,0.867,5.934,2.604,8.248c1.738,2.316,4.125,4.306,7.164,5.969
			c3.039,1.666,6.113,2.968,9.225,3.907c3.109,0.942,8.248,2.315,15.41,4.124c8.971,2.1,17.094,4.414,24.365,6.945
			c7.271,2.534,13.457,5.609,18.559,9.225c5.1,3.619,9.078,8.195,11.938,13.729C641.696,313.366,643.125,320.149,643.125,328.179z"
			/>
	</g>
</g>
</svg>
