<?xml version="1.0" encoding="utf-8"?>
<!-- Generator: Adobe Illustrator 16.0.0, SVG Export Plug-In . SVG Version: 6.00 Build 0)  -->
<!DOCTYPE svg PUBLIC "-//W3C//DTD SVG 1.1//EN" "http://www.w3.org/Graphics/SVG/1.1/DTD/svg11.dtd">
<svg version="1.1" id="圖層_1" xmlns="http://www.w3.org/2000/svg" xmlns:xlink="http://www.w3.org/1999/xlink" x="0px" y="0px"
	 width="45px" height="45px" viewBox="0 0 45 45" enable-background="new 0 0 45 45" xml:space="preserve">
<g>
	<path d="M41.884,5.688h-2.905h-2.188h-3.938h-2.188h-3.938h-2.187h-3.938h-2.188h-3.938h-2.188H8.353H6.166H3.134
		C1.409,5.688,0,7.016,0,8.741v27.375c0,1.727,1.409,3.196,3.135,3.196h2.781h2.188h3.938h2.188h3.938h2.188h3.937h2.188h3.938
		h2.188h3.937h2.188h3.156c1.727,0,3.116-1.47,3.116-3.196V8.741C45,7.016,43.61,5.688,41.884,5.688z M41.854,7.875h0.03
		c0.518,0,0.928,0.349,0.928,0.866v3.384h-3.813v-4.25H41.854z M2.187,30.688V14.313h40.625v16.375H2.187z M36.813,7.875v4.25
		h-3.938v-4.25H36.813z M30.687,7.875v4.25H26.75v-4.25H30.687z M24.563,7.875v4.25h-3.938v-4.25H24.563z M18.437,7.875v4.25H14.5
		v-4.25H18.437z M12.312,7.875v4.25H8.375v-4.25H12.312z M3.134,7.875h3.053v4.25h-4V8.741C2.187,8.225,2.617,7.875,3.134,7.875z
		 M3.134,37.126c-0.517,0-0.947-0.493-0.947-1.01v-3.24h3.75v4.25H3.134z M8.125,37.126v-4.25h3.938v4.25H8.125z M14.25,37.126
		v-4.25h3.938v4.25H14.25z M20.375,37.126v-4.25h3.938v4.25H20.375z M26.499,37.126v-4.25h3.938v4.25H26.499z M32.625,37.126v-4.25
		h3.937v4.25H32.625z M41.884,37.126h-3.135v-4.25h4.063v3.24C42.812,36.633,42.401,37.126,41.884,37.126z"/>
	<g>
		<path d="M15.834,18.972h-3.968v2.544h3.317c0.307,0,0.537,0.068,0.688,0.207c0.151,0.138,0.227,0.322,0.227,0.552
			c0,0.231-0.077,0.414-0.23,0.55s-0.382,0.204-0.685,0.204h-3.317v3.276c0,0.415-0.094,0.724-0.282,0.925s-0.428,0.302-0.722,0.302
			c-0.298,0-0.542-0.101-0.729-0.305c-0.188-0.203-0.282-0.512-0.282-0.922v-7.652c0-0.289,0.043-0.525,0.129-0.708
			c0.085-0.184,0.22-0.317,0.403-0.4c0.183-0.084,0.417-0.126,0.702-0.126h4.748c0.321,0,0.56,0.072,0.716,0.215
			c0.156,0.142,0.234,0.328,0.234,0.559c0,0.235-0.078,0.424-0.234,0.566C16.394,18.9,16.155,18.972,15.834,18.972z"/>
		<path d="M22.143,23.489h-1.845v2.815c0,0.402-0.095,0.707-0.285,0.915s-0.43,0.312-0.719,0.312c-0.303,0-0.547-0.102-0.732-0.309
			c-0.186-0.205-0.278-0.508-0.278-0.905v-7.665c0-0.443,0.102-0.759,0.306-0.949c0.203-0.189,0.526-0.285,0.969-0.285h2.585
			c0.765,0,1.352,0.06,1.763,0.177c0.407,0.112,0.759,0.301,1.056,0.563c0.296,0.262,0.521,0.583,0.675,0.963
			c0.153,0.379,0.23,0.807,0.23,1.282c0,1.013-0.312,1.78-0.937,2.302C24.306,23.229,23.376,23.489,22.143,23.489z M21.654,18.932
			h-1.356v3.038h1.356c0.475,0,0.873-0.05,1.191-0.149s0.562-0.262,0.729-0.488c0.167-0.226,0.252-0.521,0.252-0.889
			c0-0.438-0.13-0.795-0.387-1.071C23.148,19.078,22.554,18.932,21.654,18.932z"/>
		<path d="M35.104,24.377c0,0.602-0.154,1.143-0.464,1.621c-0.311,0.479-0.764,0.855-1.36,1.127s-1.306,0.406-2.124,0.406
			c-0.98,0-1.791-0.185-2.428-0.555c-0.453-0.268-0.82-0.623-1.103-1.069c-0.283-0.445-0.424-0.879-0.424-1.299
			c0-0.244,0.085-0.453,0.254-0.627c0.17-0.175,0.386-0.262,0.648-0.262c0.212,0,0.393,0.068,0.539,0.203
			c0.147,0.137,0.272,0.337,0.377,0.604c0.127,0.317,0.263,0.582,0.41,0.794c0.147,0.213,0.354,0.389,0.62,0.526
			c0.268,0.138,0.617,0.206,1.052,0.206c0.597,0,1.081-0.139,1.455-0.416c0.373-0.279,0.559-0.626,0.559-1.042
			c0-0.33-0.1-0.598-0.301-0.804c-0.202-0.205-0.462-0.363-0.78-0.471c-0.319-0.109-0.745-0.225-1.279-0.347
			c-0.714-0.167-1.313-0.363-1.794-0.586c-0.481-0.225-0.862-0.53-1.146-0.917c-0.282-0.386-0.424-0.866-0.424-1.441
			c0-0.547,0.15-1.033,0.448-1.457c0.299-0.426,0.73-0.752,1.296-0.98c0.564-0.229,1.229-0.343,1.994-0.343
			c0.61,0,1.138,0.075,1.583,0.228c0.446,0.15,0.815,0.352,1.109,0.604c0.294,0.25,0.51,0.514,0.645,0.79
			c0.136,0.276,0.203,0.545,0.203,0.808c0,0.239-0.084,0.455-0.254,0.646c-0.17,0.193-0.381,0.289-0.634,0.289
			c-0.231,0-0.406-0.058-0.525-0.173c-0.12-0.116-0.251-0.304-0.391-0.566c-0.182-0.376-0.397-0.669-0.651-0.878
			c-0.253-0.211-0.66-0.316-1.221-0.316c-0.521,0-0.939,0.114-1.259,0.343c-0.318,0.229-0.478,0.503-0.478,0.824
			c0,0.199,0.055,0.37,0.162,0.516c0.109,0.145,0.258,0.269,0.448,0.373c0.189,0.104,0.382,0.185,0.576,0.244
			c0.194,0.059,0.517,0.145,0.964,0.258c0.56,0.132,1.067,0.276,1.522,0.434c0.454,0.159,0.841,0.352,1.16,0.577
			c0.318,0.226,0.567,0.512,0.745,0.858C35.016,23.452,35.104,23.875,35.104,24.377z"/>
	</g>
</g>
</svg>
