<?xml version="1.0" encoding="utf-8"?>
<!-- Generator: Adobe Illustrator 16.0.0, SVG Export Plug-In . SVG Version: 6.00 Build 0)  -->
<!DOCTYPE svg PUBLIC "-//W3C//DTD SVG 1.1//EN" "http://www.w3.org/Graphics/SVG/1.1/DTD/svg11.dtd">
<svg version="1.1" id="Layer_1" xmlns="http://www.w3.org/2000/svg" xmlns:xlink="http://www.w3.org/1999/xlink" x="0px" y="0px"
	 width="1920px" height="1080px" viewBox="0 0 1920 1080" enable-background="new 0 0 1920 1080" xml:space="preserve">
<path d="M1246.022,570.078c-2.145-8.003-10.371-12.746-18.371-10.607l-121.04,32.433l-117.344-67.749l115.979-66.959l120.672,32.335
	c1.301,0.348,2.606,0.515,3.893,0.515c6.622,0,12.684-4.42,14.479-11.121c2.144-8.003-2.604-16.228-10.607-18.372l-91.695-24.569
	l84.454-48.76c7.175-4.142,9.633-13.315,5.49-20.49c-4.142-7.176-13.317-9.634-20.49-5.49l-84.918,49.027l24.767-92.427
	c2.144-8.002-2.604-16.228-10.606-18.372c-7.998-2.136-16.227,2.604-18.372,10.606l-32.78,121.405L975.5,497.174V364.945
	l88.589-88.339c5.858-5.857,5.983-15.355,0.125-21.213c-5.163-5.163-13.089-5.769-18.923-1.83c-1.428,0.706-2.99,1.642-4.179,2.83
	L975.5,321.787V225c0-8.284-6.466-15-14.75-15c-2.791,0-5.519,0.775-7.756,2.103c-5.492,2.228-9.494,7.606-9.494,13.897v95.055
	l-65.411-65.661c-5.163-5.163-13.026-5.769-18.86-1.83c-1.428,0.706-2.709,1.642-3.897,2.83c-5.858,5.857-6.077,15.355-0.219,21.213
	l88.388,88.606V498.02l-113.897-65.903l-32.307-121.038c-2.144-8.003-10.312-12.746-18.309-10.607
	c-8.002,2.145-12.72,10.369-10.576,18.371l24.684,92.061l-84.678-48.893c-7.175-4.144-16.345-1.684-20.486,5.49
	c-4.143,7.175-1.683,16.349,5.492,20.49l84.688,48.894l-92.061,24.667c-8.002,2.145-12.75,10.369-10.607,18.371
	c1.796,6.702,7.856,11.122,14.479,11.122c1.285,0,2.592-0.167,3.892-0.515l121.04-32.433l114.415,66.058l-115.782,66.848
	l-121.405-32.531c-7.989-2.135-16.227,2.604-18.371,10.607c-2.144,8.002,2.605,16.227,10.607,18.371l92.427,24.766l-81.454,47.027
	c-7.175,4.142-9.633,13.315-5.49,20.49c2.778,4.813,7.82,7.503,13.004,7.503c2.545,0,5.124-0.648,7.486-2.013l80.989-46.76
	l-24.569,91.696c-2.144,8.002,2.605,16.227,10.607,18.371c1.3,0.349,2.605,0.515,3.892,0.515c6.622-0.001,12.684-4.42,14.479-11.122
	l32.083-120.673L943.5,550.29v135.497l-88.356,88.606c-5.858,5.857-5.733,15.355,0.125,21.213c5.163,5.163,13.214,5.769,19.048,1.83
	c1.428-0.706,2.553-1.642,3.741-2.83l65.442-65.661V822c0,8.284,6.966,15,15.25,15c2.791,0,5.269-0.775,7.506-2.104
	c5.492-2.227,9.244-7.605,9.244-13.896v-90.787l65.644,65.394c2.929,2.929,6.893,4.394,10.731,4.394
	c2.929,0,5.916-0.859,8.441-2.563c1.428-0.706,2.803-1.642,3.991-2.83c5.858-5.857,5.624-15.355-0.234-21.213L975.5,685.055v-133.92
	l115.861,66.748l32.558,121.04c1.796,6.701,7.919,11.121,14.542,11.121c1.285,0,2.623-0.167,3.924-0.515
	c8.002-2.145,12.766-10.37,10.622-18.372l-24.661-92.061l81.227,46.894c2.362,1.364,4.943,2.013,7.488,2.013
	c5.184,0,10.227-2.691,13.005-7.503c4.143-7.175,1.685-16.349-5.489-20.49l-81.223-46.894l92.062-24.667
	C1243.417,586.305,1248.166,578.08,1246.022,570.078z"/>
</svg>
