<?xml version="1.0" encoding="utf-8"?>
<!-- Generator: Adobe Illustrator 16.0.0, SVG Export Plug-In . SVG Version: 6.00 Build 0)  -->
<!DOCTYPE svg PUBLIC "-//W3C//DTD SVG 1.1//EN" "http://www.w3.org/Graphics/SVG/1.1/DTD/svg11.dtd">
<svg version="1.1" id="圖層_1" xmlns="http://www.w3.org/2000/svg" xmlns:xlink="http://www.w3.org/1999/xlink" x="0px" y="0px"
	 width="45px" height="45px" viewBox="0 0 45 45" enable-background="new 0 0 45 45" xml:space="preserve">
<path d="M40.755,25.537c-0.137-0.511-0.661-0.813-1.172-0.677l-7.722,2.069l-7.486-4.322l7.398-4.271l7.699,2.063
	c0.083,0.022,0.166,0.033,0.248,0.033c0.423,0,0.81-0.282,0.924-0.71c0.137-0.511-0.166-1.035-0.677-1.172l-5.85-1.567l5.388-3.11
	c0.458-0.265,0.614-0.85,0.351-1.308c-0.265-0.458-0.85-0.614-1.308-0.351l-5.418,3.128l1.581-5.896
	c0.137-0.511-0.167-1.035-0.677-1.172S33,8.439,32.863,8.95l-2.092,7.745l-7.274,4.19V12.45l5.651-5.636
	c0.373-0.373,0.382-0.979,0.008-1.354c-0.329-0.329-0.835-0.367-1.207-0.116c-0.092,0.045-0.191,0.104-0.267,0.181l-4.186,4.172
	V3.522c0-0.528-0.413-0.957-0.941-0.957c-0.178,0-0.352,0.05-0.495,0.134c-0.35,0.143-0.605,0.485-0.605,0.887V9.65l-4.173-4.189
	c-0.329-0.329-0.831-0.367-1.203-0.116c-0.091,0.045-0.173,0.104-0.249,0.181c-0.374,0.373-0.388,0.979-0.014,1.354l5.639,5.652
	v8.408l-7.266-4.204l-2.061-7.722c-0.137-0.511-0.658-0.813-1.168-0.677c-0.51,0.137-0.811,0.662-0.674,1.172l1.575,5.873
	l-5.402-3.119C6,11.999,5.416,12.155,5.151,12.613c-0.265,0.458-0.107,1.043,0.35,1.308l5.403,3.119l-5.873,1.573
	c-0.511,0.137-0.813,0.661-0.677,1.172c0.115,0.428,0.501,0.71,0.924,0.71c0.082,0,0.165-0.011,0.248-0.033l7.722-2.069l7.299,4.215
	l-7.386,4.265l-7.745-2.075c-0.51-0.137-1.035,0.166-1.172,0.677c-0.137,0.51,0.166,1.035,0.677,1.172l5.896,1.58l-5.197,3
	c-0.458,0.264-0.614,0.849-0.35,1.307c0.177,0.308,0.499,0.479,0.83,0.479c0.163,0,0.327-0.041,0.478-0.128l5.167-2.983l-1.567,5.85
	c-0.137,0.511,0.166,1.035,0.676,1.173c0.083,0.021,0.167,0.032,0.249,0.032c0.422,0,0.809-0.282,0.924-0.709l2.046-7.699
	l7.383-4.271v8.645l-5.637,5.652c-0.374,0.374-0.366,0.979,0.008,1.354c0.329,0.329,0.843,0.368,1.215,0.116
	c0.091-0.045,0.163-0.104,0.238-0.18l4.175-4.189v5.937c0,0.528,0.444,0.957,0.973,0.957c0.178,0,0.336-0.05,0.479-0.134
	c0.351-0.143,0.59-0.485,0.59-0.887v-5.792l4.188,4.172c0.187,0.187,0.44,0.28,0.685,0.28c0.188,0,0.377-0.055,0.539-0.163
	c0.091-0.046,0.178-0.105,0.254-0.181c0.374-0.374,0.359-0.979-0.015-1.354l-5.65-5.636v-8.544l7.392,4.259l2.076,7.722
	c0.115,0.428,0.506,0.709,0.928,0.709c0.082,0,0.168-0.01,0.251-0.032c0.511-0.137,0.814-0.662,0.678-1.172l-1.573-5.873
	l5.182,2.991c0.15,0.087,0.315,0.128,0.478,0.128c0.331,0,0.652-0.171,0.83-0.479c0.264-0.457,0.107-1.043-0.351-1.307l-5.182-2.992
	l5.873-1.573C40.589,26.572,40.892,26.048,40.755,25.537z"/>
</svg>
