<?xml version="1.0" encoding="utf-8"?>
<!-- Generator: Adobe Illustrator 16.0.0, SVG Export Plug-In . SVG Version: 6.00 Build 0)  -->
<!DOCTYPE svg PUBLIC "-//W3C//DTD SVG 1.1//EN" "http://www.w3.org/Graphics/SVG/1.1/DTD/svg11.dtd">
<svg version="1.1" id="圖層_1" xmlns="http://www.w3.org/2000/svg" xmlns:xlink="http://www.w3.org/1999/xlink" x="0px" y="0px"
	 width="140px" height="48px" viewBox="0 0 140 48" enable-background="new 0 0 140 48" xml:space="preserve">
<g>
	<path fill="#FF6B00" d="M89.719,27.644l-1.32-0.762l-0.271-0.156l-0.139,0.281c-0.186,0.38-0.578,0.626-0.998,0.626
		c-0.57,0-1.055-0.442-1.109-1.011l-0.004-4.001h2.754v-1.625h-2.754l-0.004-2.45l-2.109-0.024l0.004,2.474h-1.414v1.625h1.414
		l0.004,4.045v0.004v0.005l0.002,0.051l0.002,0.005v0.005c0.113,1.685,1.525,3.006,3.215,3.006c1.188,0,2.275-0.652,2.84-1.704
		l0.133-0.251L89.719,27.644z"/>
	<path fill="#585757" d="M113.557,45.722l-1.32-0.762l-0.271-0.156l-0.137,0.28c-0.188,0.38-0.58,0.627-1,0.627
		c-0.57,0-1.055-0.443-1.107-1.012l-0.004-4.001h2.752v-1.625h-2.754l-0.004-2.45l-2.107-0.023l0.002,2.474h-1.414v1.625h1.416
		l0.004,4.045v0.005v0.004v0.052l0.002,0.004v0.005c0.113,1.686,1.525,3.006,3.215,3.006c1.188,0,2.273-0.652,2.84-1.704
		l0.135-0.251L113.557,45.722z"/>
	<path fill="#585757" d="M93.311,27.162c0.414,0.389,0.922,0.584,1.523,0.584c0.188,0,0.387-0.021,0.6-0.06
		c0.813-0.156,1.443-0.527,1.891-1.108l1.457,1.152c-0.689,1.149-1.807,1.807-3.348,1.974c-0.219,0.026-0.43,0.037-0.637,0.037
		c-1.268,0-2.33-0.429-3.188-1.286c-0.852-0.853-1.277-1.883-1.277-3.091c0-1.201,0.426-2.229,1.277-3.082
		c0.854-0.857,1.883-1.286,3.092-1.286c0.764,0,1.48,0.192,2.15,0.576c1.045,0.592,1.701,1.396,1.967,2.41L93.311,27.162z
		 M96.016,23.518c-0.373-0.281-0.783-0.439-1.227-0.474c-0.055-0.005-0.109-0.007-0.162-0.007c-0.355,0-0.693,0.088-1.014,0.266
		c-0.758,0.413-1.139,1.077-1.139,1.989c0,0.088,0.002,0.177,0.008,0.266L96.016,23.518z"/>
	<path fill="#585757" d="M106.686,26.533l1.803,1.08c-0.395,0.659-0.928,1.179-1.598,1.56c-0.67,0.379-1.387,0.569-2.15,0.569
		c-1.207,0-2.238-0.427-3.09-1.279c-0.854-0.853-1.279-1.883-1.279-3.091c0-1.201,0.426-2.23,1.279-3.083
		c0.852-0.856,1.883-1.285,3.09-1.285c0.764,0,1.48,0.192,2.15,0.576c0.67,0.379,1.203,0.9,1.598,1.561l-1.803,1.079
		c-0.1-0.183-0.223-0.354-0.371-0.517c-0.434-0.463-0.959-0.695-1.574-0.695s-1.141,0.232-1.576,0.695
		c-0.434,0.463-0.65,1.021-0.65,1.67c0,0.655,0.217,1.216,0.65,1.68c0.436,0.457,0.961,0.687,1.576,0.687s1.141-0.229,1.574-0.687
		C106.463,26.888,106.586,26.716,106.686,26.533"/>
	<path fill="#585757" d="M112.406,18.777v3.202c0.504-0.65,1.244-0.976,2.227-0.976c1.207,0,2.24,0.426,3.098,1.279
		c0.852,0.857,1.277,1.888,1.277,3.089v4.126h-2.143v-4.126c0-0.611-0.219-1.133-0.65-1.567c-0.439-0.438-0.967-0.657-1.582-0.657
		c-0.613,0-1.139,0.22-1.576,0.657c-0.434,0.43-0.65,0.951-0.65,1.567v4.126h-2.145V18.777H112.406z"/>
	<path fill="#585757" d="M83.098,39.173c1.207,0,2.236,0.428,3.09,1.284c0.852,0.854,1.279,1.883,1.279,3.084
		c0,1.208-0.428,2.237-1.279,3.091c-0.854,0.853-1.883,1.279-3.09,1.279s-2.238-0.427-3.092-1.279
		c-0.852-0.854-1.277-1.883-1.277-3.091c0-1.201,0.426-2.229,1.277-3.084C80.859,39.601,81.891,39.173,83.098,39.173 M81.521,41.871
		c-0.434,0.462-0.648,1.021-0.648,1.67c0,0.655,0.215,1.216,0.648,1.679c0.436,0.458,0.959,0.687,1.576,0.687
		c0.615,0,1.141-0.229,1.574-0.687c0.434-0.463,0.65-1.023,0.65-1.679c0-0.649-0.217-1.208-0.65-1.67
		c-0.434-0.464-0.959-0.695-1.574-0.695C82.48,41.176,81.957,41.407,81.521,41.871"/>
	<polygon fill="#585757" points="90.012,39.424 91.816,43.217 93.799,39.424 96.209,39.424 91.721,48 87.646,39.424 	"/>
	<path fill="#585757" d="M116.676,36.926c0.219,0.216,0.326,0.478,0.326,0.782c0,0.307-0.107,0.567-0.326,0.784
		c-0.217,0.217-0.477,0.325-0.783,0.325c-0.305,0-0.566-0.108-0.783-0.325s-0.326-0.478-0.326-0.784
		c0-0.305,0.109-0.566,0.326-0.782c0.217-0.218,0.479-0.326,0.783-0.326C116.199,36.6,116.459,36.708,116.676,36.926
		 M116.963,47.666h-2.143v-8.243h2.143V47.666z"/>
	<path fill="#FF6B00" d="M53.443,47.341c-0.217-0.217-0.325-0.479-0.325-0.783c0-0.307,0.108-0.567,0.325-0.784
		s0.479-0.324,0.783-0.324c0.307,0,0.567,0.107,0.785,0.324c0.216,0.217,0.325,0.478,0.325,0.784c0,0.305-0.108,0.566-0.325,0.783
		c-0.218,0.217-0.479,0.325-0.785,0.325C53.922,47.666,53.66,47.558,53.443,47.341 M53.155,36.974h2.144v7.429h-2.144V36.974z"/>
	<path fill="#585757" d="M123.146,39.173c1.207,0,2.236,0.428,3.088,1.284c0.854,0.854,1.279,1.883,1.279,3.084
		c0,1.208-0.426,2.237-1.279,3.091c-0.852,0.853-1.881,1.279-3.088,1.279c-1.209,0-2.238-0.427-3.092-1.279
		c-0.852-0.854-1.279-1.883-1.279-3.091c0-1.201,0.428-2.229,1.279-3.084C120.908,39.601,121.938,39.173,123.146,39.173
		 M121.57,41.871c-0.434,0.462-0.65,1.021-0.65,1.67c0,0.655,0.217,1.216,0.65,1.679c0.434,0.458,0.959,0.687,1.576,0.687
		c0.615,0,1.141-0.229,1.574-0.687c0.434-0.463,0.65-1.023,0.65-1.679c0-0.649-0.217-1.208-0.65-1.67
		c-0.434-0.464-0.959-0.695-1.574-0.695C122.529,41.176,122.004,41.407,121.57,41.871"/>
	<path fill="#FF6B00" d="M60.288,23.961h-5.025v-1.442c0-0.527,0.18-0.975,0.54-1.345s0.769-0.555,1.227-0.555
		c0.129,0,3.137,0.018,3.258,0.048v-2.115c-0.124-0.011-3.131-0.018-3.258-0.018c-1.099,0-2.031,0.411-2.795,1.234
		c-0.743,0.808-1.116,1.806-1.116,2.994h0.007v6.735h2.129c0-0.789,0.002-1.999,0.007-3.63h5.025V23.961z"/>
	<path fill="#585757" d="M69.623,28.471c0,0,1.15-1.107,1.15-3.22v-3.996h-2.144v4.125c0,0.612-0.217,1.134-0.651,1.567
		c-0.434,0.438-0.959,0.658-1.574,0.658c-0.616,0-1.141-0.22-1.574-0.658c-0.435-0.434-0.651-0.959-0.651-1.574v-4.118h-2.144v4.118
		c0,1.208,0.427,2.237,1.278,3.09c0.854,0.858,1.884,1.287,3.091,1.287C67.983,29.75,69.12,29.12,69.623,28.471z"/>
	<path fill="#585757" d="M73.994,22.282c0,0-1.152,1.107-1.152,3.22v3.996h2.146v-4.125c0-0.612,0.215-1.135,0.65-1.567
		c0.434-0.438,0.959-0.658,1.574-0.658c0.617,0,1.141,0.22,1.574,0.658c0.436,0.433,0.652,0.959,0.652,1.574v4.118h2.143V25.38
		c0-1.207-0.426-2.238-1.279-3.09c-0.854-0.858-1.883-1.287-3.09-1.287C75.635,21.003,74.498,21.632,73.994,22.282z"/>
	<path fill="#585757" d="M58.558,40.451c0,0-1.151,1.108-1.151,3.22v3.996h2.144v-4.125c0-0.612,0.217-1.135,0.65-1.567
		c0.434-0.438,0.958-0.658,1.575-0.658s1.142,0.22,1.575,0.658c0.434,0.433,0.65,0.959,0.65,1.574v4.118h2.144v-4.118
		c0-1.207-0.427-2.237-1.278-3.09c-0.854-0.858-1.884-1.286-3.091-1.286C60.197,39.173,59.061,39.802,58.558,40.451z"/>
	<path fill="#585757" d="M69.366,40.451c0,0-1.15,1.108-1.15,3.22v3.996h2.144v-4.125c0-0.612,0.217-1.135,0.651-1.567
		c0.434-0.438,0.959-0.658,1.576-0.658c0.615,0,1.141,0.22,1.574,0.658c0.434,0.433,0.65,0.959,0.65,1.574v4.118h2.143v-4.118
		c0-1.207-0.426-2.237-1.277-3.09c-0.854-0.858-1.885-1.286-3.09-1.286C71.006,39.173,69.869,39.802,69.366,40.451z"/>
	<path fill="#585757" d="M130.439,40.451c0,0-1.15,1.108-1.15,3.22v3.996h2.143v-4.125c0-0.612,0.217-1.135,0.652-1.567
		c0.432-0.438,0.959-0.658,1.574-0.658c0.617,0,1.143,0.22,1.574,0.658c0.434,0.433,0.652,0.959,0.652,1.574v4.118h2.141v-4.118
		c0-1.207-0.424-2.237-1.277-3.09c-0.852-0.858-1.883-1.286-3.09-1.286C132.08,39.173,130.943,39.802,130.439,40.451z"/>
	<path fill="#585757" d="M105.127,43.541c0-0.004,0-0.007,0-0.011l-0.01-0.227c-0.053-1.1-0.475-2.049-1.27-2.847
		c-0.852-0.856-1.881-1.284-3.088-1.284c-1.209,0-2.238,0.428-3.092,1.284c-0.852,0.854-1.279,1.883-1.279,3.084
		c0,1.208,0.428,2.237,1.279,3.091c0.854,0.853,1.883,1.279,3.092,1.279c0.824,0,1.564-0.205,2.223-0.604v0.604h2.145v-4.358
		C105.127,43.549,105.127,43.545,105.127,43.541z M102.332,45.22c-0.432,0.458-0.957,0.687-1.572,0.687
		c-0.617,0-1.143-0.229-1.576-0.687c-0.434-0.463-0.65-1.023-0.65-1.679c0-0.649,0.217-1.208,0.65-1.67
		c0.434-0.464,0.959-0.695,1.576-0.695c0.615,0,1.141,0.231,1.572,0.695c0.436,0.462,0.65,1.021,0.65,1.67
		C102.982,44.196,102.768,44.757,102.332,45.22z"/>
	<path fill="#FF6B00" d="M42.018,4.904c2.468,0,4.476,2.008,4.476,4.477c0,2.469-2.008,4.477-4.476,4.477
		c-2.469,0-4.477-2.008-4.477-4.477C37.541,6.913,39.549,4.904,42.018,4.904 M42.018,0.017c-5.172,0-9.364,4.192-9.364,9.364
		s4.192,9.365,9.364,9.365c5.171,0,9.364-4.193,9.364-9.365S47.189,0.017,42.018,0.017"/>
	<path fill="#585757" d="M42.018,4.904c2.468,0,4.476,2.008,4.476,4.477c0,2.469-2.008,4.477-4.476,4.477
		c-2.469,0-4.477-2.008-4.477-4.477C37.541,6.913,39.549,4.904,42.018,4.904"/>
	<path fill="#585757" d="M42.018,18.746c-1.31,0-2.556-0.27-3.688-0.755v21.89l-3.962-2.288l-0.952-0.55l-0.486,0.986
		c-0.658,1.336-2.035,2.2-3.508,2.2c-2.005,0-3.709-1.556-3.897-3.549l-0.009-12.491h6.758c1.6,0,2.908-1.309,2.908-2.909
		c0-1.599-1.309-2.908-2.908-2.908h-6.762l0-18.349L18.089,0l0.013,18.373H7.43l0.005-7.442c0-2.773,1.88-3.762,3.641-3.762
		c0.761,0,5.023-0.014,5.023-0.014V0.024h-5.377c-3.087,0-5.765,1.039-7.73,3.063c-1.816,1.872-2.754,4.478-2.958,7.492
		l-0.002,0.034v0.035L0,44.5c0.004,1.72,1.63,3.113,3.634,3.113v0.001l2.746,0.001l1.028,0.001l0.001-1.029l0.017-22.397h10.681
		l0.009,12.641v0.018l0,0.018l0.006,0.179l0,0.017l0.001,0.017C18.524,43,23.487,47.64,29.423,47.64
		c3.512,0,6.779-1.629,8.907-4.353v2.546v1.781h1.029h2.719v-0.001c1.93,0,3.508-1.292,3.626-2.923v-26.7
		C44.573,18.476,43.327,18.746,42.018,18.746z"/>
</g>
</svg>
