<?xml version="1.0" encoding="utf-8"?>
<!-- Generator: Adobe Illustrator 16.0.0, SVG Export Plug-In . SVG Version: 6.00 Build 0)  -->
<!DOCTYPE svg PUBLIC "-//W3C//DTD SVG 1.1//EN" "http://www.w3.org/Graphics/SVG/1.1/DTD/svg11.dtd">
<svg version="1.1" id="Capa_1" xmlns="http://www.w3.org/2000/svg" xmlns:xlink="http://www.w3.org/1999/xlink" x="0px" y="0px"
	 width="841.89px" height="595.281px" viewBox="0 0 841.89 595.281" enable-background="new 0 0 841.89 595.281"
	 xml:space="preserve">
<g>
	<path fill="#FF6B00" d="M550.797,341.049l-7.048-4.068l-1.444-0.836l-0.742,1.499c-0.996,2.03-3.092,3.348-5.33,3.348
		c-3.047,0-5.634-2.366-5.92-5.4l-0.021-21.361h14.695v-8.676h-14.704l-0.013-13.081l-11.26-0.127l0.012,13.208h-7.542v8.676h7.551
		l0.02,21.595v0.025v0.021l0.012,0.273l0.002,0.028v0.023c0.608,8.996,8.147,16.052,17.169,16.052
		c6.337,0,12.145-3.485,15.157-9.102l0.719-1.339L550.797,341.049z"/>
	<path fill="#585757" d="M678.08,437.57l-7.048-4.066l-1.453-0.834l-0.731,1.496c-0.999,2.029-3.097,3.347-5.33,3.347
		c-3.053,0-5.638-2.367-5.924-5.398l-0.021-21.362h14.696v-8.68h-14.704l-0.014-13.079l-11.261-0.126l0.013,13.205h-7.551v8.68
		h7.562l0.019,21.596v0.024v0.022l0.005,0.275l0.005,0.021v0.027c0.611,9,8.152,16.05,17.175,16.05
		c6.334,0,12.134-3.485,15.154-9.101l0.719-1.339L678.08,437.57z"/>
	<path fill="#585757" d="M569.983,338.474c2.207,2.078,4.913,3.119,8.125,3.119c1.002,0,2.069-0.107,3.202-0.314
		c4.339-0.839,7.708-2.819,10.103-5.922l7.779,6.153c-3.689,6.137-9.649,9.649-17.882,10.539c-1.159,0.138-2.292,0.199-3.396,0.199
		c-6.768,0-12.437-2.291-17.018-6.869c-4.551-4.552-6.824-10.054-6.824-16.5c0-6.416,2.273-11.904,6.824-16.458
		c4.558-4.578,10.051-6.867,16.503-6.867c4.08,0,7.905,1.026,11.487,3.077c5.577,3.16,9.077,7.451,10.501,12.869L569.983,338.474z
		 M584.427,319.015c-2.001-1.497-4.185-2.341-6.555-2.527c-0.291-0.027-0.58-0.037-0.868-0.037c-1.896,0-3.697,0.473-5.409,1.419
		c-4.046,2.206-6.075,5.751-6.075,10.619c0,0.469,0.011,0.946,0.037,1.418L584.427,319.015z"/>
	<path fill="#585757" d="M641.39,335.117l9.625,5.765c-2.103,3.524-4.948,6.298-8.526,8.33c-3.574,2.023-7.405,3.04-11.484,3.04
		c-6.447,0-11.948-2.278-16.5-6.83c-4.555-4.556-6.828-10.057-6.828-16.503c0-6.417,2.273-11.907,6.828-16.462
		c4.552-4.575,10.053-6.863,16.5-6.863c4.079,0,7.91,1.027,11.484,3.074c3.578,2.027,6.424,4.807,8.526,8.333l-9.625,5.759
		c-0.532-0.974-1.188-1.89-1.978-2.761c-2.32-2.473-5.12-3.711-8.408-3.711s-6.091,1.238-8.409,3.711
		c-2.315,2.472-3.474,5.451-3.474,8.92c0,3.497,1.158,6.491,3.474,8.965c2.318,2.442,5.121,3.67,8.409,3.67s6.088-1.228,8.408-3.67
		C640.202,337.012,640.858,336.095,641.39,335.117"/>
	<path fill="#585757" d="M671.939,293.708v17.095c2.688-3.473,6.644-5.209,11.883-5.209c6.444,0,11.961,2.275,16.539,6.831
		c4.555,4.576,6.828,10.077,6.828,16.494v22.029h-11.445v-22.029c0-3.263-1.161-6.051-3.472-8.37
		c-2.347-2.336-5.162-3.509-8.45-3.509c-3.265,0-6.07,1.173-8.412,3.509c-2.313,2.294-3.471,5.081-3.471,8.37v22.029h-11.448
		v-57.241H671.939z"/>
	<path fill="#585757" d="M515.446,402.604c6.441,0,11.945,2.286,16.497,6.86c4.552,4.562,6.833,10.049,6.833,16.468
		c0,6.447-2.281,11.945-6.833,16.5s-10.056,6.83-16.497,6.83c-6.446,0-11.949-2.275-16.503-6.83
		c-4.552-4.555-6.823-10.053-6.823-16.5c0-6.419,2.271-11.906,6.823-16.468C503.497,404.89,509,402.604,515.446,402.604
		 M507.036,417.013c-2.318,2.469-3.469,5.447-3.469,8.919c0,3.496,1.15,6.488,3.469,8.962c2.318,2.446,5.119,3.667,8.41,3.667
		c3.288,0,6.091-1.221,8.403-3.667c2.323-2.474,3.477-5.466,3.477-8.962c0-3.472-1.153-6.45-3.477-8.919
		c-2.313-2.478-5.115-3.715-8.403-3.715C512.155,413.298,509.354,414.535,507.036,417.013"/>
	<polygon fill="#585757" points="552.368,403.946 562.004,424.195 572.581,403.946 585.45,403.946 561.485,449.736 539.736,403.946 
			"/>
	<path fill="#585757" d="M694.737,390.605c1.161,1.153,1.738,2.551,1.738,4.18c0,1.635-0.577,3.026-1.738,4.188
		c-1.156,1.156-2.551,1.735-4.183,1.735c-1.631,0-3.03-0.579-4.185-1.735c-1.153-1.161-1.735-2.553-1.735-4.188
		c0-1.629,0.582-3.026,1.735-4.18c1.154-1.163,2.554-1.741,4.185-1.741C692.186,388.864,693.581,389.442,694.737,390.605
		 M696.271,447.956h-11.442v-44.014h11.442V447.956z"/>
	<path fill="#FF6B00" d="M357.113,446.219c-1.158-1.157-1.736-2.556-1.736-4.185c0-1.635,0.578-3.028,1.736-4.186
		c1.158-1.159,2.556-1.733,4.182-1.733c1.638,0,3.027,0.574,4.19,1.733c1.157,1.157,1.736,2.551,1.736,4.186
		c0,1.629-0.579,3.027-1.736,4.185c-1.163,1.158-2.553,1.737-4.19,1.737C359.669,447.956,358.271,447.377,357.113,446.219
		 M355.576,390.865h11.447v39.664h-11.447V390.865z"/>
	<path fill="#585757" d="M729.282,402.604c6.444,0,11.94,2.286,16.489,6.86c4.555,4.562,6.836,10.049,6.836,16.468
		c0,6.447-2.281,11.945-6.836,16.5c-4.549,4.555-10.045,6.83-16.489,6.83c-6.45,0-11.951-2.275-16.503-6.83
		c-4.555-4.555-6.83-10.053-6.83-16.5c0-6.419,2.275-11.906,6.83-16.468C717.331,404.89,722.832,402.604,729.282,402.604
		 M720.87,417.013c-2.317,2.469-3.477,5.447-3.477,8.919c0,3.496,1.159,6.488,3.477,8.962c2.315,2.446,5.118,3.667,8.412,3.667
		c3.285,0,6.088-1.221,8.403-3.667c2.317-2.474,3.474-5.466,3.474-8.962c0-3.472-1.156-6.45-3.474-8.919
		c-2.315-2.478-5.118-3.715-8.403-3.715C725.988,413.298,723.185,414.535,720.87,417.013"/>
	<path fill="#FF6B00" d="M393.659,321.385h-26.833v-7.703c0-2.813,0.961-5.206,2.883-7.182c1.921-1.979,4.104-2.963,6.552-2.963
		c0.691,0,16.751,0.097,17.397,0.259v-11.292c-0.659-0.057-16.717-0.094-17.397-0.094c-5.868,0-10.846,2.194-14.922,6.59
		c-3.97,4.315-5.959,9.645-5.959,15.987h0.04v35.961h11.368c0-4.214,0.013-10.672,0.038-19.38h26.833V321.385z"/>
	<path fill="#585757" d="M443.498,345.46c0,0,6.147-5.911,6.147-17.189v-21.335h-11.448v22.021c0,3.27-1.159,6.059-3.476,8.37
		c-2.316,2.345-5.124,3.516-8.406,3.516c-3.291,0-6.093-1.171-8.409-3.516c-2.318-2.312-3.475-5.118-3.475-8.405v-21.986h-11.444
		v21.986c0,6.449,2.275,11.947,6.822,16.5c4.559,4.583,10.059,6.871,16.506,6.871C434.743,352.293,440.815,348.932,443.498,345.46z"
		/>
	<path fill="#585757" d="M466.842,312.421c0,0-6.149,5.912-6.149,17.192v21.335h11.453v-22.025c0-3.267,1.153-6.057,3.474-8.369
		c2.313-2.341,5.12-3.514,8.406-3.514c3.293,0,6.092,1.173,8.411,3.514c2.317,2.313,3.474,5.118,3.474,8.405v21.989h11.441v-21.989
		c0-6.446-2.272-11.95-6.826-16.499c-4.554-4.582-10.054-6.871-16.5-6.871C475.598,305.589,469.528,308.951,466.842,312.421z"/>
	<path fill="#585757" d="M384.419,409.432c0,0-6.146,5.916-6.146,17.19v21.339h11.449v-22.024c0-3.27,1.158-6.06,3.475-8.373
		c2.314-2.342,5.118-3.514,8.406-3.514c3.292,0,6.096,1.172,8.409,3.514c2.318,2.313,3.475,5.121,3.475,8.408v21.989h11.446v-21.989
		c0-6.447-2.277-11.948-6.827-16.5c-4.556-4.582-10.056-6.868-16.502-6.868C393.175,402.604,387.105,405.963,384.419,409.432z"/>
	<path fill="#585757" d="M442.128,409.432c0,0-6.145,5.916-6.145,17.19v21.339h11.448v-22.024c0-3.27,1.158-6.06,3.477-8.373
		c2.312-2.342,5.122-3.514,8.41-3.514c3.287,0,6.093,1.172,8.405,3.514c2.317,2.313,3.474,5.121,3.474,8.408v21.989h11.446v-21.989
		c0-6.447-2.279-11.948-6.826-16.5c-4.553-4.582-10.056-6.868-16.499-6.868C450.887,402.604,444.816,405.963,442.128,409.432z"/>
	<path fill="#585757" d="M768.223,409.432c0,0-6.144,5.916-6.144,17.19v21.339h11.445v-22.024c0-3.27,1.156-6.06,3.479-8.373
		c2.31-2.342,5.118-3.514,8.406-3.514c3.293,0,6.096,1.172,8.408,3.514c2.313,2.313,3.477,5.121,3.477,8.408v21.989h11.438v-21.989
		c0-6.447-2.271-11.948-6.82-16.5c-4.554-4.582-10.061-6.868-16.502-6.868C776.981,402.604,770.911,405.963,768.223,409.432z"/>
	<path fill="#585757" d="M633.073,425.932c0-0.021-0.003-0.039-0.003-0.061l-0.055-1.209c-0.28-5.87-2.527-10.941-6.772-15.198
		c-4.552-4.574-10.05-6.86-16.495-6.86c-6.45,0-11.948,2.286-16.505,6.86c-4.547,4.562-6.825,10.049-6.825,16.468
		c0,6.447,2.278,11.945,6.825,16.5c4.557,4.555,10.055,6.83,16.505,6.83c4.405,0,8.356-1.092,11.875-3.22v3.22h11.447v-23.272
		C633.07,425.972,633.073,425.951,633.073,425.932z M618.151,434.894c-2.313,2.446-5.112,3.667-8.403,3.667
		c-3.293,0-6.096-1.221-8.414-3.667c-2.315-2.474-3.466-5.466-3.466-8.962c0-3.472,1.15-6.45,3.466-8.919
		c2.318-2.478,5.121-3.715,8.414-3.715c3.291,0,6.091,1.237,8.403,3.715c2.318,2.469,3.472,5.447,3.472,8.919
		C621.623,429.428,620.469,432.42,618.151,434.894z"/>
	<path fill="#FF6B00" d="M296.105,219.633c13.179,0,23.9,10.724,23.9,23.901c0,13.183-10.722,23.901-23.9,23.901
		c-13.181,0-23.9-10.719-23.9-23.901C272.205,230.356,282.924,219.633,296.105,219.633 M296.105,193.534
		c-27.614,0-49.999,22.387-49.999,50c0,27.614,22.384,50.002,49.999,50.002c27.612,0,49.997-22.388,49.997-50.002
		C346.102,215.921,323.717,193.534,296.105,193.534"/>
	<path fill="#585757" d="M296.105,219.633c13.179,0,23.9,10.724,23.9,23.901c0,13.183-10.722,23.901-23.9,23.901
		c-13.181,0-23.9-10.719-23.9-23.901C272.205,230.356,282.924,219.633,296.105,219.633"/>
	<path fill="#585757" d="M296.105,293.536c-6.99,0-13.644-1.441-19.687-4.031v116.88l-21.155-12.216l-5.082-2.935l-2.593,5.266
		c-3.513,7.134-10.866,11.746-18.73,11.746c-10.707,0-19.803-8.305-20.809-18.949l-0.048-66.694h36.084
		c8.541,0,15.527-6.988,15.527-15.531c0-8.537-6.987-15.523-15.527-15.523h-36.106l-0.002-97.973l-39.635-0.13l0.07,98.103h-56.983
		l0.029-39.735c0-14.81,10.039-20.085,19.438-20.085c4.066,0,26.82-0.075,26.82-0.075v-38.078h-28.71
		c-16.483,0-30.782,5.547-41.273,16.353c-9.698,9.995-14.707,23.909-15.798,40.004l-0.009,0.184v0.188L71.759,431.05
		c0.022,9.182,8.702,16.624,19.403,16.624v0.003l14.66,0.007l5.49,0.003l0.005-5.493l0.087-119.591h57.03l0.049,67.494v0.092
		l0.002,0.095l0.033,0.954l0.004,0.092l0.007,0.088c2.138,31.622,28.636,56.397,60.328,56.397c18.753,0,36.196-8.699,47.56-23.244
		v13.598v9.509h5.495h14.517v-0.003c10.304,0,18.729-6.899,19.361-15.609v-142.56C309.749,292.095,303.096,293.536,296.105,293.536z
		"/>
</g>
</svg>
