<?xml version="1.0" encoding="utf-8"?>
<!-- Generator: Adobe Illustrator 16.0.0, SVG Export Plug-In . SVG Version: 6.00 Build 0)  -->
<!DOCTYPE svg PUBLIC "-//W3C//DTD SVG 1.1//EN" "http://www.w3.org/Graphics/SVG/1.1/DTD/svg11.dtd">
<svg version="1.1" id="Layer_1" xmlns="http://www.w3.org/2000/svg" xmlns:xlink="http://www.w3.org/1999/xlink" x="0px" y="0px"
	 width="1920px" height="1080px" viewBox="0 0 1920 1080" enable-background="new 0 0 1920 1080" xml:space="preserve">
<g>
	<path d="M1333.447,123.046H970.094V241.56h215.381L905.517,521.517l84.146,84.146l275.271-275.272v210.695h118.513V173.046
		C1383.447,145.431,1361.063,123.046,1333.447,123.046z"/>
	<path d="M1264.935,758.458c0,29.313-23.762,53.073-53.073,53.073H748.035c-29.312,0-53.073-23.761-53.073-53.073V294.633
		c0-29.312,23.761-53.073,53.073-53.073h96.059V123.046H626.448c-27.614,0-50,22.386-50,50v707c0,27.615,22.386,50,50,50h706.999
		c27.615,0,50-22.385,50-50V667.086h-118.513V758.458z"/>
</g>
</svg>
