<?xml version="1.0" encoding="utf-8"?>
<!-- Generator: Adobe Illustrator 16.0.0, SVG Export Plug-In . SVG Version: 6.00 Build 0)  -->
<!DOCTYPE svg PUBLIC "-//W3C//DTD SVG 1.1//EN" "http://www.w3.org/Graphics/SVG/1.1/DTD/svg11.dtd">
<svg version="1.1" id="圖層_1" xmlns="http://www.w3.org/2000/svg" xmlns:xlink="http://www.w3.org/1999/xlink" x="0px" y="0px"
	 width="50px" height="50px" viewBox="0 0 50 50" enable-background="new 0 0 50 50" xml:space="preserve">
<g>
	<path d="M39.456,8.5H24.598v4.847h8.807L21.957,24.795l3.44,3.441l11.257-11.257v8.616H41.5V10.545
		C41.5,9.416,40.585,8.5,39.456,8.5z"/>
	<path d="M36.654,34.484c0,1.199-0.971,2.171-2.17,2.171H15.517c-1.199,0-2.17-0.972-2.17-2.171V15.517
		c0-1.199,0.972-2.17,2.17-2.17h3.928V8.5h-8.9C9.416,8.5,8.5,9.416,8.5,10.545v28.911c0,1.129,0.916,2.044,2.045,2.044h28.911
		c1.129,0,2.044-0.915,2.044-2.044v-8.708h-4.846V34.484L36.654,34.484z"/>
</g>
</svg>
