<?xml version="1.0" encoding="utf-8"?>
<!-- Generator: Adobe Illustrator 16.0.0, SVG Export Plug-In . SVG Version: 6.00 Build 0)  -->
<!DOCTYPE svg PUBLIC "-//W3C//DTD SVG 1.1//EN" "http://www.w3.org/Graphics/SVG/1.1/DTD/svg11.dtd">
<svg version="1.1" id="圖層_1" xmlns="http://www.w3.org/2000/svg" xmlns:xlink="http://www.w3.org/1999/xlink" x="0px" y="0px"
	 width="45px" height="45px" viewBox="0 0 45 45" enable-background="new 0 0 45 45" xml:space="preserve">
<path d="M22.856,40.688c-10.259,0-18.606-8.347-18.606-18.605c0-10.259,8.347-18.606,18.606-18.606
	c4.755,0,9.069,1.686,12.473,4.876c0.15,0.141,0.236,0.336,0.237,0.542c0.001,0.206-0.082,0.403-0.229,0.545l-4.848,4.667
	c-0.291,0.279-0.751,0.279-1.04,0c-1.207-1.161-3.331-2.544-6.596-2.544c-5.689,0-10.318,4.719-10.318,10.521
	s4.629,10.521,10.318,10.521c5.836,0,8.421-3.671,9.185-6.199h-9.185c-0.414,0-0.75-0.336-0.75-0.75V19.53
	c0-0.323,0.206-0.609,0.512-0.711c0.077-0.025,0.16-0.04,0.241-0.04c0,0,0,0,0,0l16.865,0.007c0.365,0,0.678,0.263,0.739,0.623
	c0.14,0.815,0.289,1.792,0.289,3.084C40.75,33.206,33.392,40.688,22.856,40.688z M22.856,4.977c-9.432,0-17.106,7.674-17.106,17.106
	c0,9.432,7.674,17.105,17.106,17.105c9.806,0,16.394-6.709,16.394-16.695c0-0.824-0.062-1.497-0.167-2.208L23.604,20.28v4.625h9.377
	c0.219,0,0.428,0.096,0.57,0.263c0.143,0.166,0.204,0.387,0.171,0.604c-0.452,2.882-3.305,8.333-10.869,8.333
	c-6.517,0-11.818-5.393-11.818-12.021c0-6.628,5.302-12.021,11.818-12.021c3.323,0,5.634,1.256,7.097,2.48l3.764-3.623
	C30.69,6.337,26.953,4.977,22.856,4.977z"/>
</svg>
