<?xml version="1.0" encoding="utf-8"?>
<!-- Generator: Adobe Illustrator 16.0.0, SVG Export Plug-In . SVG Version: 6.00 Build 0)  -->
<!DOCTYPE svg PUBLIC "-//W3C//DTD SVG 1.1//EN" "http://www.w3.org/Graphics/SVG/1.1/DTD/svg11.dtd">
<svg version="1.1" id="Layer_1" xmlns="http://www.w3.org/2000/svg" xmlns:xlink="http://www.w3.org/1999/xlink" x="0px" y="0px"
	 width="841.89px" height="595.281px" viewBox="0 0 841.89 595.281" enable-background="new 0 0 841.89 595.281"
	 xml:space="preserve">
<g>
	<path d="M576.542,582.083c-0.596,0-1.1,0.057-1.504,0.057h-279.17c-21.626,0-40.269-7.423-53.983-21.31
		c-25.012-25.329-25.44-63.253-25.44-68.194V199.25c0-11.243,9.256-20.358,20.5-20.358c11.243,0,20.5,9.115,20.5,20.358v293.498
		c0,0.086,0,0.17,0,0.257c0,6.966,2.259,27.755,13.665,39.187c6.048,6.063,14.025,8.949,24.758,8.949h279.597
		c0.636,0,0.643,0,1.161,0c0.002,0,0.002,0,0.005,0c1.574,0,11.988-0.258,20.336-8.383c9.238-8.994,14.479-25.334,14.479-47.395
		V199.25c0-11.243,9.258-20.358,20.5-20.358c11.244,0,20.5,9.115,20.5,20.358v286.113c0,34.44-9.729,60.588-27.932,77.635
		C605.923,580.407,583.946,582.083,576.542,582.083z"/>
	<path d="M336.945,488.331c-8.03,0-14.5-6.51-14.5-14.541V267.884c0-8.029,6.47-14.541,14.5-14.541s14.5,6.512,14.5,14.541V473.79
		C351.445,481.821,344.975,488.331,336.945,488.331z"/>
	<path d="M433.945,488.331c-8.03,0-14.5-6.51-14.5-14.541V267.884c0-8.029,6.47-14.541,14.5-14.541c8.031,0,14.5,6.512,14.5,14.541
		V473.79C448.445,481.821,441.976,488.331,433.945,488.331z"/>
	<path d="M527.945,488.331c-8.029,0-14.5-6.51-14.5-14.541V267.884c0-8.029,6.471-14.541,14.5-14.541
		c8.031,0,14.5,6.512,14.5,14.541V473.79C542.445,481.821,535.976,488.331,527.945,488.331z"/>
</g>
<path d="M693.49,108.227c-15.868-16.002-36.385-24.087-60.98-24.087h-72.064V57.645c0-28.398-25.705-51.505-56.192-51.505H362.346
	c-30.458,0-54.901,23.106-54.901,51.505V84.14h-72.329c-0.526,0-1.248-0.067-2.137-0.067c-8.445,0-30.314,1.572-50.923,16.265
	c-18.045,12.865-39.556,39.319-39.556,92.487c0,11.243,9.114,20.316,20.358,20.316h541.444c11.177,0,20.263-8.961,20.358-20.137
	C724.678,190.842,724.749,139.752,693.49,108.227z M348.445,57.645c0-5.747,6.165-10.505,13.901-10.505h141.906
	c7.764,0,15.192,4.758,15.192,10.505V84.14h-171V57.645z M184.699,173.14c2.871-19,9.897-31.432,20.993-39.342
	c11.636-8.295,24.771-8.877,27.286-8.877c0.196,0,0.35,0.092,0.462,0.095c0.5,0.041,0.66,0.124,1.21,0.124h397.858
	c13.472,0,23.925,4.066,31.964,12.116c9.408,9.422,14.486,22.884,17.072,35.884H184.699z"/>
</svg>
