<?xml version="1.0" encoding="utf-8"?>
<!-- Generator: Adobe Illustrator 16.0.0, SVG Export Plug-In . SVG Version: 6.00 Build 0)  -->
<!DOCTYPE svg PUBLIC "-//W3C//DTD SVG 1.1//EN" "http://www.w3.org/Graphics/SVG/1.1/DTD/svg11.dtd">
<svg version="1.1" id="圖層_1" xmlns="http://www.w3.org/2000/svg" xmlns:xlink="http://www.w3.org/1999/xlink" x="0px" y="0px"
	 width="274.578px" height="35px" viewBox="0 0 274.578 35" enable-background="new 0 0 274.578 35" xml:space="preserve">
<g>
	<g>
		<path fill="#0F9D58" d="M3.685,3.684h33.157v27.63H3.685V3.684z"/>
		<path fill="#57BB8A" d="M27.632,18.42c1.144,0,2.072-0.928,2.072-2.072s-0.929-2.072-2.072-2.072s-2.072,0.929-2.072,2.072
			S26.488,18.42,27.632,18.42z M27.632,19.803c-2.218,0-4.605,1.174-4.605,2.633v1.513h9.211v-1.513
			C32.237,20.977,29.85,19.803,27.632,19.803z M12.895,18.42c1.145,0,2.072-0.928,2.072-2.072s-0.928-2.072-2.072-2.072
			c-1.143,0-2.072,0.929-2.072,2.072S11.752,18.42,12.895,18.42z M12.895,19.803c-2.218,0-4.605,1.174-4.605,2.633v1.513h9.21
			v-1.513C17.5,20.977,15.113,19.803,12.895,19.803z"/>
		<path fill="#F7F7F7" d="M20.264,16.579c1.527,0,2.763-1.236,2.763-2.764c0-1.527-1.235-2.763-2.763-2.763
			c-1.528,0-2.764,1.236-2.764,2.763C17.5,15.343,18.736,16.579,20.264,16.579z M20.264,18.42c-3.109,0-6.447,1.65-6.447,3.686
			v1.843h12.895v-1.843C26.711,20.07,23.372,18.42,20.264,18.42z"/>
		<path fill="#F1F1F1" d="M23.947,29.473h8.29v1.842h-8.29V29.473z"/>
		<path fill="#F4B400" d="M37.764,0h-35C1.236,0,0,1.235,0,2.763v29.473C0,33.764,1.236,35,2.764,35h35
			c1.527,0,2.763-1.236,2.763-2.764V2.763C40.526,1.235,39.291,0,37.764,0z M36.842,31.314H3.685V3.684h33.157V31.314L36.842,31.314
			z"/>
		<path opacity="0.2" fill="#FFFFFF" enable-background="new    " d="M37.764,0h-35C1.236,0,0,1.235,0,2.763v0.23
			C0,1.466,1.236,0.23,2.764,0.23h35c1.527,0,2.763,1.236,2.763,2.763v-0.23C40.526,1.235,39.291,0,37.764,0z"/>
		<path opacity="0.2" fill="#BF360C" enable-background="new    " d="M37.764,34.77h-35C1.236,34.77,0,33.533,0,32.006v0.23
			C0,33.764,1.236,35,2.764,35h35c1.527,0,2.763-1.236,2.763-2.764v-0.23C40.526,33.533,39.291,34.77,37.764,34.77z"/>
		
			<linearGradient id="SVGID_1_" gradientUnits="userSpaceOnUse" x1="24.8433" y1="-456.2813" x2="24.8433" y2="-456.2651" gradientTransform="matrix(738.1628 0 0 227.2727 -18308.3516 103731.4453)">
			<stop  offset="0" style="stop-color:#BF360C;stop-opacity:0.2"/>
			<stop  offset="1" style="stop-color:#BF360C;stop-opacity:0.02"/>
		</linearGradient>
		<path fill="url(#SVGID_1_)" d="M32.222,31.314h-8.29L27.617,35h8.281L32.222,31.314z"/>
		<path opacity="0.2" fill="#263238" enable-background="new    " d="M3.685,3.454h33.157v0.23H3.685V3.454z"/>
		<path opacity="0.2" fill="#FFFFFF" enable-background="new    " d="M3.685,31.314h33.157v0.229H3.685V31.314z"/>
		
			<radialGradient id="SVGID_2_" cx="25.8599" cy="-451.3452" r="0.078" gradientTransform="matrix(2159.1001 0 0 2159.0908 -55831.2734 974499.25)" gradientUnits="userSpaceOnUse">
			<stop  offset="0" style="stop-color:#FFFFFF;stop-opacity:0.1"/>
			<stop  offset="1" style="stop-color:#FFFFFF;stop-opacity:0"/>
		</radialGradient>
		<path fill="url(#SVGID_2_)" d="M37.764,0h-35C1.236,0,0,1.235,0,2.763v29.473C0,33.764,1.236,35,2.764,35h35
			c1.527,0,2.763-1.236,2.763-2.764V2.763C40.526,1.235,39.291,0,37.764,0z"/>
	</g>
	<g enable-background="new    ">
		<path fill="#FFFFFF" d="M71.955,17.243c0,2.871-0.852,5.155-2.554,6.858c-1.914,2.029-4.43,3.043-7.548,3.043
			c-2.985,0-5.511-1.033-7.577-3.1s-3.1-4.611-3.1-7.634c0-3.023,1.033-5.568,3.1-7.635s4.592-3.1,7.577-3.1
			c1.511,0,2.937,0.268,4.276,0.803c1.339,0.536,2.439,1.292,3.3,2.268l-1.894,1.894c-0.631-0.765-1.449-1.363-2.454-1.793
			C64.076,8.417,63,8.202,61.852,8.202c-2.239,0-4.133,0.775-5.683,2.325c-1.531,1.568-2.296,3.53-2.296,5.884
			c0,2.353,0.765,4.313,2.296,5.882c1.55,1.551,3.444,2.326,5.683,2.326c2.047,0,3.75-0.574,5.108-1.723
			c1.358-1.149,2.143-2.728,2.354-4.736h-7.462v-2.467h9.959C71.907,16.229,71.955,16.746,71.955,17.243z"/>
		<path fill="#FFFFFF" d="M73.763,19.654c0-2.163,0.679-3.952,2.038-5.368c1.377-1.416,3.109-2.124,5.195-2.124
			c2.084,0,3.807,0.708,5.166,2.124c1.377,1.416,2.066,3.205,2.066,5.368c0,2.18-0.689,3.969-2.066,5.365
			c-1.359,1.418-3.082,2.125-5.166,2.125c-2.086,0-3.818-0.707-5.195-2.125C74.442,23.605,73.763,21.816,73.763,19.654z
			 M76.404,19.654c0,1.512,0.439,2.736,1.32,3.672c0.879,0.939,1.969,1.408,3.271,1.408c1.301,0,2.391-0.469,3.271-1.408
			c0.879-0.936,1.32-2.16,1.32-3.672c0-1.494-0.441-2.708-1.32-3.646c-0.9-0.956-1.99-1.435-3.271-1.435
			c-1.283,0-2.373,0.479-3.271,1.435C76.844,16.946,76.404,18.16,76.404,19.654z"/>
		<path fill="#FFFFFF" d="M89.835,19.654c0-2.163,0.679-3.952,2.038-5.368c1.377-1.416,3.108-2.124,5.194-2.124
			c2.085,0,3.808,0.708,5.166,2.124c1.378,1.416,2.066,3.205,2.066,5.368c0,2.18-0.688,3.969-2.066,5.365
			c-1.358,1.418-3.081,2.125-5.166,2.125c-2.086,0-3.817-0.707-5.194-2.125C90.514,23.605,89.835,21.816,89.835,19.654z
			 M92.476,19.654c0,1.512,0.439,2.736,1.32,3.672c0.88,0.939,1.97,1.408,3.271,1.408c1.301,0,2.392-0.469,3.272-1.408
			c0.879-0.936,1.319-2.16,1.319-3.672c0-1.494-0.44-2.708-1.319-3.646c-0.9-0.956-1.99-1.435-3.272-1.435
			c-1.282,0-2.373,0.479-3.271,1.435C92.915,16.946,92.476,18.16,92.476,19.654z"/>
		<path fill="#FFFFFF" d="M112.939,33.344c-0.784,0-1.521-0.1-2.21-0.301c-0.688-0.201-1.315-0.484-1.88-0.848
			c-0.565-0.364-1.047-0.793-1.449-1.291c-0.401-0.498-0.708-1.053-0.918-1.664l2.497-1.033c0.286,0.822,0.784,1.482,1.492,1.98
			c0.707,0.496,1.53,0.746,2.468,0.746c1.436,0,2.555-0.433,3.358-1.293c0.803-0.861,1.205-2.048,1.205-3.56v-1.349h-0.114
			c-0.498,0.746-1.173,1.334-2.023,1.765c-0.852,0.433-1.775,0.646-2.77,0.646c-1.837,0-3.416-0.719-4.736-2.151
			c-1.301-1.476-1.951-3.255-1.951-5.339c0-2.085,0.65-3.855,1.951-5.311c1.32-1.453,2.899-2.181,4.736-2.181
			c0.994,0,1.918,0.215,2.77,0.646c0.851,0.431,1.525,1.019,2.023,1.766h0.114v-1.952h2.526v13.46c0,2.258-0.642,4.026-1.924,5.312
			C116.805,32.693,115.082,33.344,112.939,33.344z M113.026,24.734c1.301,0,2.362-0.469,3.186-1.408
			c0.86-0.936,1.291-2.16,1.291-3.672c0-1.475-0.431-2.689-1.291-3.646c-0.843-0.956-1.904-1.435-3.186-1.435
			c-1.264,0-2.325,0.479-3.187,1.435c-0.86,0.957-1.291,2.172-1.291,3.646c0,1.492,0.431,2.707,1.291,3.645
			C110.701,24.256,111.763,24.734,113.026,24.734z"/>
		<path fill="#FFFFFF" d="M125.884,6.135v20.551h-2.641V6.135H125.884z"/>
		<path fill="#FFFFFF" d="M135.269,27.145c-2.067,0-3.771-0.707-5.109-2.125c-1.339-1.414-2.009-3.203-2.009-5.365
			c0-2.144,0.65-3.927,1.951-5.354c1.302-1.425,2.966-2.138,4.994-2.138c2.086,0,3.746,0.675,4.979,2.023
			c1.233,1.349,1.853,3.238,1.853,5.667l-0.029,0.287h-11.049c0.038,1.379,0.497,2.487,1.377,3.33
			c0.88,0.842,1.933,1.264,3.157,1.264c1.684,0,3.004-0.842,3.961-2.527l2.354,1.148c-0.632,1.188-1.507,2.115-2.626,2.785
			C137.951,26.809,136.684,27.145,135.269,27.145z M131.049,17.96h8.064c-0.076-0.977-0.473-1.784-1.19-2.426
			c-0.718-0.641-1.679-0.961-2.885-0.961c-0.995,0-1.851,0.306-2.568,0.918C131.753,16.103,131.278,16.927,131.049,17.96z"/>
	</g>
	<text transform="matrix(1 0 0 1 143.0176 26.6855)" fill="#6D6D6D" font-family="'ProductSans-Regular'" font-size="14.3352"> </text>
	<g enable-background="new    ">
		<path fill="#FFFFFF" d="M165.859,23.414c-0.918,1.109-2.043,2.008-3.373,2.697c-1.329,0.688-2.875,1.033-4.635,1.033
			c-1.513,0-2.908-0.277-4.189-0.832c-1.282-0.556-2.393-1.316-3.33-2.283c-0.938-0.965-1.674-2.104-2.209-3.414
			c-0.537-1.311-0.805-2.712-0.805-4.205c0-1.493,0.268-2.895,0.805-4.205c0.535-1.311,1.271-2.449,2.209-3.416
			c0.938-0.966,2.048-1.727,3.33-2.282c1.281-0.555,2.678-0.832,4.189-0.832c1.588,0,2.994,0.292,4.219,0.875
			c1.225,0.584,2.297,1.412,3.215,2.483l-1.32,1.263c-1.568-1.914-3.605-2.871-6.113-2.871c-1.186,0-2.305,0.22-3.356,0.66
			c-1.054,0.44-1.972,1.053-2.757,1.836c-0.783,0.785-1.405,1.728-1.864,2.827c-0.459,1.101-0.688,2.32-0.688,3.66
			c0,1.339,0.229,2.558,0.688,3.66c0.459,1.1,1.081,2.047,1.864,2.84c0.785,0.795,1.703,1.406,2.757,1.838
			c1.053,0.43,2.172,0.645,3.356,0.645c1.437,0,2.698-0.285,3.789-0.858c1.092-0.574,2.057-1.369,2.898-2.384L165.859,23.414z"/>
		<path fill="#FFFFFF" d="M168.414,26.686V6.135h1.837v20.551H168.414L168.414,26.686z"/>
		<path fill="#FFFFFF" d="M183.08,24.188h-0.114c-0.479,0.824-1.144,1.521-1.995,2.097c-0.851,0.575-1.842,0.86-2.971,0.86
			c-0.766,0-1.475-0.119-2.124-0.358c-0.649-0.238-1.215-0.563-1.692-0.976c-0.479-0.412-0.853-0.903-1.119-1.479
			c-0.268-0.575-0.401-1.195-0.401-1.865c0-0.766,0.157-1.445,0.474-2.039c0.315-0.592,0.746-1.09,1.291-1.492
			c0.547-0.401,1.178-0.703,1.896-0.903c0.718-0.201,1.478-0.301,2.28-0.301c0.957,0,1.818,0.11,2.584,0.332
			c0.766,0.221,1.396,0.473,1.895,0.76v-0.86c0-0.632-0.113-1.206-0.346-1.723c-0.229-0.517-0.534-0.956-0.918-1.32
			c-0.383-0.363-0.836-0.641-1.362-0.832s-1.076-0.287-1.649-0.287c-0.861,0-1.627,0.187-2.297,0.56s-1.225,0.914-1.664,1.622
			l-1.607-1.005c0.556-0.861,1.311-1.545,2.268-2.052c0.957-0.507,2.038-0.761,3.243-0.761c0.938,0,1.778,0.139,2.526,0.416
			c0.746,0.277,1.387,0.67,1.923,1.177c0.534,0.507,0.946,1.11,1.233,1.809c0.287,0.698,0.43,1.478,0.43,2.339v8.783h-1.778v-2.5
			H183.08z M183.08,20.428c-0.574-0.344-1.201-0.625-1.88-0.846c-0.681-0.221-1.449-0.33-2.312-0.33
			c-0.631,0-1.209,0.076-1.736,0.229c-0.525,0.154-0.984,0.369-1.377,0.646s-0.698,0.617-0.918,1.02
			c-0.221,0.4-0.33,0.853-0.33,1.349c0,0.459,0.101,0.875,0.302,1.25c0.2,0.373,0.474,0.688,0.817,0.944
			c0.345,0.261,0.731,0.461,1.162,0.604c0.43,0.146,0.875,0.215,1.334,0.215c0.633,0,1.244-0.133,1.838-0.399
			c0.593-0.271,1.119-0.637,1.578-1.105s0.828-1.01,1.104-1.621C182.941,21.768,183.08,21.117,183.08,20.428z"/>
		<path fill="#FFFFFF" d="M192.811,27.145c-0.767,0-1.47-0.11-2.109-0.33c-0.643-0.221-1.205-0.518-1.693-0.891
			s-0.908-0.803-1.263-1.291s-0.627-1-0.817-1.535l1.635-0.688c0.383,1.016,0.963,1.784,1.736,2.312
			c0.775,0.526,1.612,0.788,2.512,0.788c1.129,0,2.02-0.248,2.67-0.745c0.649-0.496,0.976-1.091,0.976-1.779
			c0-0.287-0.048-0.555-0.144-0.803c-0.097-0.25-0.269-0.484-0.517-0.703c-0.249-0.222-0.584-0.422-1.005-0.604
			s-0.957-0.351-1.607-0.502l-1.951-0.459c-0.439-0.115-0.896-0.265-1.362-0.445c-0.47-0.182-0.896-0.42-1.277-0.717
			c-0.383-0.297-0.694-0.655-0.933-1.077c-0.24-0.421-0.359-0.909-0.359-1.464c0-0.65,0.148-1.225,0.445-1.723
			c0.296-0.497,0.697-0.918,1.205-1.263c0.507-0.344,1.086-0.607,1.736-0.789c0.649-0.182,1.319-0.272,2.008-0.272
			c0.595,0,1.168,0.071,1.724,0.215s1.065,0.35,1.535,0.617c0.469,0.269,0.885,0.607,1.249,1.019
			c0.363,0.412,0.648,0.886,0.859,1.421l-1.606,0.66c-0.383-0.804-0.903-1.387-1.563-1.751c-0.66-0.362-1.42-0.545-2.281-0.545
			c-0.422,0-0.838,0.053-1.248,0.158c-0.412,0.105-0.78,0.258-1.105,0.459c-0.324,0.201-0.588,0.45-0.789,0.746
			c-0.201,0.297-0.301,0.627-0.301,0.99c0,0.594,0.253,1.053,0.76,1.378c0.508,0.325,1.221,0.603,2.139,0.832l2.066,0.519
			c1.436,0.363,2.492,0.886,3.172,1.563c0.68,0.679,1.02,1.478,1.02,2.396c0,0.592-0.129,1.146-0.389,1.664
			c-0.258,0.516-0.631,0.971-1.119,1.363c-0.487,0.393-1.071,0.703-1.75,0.934C194.383,27.029,193.632,27.145,192.811,27.145z"/>
		<path fill="#FFFFFF" d="M205.668,27.145c-0.766,0-1.469-0.11-2.109-0.33c-0.642-0.221-1.205-0.518-1.692-0.891
			c-0.488-0.373-0.909-0.803-1.263-1.291c-0.354-0.488-0.627-1-0.818-1.535l1.636-0.688c0.384,1.016,0.962,1.784,1.736,2.312
			c0.774,0.526,1.612,0.788,2.512,0.788c1.129,0,2.019-0.248,2.669-0.745c0.65-0.496,0.977-1.091,0.977-1.779
			c0-0.287-0.049-0.555-0.144-0.803c-0.097-0.25-0.269-0.484-0.517-0.703c-0.25-0.222-0.584-0.422-1.006-0.604
			c-0.42-0.183-0.957-0.351-1.606-0.502l-1.951-0.459c-0.44-0.115-0.896-0.265-1.362-0.445c-0.471-0.182-0.896-0.42-1.277-0.717
			c-0.383-0.297-0.694-0.655-0.934-1.077c-0.24-0.421-0.358-0.909-0.358-1.464c0-0.65,0.147-1.225,0.444-1.723
			c0.297-0.497,0.699-0.918,1.205-1.263c0.508-0.344,1.086-0.607,1.736-0.789s1.32-0.272,2.01-0.272
			c0.594,0,1.166,0.071,1.723,0.215c0.555,0.144,1.066,0.35,1.535,0.617c0.469,0.269,0.885,0.607,1.248,1.019
			c0.363,0.412,0.649,0.886,0.86,1.421l-1.606,0.66c-0.383-0.804-0.903-1.387-1.563-1.751c-0.66-0.362-1.421-0.545-2.282-0.545
			c-0.421,0-0.837,0.053-1.248,0.158c-0.412,0.105-0.779,0.258-1.104,0.459s-0.589,0.45-0.789,0.746
			c-0.201,0.297-0.302,0.627-0.302,0.99c0,0.594,0.254,1.053,0.761,1.378c0.507,0.325,1.22,0.603,2.139,0.832l2.066,0.519
			c1.435,0.363,2.491,0.886,3.171,1.563c0.68,0.679,1.02,1.478,1.02,2.396c0,0.592-0.129,1.146-0.388,1.664
			c-0.258,0.516-0.632,0.971-1.119,1.363s-1.071,0.703-1.751,0.934C207.241,27.029,206.49,27.145,205.668,27.145z"/>
		<path fill="#FFFFFF" d="M213.475,26.686V12.622h1.724v2.469h0.114c0.133-0.421,0.35-0.809,0.646-1.163s0.631-0.66,1.004-0.918
			c0.373-0.259,0.767-0.464,1.177-0.617c0.411-0.153,0.81-0.229,1.191-0.229c0.439,0,0.804,0.033,1.091,0.1
			c0.287,0.067,0.563,0.177,0.832,0.331l-0.573,1.664c-0.384-0.19-0.91-0.287-1.578-0.287c-0.498,0-0.978,0.12-1.437,0.361
			c-0.459,0.24-0.86,0.571-1.205,0.994c-0.345,0.423-0.622,0.928-0.832,1.514c-0.211,0.587-0.315,1.226-0.315,1.917v7.93h-1.838
			V26.686z"/>
		<path fill="#FFFFFF" d="M228.456,12.163c1.032,0,1.983,0.191,2.854,0.574c0.871,0.383,1.623,0.908,2.254,1.578
			s1.123,1.459,1.479,2.368c0.354,0.909,0.531,1.899,0.531,2.971c0,1.07-0.178,2.061-0.531,2.969
			c-0.354,0.91-0.848,1.699-1.479,2.369s-1.383,1.195-2.254,1.578s-1.822,0.574-2.854,0.574c-1.015,0-1.957-0.191-2.827-0.574
			c-0.871-0.383-1.621-0.908-2.253-1.578s-1.124-1.459-1.479-2.369c-0.354-0.908-0.529-1.898-0.529-2.969
			c0-1.072,0.177-2.063,0.529-2.971c0.354-0.909,0.848-1.698,1.479-2.368s1.382-1.195,2.253-1.578
			C226.499,12.354,227.441,12.163,228.456,12.163z M228.456,25.48c0.688,0,1.349-0.14,1.979-0.418
			c0.631-0.275,1.19-0.668,1.68-1.177c0.488-0.506,0.88-1.118,1.177-1.836c0.297-0.719,0.444-1.518,0.444-2.396
			c0-0.881-0.147-1.68-0.444-2.397c-0.297-0.718-0.688-1.33-1.177-1.837c-0.489-0.507-1.049-0.899-1.68-1.177
			c-0.631-0.277-1.291-0.417-1.979-0.417s-1.349,0.14-1.979,0.417c-0.631,0.277-1.191,0.67-1.68,1.177s-0.876,1.119-1.163,1.837
			c-0.286,0.717-0.43,1.517-0.43,2.397c0,0.879,0.144,1.678,0.43,2.396c0.287,0.718,0.675,1.33,1.163,1.836
			c0.487,0.509,1.047,0.9,1.68,1.177C227.107,25.342,227.768,25.48,228.456,25.48z"/>
		<path fill="#FFFFFF" d="M244.355,12.163c1.033,0,1.984,0.191,2.855,0.574c0.871,0.383,1.622,0.908,2.253,1.578
			c0.632,0.67,1.124,1.459,1.479,2.368c0.354,0.909,0.531,1.899,0.531,2.971c0,1.07-0.179,2.061-0.531,2.969
			c-0.354,0.91-0.848,1.699-1.479,2.369c-0.631,0.67-1.382,1.195-2.253,1.578s-1.822,0.574-2.855,0.574
			c-1.015,0-1.957-0.191-2.826-0.574c-0.871-0.383-1.621-0.908-2.254-1.578c-0.631-0.67-1.123-1.459-1.479-2.369
			c-0.354-0.908-0.529-1.898-0.529-2.969c0-1.072,0.176-2.063,0.529-2.971c0.354-0.909,0.848-1.698,1.479-2.368
			c0.633-0.67,1.383-1.195,2.254-1.578C242.398,12.354,243.342,12.163,244.355,12.163z M244.355,25.48c0.688,0,1.35-0.14,1.98-0.418
			c0.631-0.275,1.189-0.668,1.68-1.177c0.487-0.506,0.879-1.118,1.176-1.836c0.297-0.719,0.445-1.518,0.445-2.396
			c0-0.881-0.148-1.68-0.445-2.397c-0.297-0.718-0.688-1.33-1.176-1.837c-0.49-0.507-1.049-0.899-1.68-1.177
			c-0.632-0.277-1.292-0.417-1.98-0.417c-0.688,0-1.349,0.14-1.979,0.417c-0.631,0.277-1.19,0.67-1.679,1.177
			s-0.877,1.119-1.163,1.837c-0.286,0.717-0.431,1.517-0.431,2.397c0,0.879,0.145,1.678,0.431,2.396s0.675,1.33,1.163,1.836
			c0.486,0.509,1.047,0.9,1.679,1.177C243.008,25.342,243.668,25.48,244.355,25.48z"/>
		<path fill="#FFFFFF" d="M253.741,12.622h1.723v2.641h0.114c0.191-0.421,0.449-0.818,0.775-1.191
			c0.324-0.373,0.692-0.703,1.104-0.99s0.861-0.512,1.35-0.674c0.487-0.163,0.99-0.244,1.508-0.244c1.166,0,2.123,0.306,2.869,0.918
			c0.746,0.613,1.254,1.388,1.521,2.325c0.459-0.919,1.119-1.688,1.98-2.311c0.86-0.621,1.895-0.933,3.1-0.933
			c0.842,0,1.564,0.139,2.167,0.416c0.603,0.277,1.101,0.665,1.491,1.162c0.394,0.498,0.681,1.091,0.861,1.779
			c0.182,0.689,0.272,1.436,0.272,2.239v8.927h-1.837v-8.611c0-1.396-0.268-2.454-0.805-3.17c-0.535-0.718-1.406-1.077-2.61-1.077
			c-0.632,0-1.21,0.148-1.736,0.445s-0.976,0.688-1.349,1.177c-0.374,0.488-0.66,1.053-0.861,1.693
			c-0.201,0.642-0.302,1.305-0.302,1.995v7.549h-1.837v-8.553c0-1.436-0.271-2.512-0.817-3.229
			c-0.546-0.718-1.401-1.077-2.569-1.077c-0.649,0-1.237,0.154-1.765,0.46c-0.526,0.306-0.976,0.717-1.349,1.233
			s-0.66,1.105-0.861,1.766c-0.201,0.661-0.302,1.345-0.302,2.052v7.348h-1.837L253.741,12.622L253.741,12.622z"/>
	</g>
</g>
</svg>
