<?xml version="1.0" encoding="utf-8"?>
<!-- Generator: Adobe Illustrator 16.0.0, SVG Export Plug-In . SVG Version: 6.00 Build 0)  -->
<!DOCTYPE svg PUBLIC "-//W3C//DTD SVG 1.1//EN" "http://www.w3.org/Graphics/SVG/1.1/DTD/svg11.dtd">
<svg version="1.1" id="圖層_1" xmlns="http://www.w3.org/2000/svg" xmlns:xlink="http://www.w3.org/1999/xlink" x="0px" y="0px"
	 width="207.977px" height="35px" viewBox="0 0 207.977 35" enable-background="new 0 0 207.977 35" xml:space="preserve">
<g>
	<path fill="#467CBF" d="M33.17,34.534l-6.156-10.675h-7.323h-7.323L6.214,34.534C6.698,34.829,7.268,35,7.8,35h23.782
		C32.115,35,32.686,34.829,33.17,34.534z"/>
	<path fill="#E83927" d="M27.014,23.859l6.156,10.675c0.436-0.256,0.807-0.607,1.045-1.016l4.777-8.235
		c0.236-0.408,0.369-0.911,0.389-1.424H27.014L27.014,23.859z"/>
	<path fill="#F9BB00" d="M27.014,23.859h12.357c0.02-0.561-0.096-1.141-0.361-1.597l-2.744-4.758L27.072,1.529
		c-0.268-0.456-0.693-0.855-1.178-1.13L19.701,11.15l3.666,6.354L27.014,23.859z"/>
	<path fill="#007C3C" d="M19.691,11.15l6.193-10.751C25.437,0.152,24.944,0,24.468,0h-9.555c-0.475,0-0.978,0.152-1.415,0.399
		L19.691,11.15z"/>
	<path fill="#1EA74B" d="M19.691,11.15L13.489,0.399c-0.494,0.274-0.921,0.674-1.178,1.13L3.108,17.505l-2.745,4.758
		c-0.266,0.456-0.38,1.026-0.361,1.597h12.357l3.667-6.354L19.691,11.15z"/>
	<path fill="#1C63AF" d="M12.368,23.859H0.002c0.019,0.503,0.152,1.006,0.39,1.424l4.777,8.235c0.237,0.408,0.608,0.76,1.045,1.016
		L12.368,23.859z"/>
	<g>
		<path fill="#6D6D6D" d="M71.99,17.252c0,2.871-0.852,5.159-2.555,6.862c-1.914,2.029-4.432,3.044-7.553,3.044
			c-2.986,0-5.514-1.034-7.58-3.102c-2.068-2.067-3.102-4.613-3.102-7.638s1.033-5.57,3.102-7.638s4.594-3.102,7.58-3.102
			c1.512,0,2.939,0.269,4.279,0.804c1.34,0.537,2.439,1.293,3.303,2.269l-1.896,1.896c-0.631-0.766-1.449-1.364-2.455-1.795
			c-1.004-0.431-2.082-0.646-3.23-0.646c-2.238,0-4.135,0.775-5.686,2.325c-1.531,1.57-2.297,3.532-2.297,5.887
			s0.766,4.317,2.297,5.887c1.551,1.551,3.447,2.325,5.686,2.325c2.049,0,3.752-0.574,5.111-1.723s2.145-2.728,2.355-4.737h-7.467
			v-2.47h9.965C71.943,16.237,71.99,16.754,71.99,17.252z"/>
		<path fill="#6D6D6D" d="M73.801,19.664c0-2.163,0.678-3.953,2.037-5.37c1.379-1.416,3.111-2.125,5.197-2.125
			c2.088,0,3.811,0.709,5.17,2.125c1.377,1.417,2.066,3.207,2.066,5.37c0,2.182-0.689,3.972-2.066,5.369
			c-1.359,1.417-3.082,2.125-5.17,2.125c-2.086,0-3.818-0.708-5.197-2.125C74.479,23.617,73.801,21.827,73.801,19.664z
			 M76.441,19.664c0,1.512,0.439,2.737,1.32,3.675c0.881,0.938,1.973,1.407,3.273,1.407c1.303,0,2.393-0.469,3.273-1.407
			c0.881-0.938,1.322-2.163,1.322-3.675c0-1.493-0.441-2.709-1.322-3.647c-0.898-0.957-1.99-1.436-3.273-1.436
			c-1.281,0-2.373,0.479-3.273,1.436C76.881,16.955,76.441,18.171,76.441,19.664z"/>
		<path fill="#6D6D6D" d="M89.879,19.664c0-2.163,0.68-3.953,2.039-5.37c1.379-1.416,3.111-2.125,5.197-2.125
			s3.811,0.709,5.17,2.125c1.377,1.417,2.066,3.207,2.066,5.37c0,2.182-0.689,3.972-2.066,5.369
			c-1.359,1.417-3.084,2.125-5.17,2.125s-3.818-0.708-5.197-2.125C90.559,23.617,89.879,21.827,89.879,19.664z M92.521,19.664
			c0,1.512,0.439,2.737,1.32,3.675c0.881,0.938,1.973,1.407,3.273,1.407c1.303,0,2.393-0.469,3.273-1.407
			c0.881-0.938,1.322-2.163,1.322-3.675c0-1.493-0.441-2.709-1.322-3.647c-0.898-0.957-1.99-1.436-3.273-1.436
			c-1.281,0-2.373,0.479-3.273,1.436C92.961,16.955,92.521,18.171,92.521,19.664z"/>
		<path fill="#6D6D6D" d="M112.994,33.36c-0.785,0-1.521-0.101-2.211-0.302s-1.316-0.483-1.881-0.847
			c-0.564-0.364-1.047-0.795-1.449-1.292c-0.402-0.498-0.709-1.054-0.92-1.666l2.5-1.033c0.287,0.822,0.783,1.483,1.492,1.981
			c0.709,0.497,1.531,0.746,2.469,0.746c1.436,0,2.557-0.431,3.359-1.292c0.805-0.861,1.207-2.049,1.207-3.561v-1.35h-0.115
			c-0.498,0.746-1.172,1.335-2.023,1.766s-1.775,0.646-2.771,0.646c-1.838,0-3.418-0.718-4.738-2.153
			c-1.303-1.475-1.953-3.255-1.953-5.341c0-2.087,0.65-3.857,1.953-5.313c1.32-1.454,2.9-2.183,4.738-2.183
			c0.996,0,1.918,0.216,2.771,0.646c0.852,0.431,1.525,1.02,2.023,1.766h0.115v-1.952h2.527v13.467c0,2.259-0.643,4.029-1.924,5.313
			C116.861,32.709,115.139,33.36,112.994,33.36z M113.08,24.746c1.303,0,2.365-0.469,3.188-1.407
			c0.861-0.938,1.293-2.163,1.293-3.675c0-1.475-0.432-2.689-1.293-3.647c-0.842-0.957-1.904-1.436-3.188-1.436
			c-1.262,0-2.324,0.479-3.186,1.436c-0.861,0.958-1.293,2.173-1.293,3.647c0,1.493,0.432,2.709,1.293,3.646
			C110.756,24.268,111.818,24.746,113.08,24.746z"/>
		<path fill="#6D6D6D" d="M125.945,6.14v20.559h-2.643V6.14H125.945z"/>
		<path fill="#6D6D6D" d="M135.334,27.158c-2.066,0-3.771-0.708-5.111-2.125c-1.34-1.416-2.01-3.206-2.01-5.369
			c0-2.144,0.65-3.93,1.953-5.355c1.301-1.426,2.967-2.14,4.996-2.14c2.086,0,3.748,0.675,4.982,2.024s1.852,3.24,1.852,5.671
			l-0.029,0.287h-11.055c0.039,1.379,0.498,2.489,1.379,3.331c0.881,0.843,1.934,1.264,3.158,1.264c1.684,0,3.006-0.842,3.963-2.527
			l2.354,1.149c-0.631,1.187-1.506,2.115-2.627,2.785C138.02,26.823,136.75,27.158,135.334,27.158z M131.113,17.97h8.068
			c-0.076-0.977-0.473-1.785-1.191-2.427c-0.717-0.641-1.68-0.962-2.885-0.962c-0.996,0-1.854,0.307-2.57,0.919
			C131.816,16.113,131.344,16.936,131.113,17.97z"/>
		<path fill="#6D6D6D" d="M148.166,6.14h5.973c1.607,0,3.053,0.254,4.336,0.761c1.281,0.507,2.369,1.211,3.26,2.11
			c0.889,0.9,1.568,1.981,2.037,3.245c0.469,1.263,0.705,2.651,0.705,4.163c0,1.513-0.236,2.9-0.705,4.163
			c-0.469,1.264-1.148,2.346-2.037,3.245c-0.891,0.9-1.979,1.604-3.26,2.11c-1.283,0.508-2.729,0.761-4.336,0.761h-5.973V6.14z
			 M154.139,24.947c1.283,0,2.445-0.191,3.488-0.574s1.934-0.938,2.67-1.666c0.738-0.727,1.307-1.617,1.709-2.67
			s0.604-2.259,0.604-3.618c0-1.34-0.201-2.541-0.604-3.604s-0.971-1.957-1.709-2.685c-0.736-0.728-1.627-1.282-2.67-1.666
			c-1.043-0.383-2.205-0.574-3.488-0.574h-4.135v17.057H154.139L154.139,24.947z"/>
		<path fill="#6D6D6D" d="M166.773,26.698V12.629h1.723v2.469h0.115c0.133-0.421,0.348-0.808,0.645-1.162s0.633-0.661,1.006-0.919
			c0.373-0.259,0.766-0.464,1.178-0.618c0.412-0.152,0.809-0.229,1.191-0.229c0.439,0,0.805,0.033,1.092,0.1
			s0.564,0.177,0.832,0.331l-0.574,1.666c-0.383-0.191-0.91-0.287-1.58-0.287c-0.498,0-0.975,0.12-1.436,0.36
			c-0.459,0.24-0.861,0.572-1.205,0.995c-0.346,0.423-0.623,0.928-0.832,1.515c-0.211,0.587-0.316,1.226-0.316,1.918v7.933
			L166.773,26.698L166.773,26.698z"/>
		<path fill="#6D6D6D" d="M177.482,8.981c-0.4,0-0.742-0.139-1.018-0.416c-0.279-0.277-0.418-0.607-0.418-0.99
			c0-0.402,0.139-0.742,0.418-1.02c0.277-0.277,0.617-0.416,1.018-0.416c0.383,0,0.713,0.139,0.992,0.416
			c0.277,0.277,0.416,0.617,0.416,1.02c0,0.383-0.139,0.713-0.416,0.99C178.195,8.843,177.867,8.981,177.482,8.981z M176.564,26.698
			V12.629h1.838v14.069H176.564L176.564,26.698z"/>
		<path fill="#6D6D6D" d="M180.412,12.629h1.953l4.795,12.002h0.057l4.824-12.002h1.924l-5.801,14.069h-2.01L180.412,12.629z"/>
		<path fill="#6D6D6D" d="M207.689,23.368c-0.248,0.517-0.564,1.005-0.947,1.464c-0.383,0.46-0.828,0.861-1.334,1.206
			c-0.508,0.345-1.088,0.617-1.738,0.818s-1.369,0.302-2.154,0.302c-1.014,0-1.951-0.187-2.813-0.561
			c-0.861-0.373-1.604-0.895-2.227-1.564c-0.621-0.67-1.105-1.46-1.449-2.369c-0.346-0.909-0.518-1.909-0.518-3.001
			c0-1.014,0.158-1.976,0.475-2.886c0.316-0.908,0.77-1.703,1.363-2.383s1.311-1.221,2.154-1.622
			c0.842-0.402,1.789-0.604,2.842-0.604c1.016,0,1.93,0.178,2.742,0.531c0.814,0.354,1.508,0.852,2.082,1.493
			s1.02,1.412,1.336,2.312c0.314,0.9,0.473,1.896,0.473,2.986c0,0.058,0,0.115,0,0.172c-0.02,0.058-0.027,0.105-0.027,0.145v0.172
			h-11.572c0.018,0.977,0.191,1.809,0.516,2.498c0.326,0.689,0.738,1.259,1.236,1.708c0.496,0.45,1.051,0.78,1.664,0.991
			s1.207,0.315,1.781,0.315c1.186,0,2.125-0.272,2.814-0.818c0.688-0.545,1.262-1.239,1.723-2.081L207.689,23.368z M206.053,18.429
			c-0.02-0.459-0.113-0.957-0.287-1.493c-0.172-0.535-0.439-1.033-0.803-1.493c-0.365-0.459-0.848-0.842-1.451-1.148
			c-0.604-0.306-1.344-0.459-2.225-0.459c-0.574,0-1.131,0.1-1.666,0.301s-1.02,0.493-1.449,0.876
			c-0.432,0.384-0.795,0.861-1.092,1.436s-0.492,1.235-0.588,1.981H206.053z"/>
	</g>
</g>
</svg>
