<?xml version="1.0" encoding="utf-8"?>
<!-- Generator: Adobe Illustrator 16.0.0, SVG Export Plug-In . SVG Version: 6.00 Build 0)  -->
<!DOCTYPE svg PUBLIC "-//W3C//DTD SVG 1.1//EN" "http://www.w3.org/Graphics/SVG/1.1/DTD/svg11.dtd">
<svg version="1.1" id="Layer_1" xmlns="http://www.w3.org/2000/svg" xmlns:xlink="http://www.w3.org/1999/xlink" x="0px" y="0px"
	 width="2190.05px" height="368.5px" viewBox="0 0 2190.05 368.5" enable-background="new 0 0 2190.05 368.5" xml:space="preserve">
<path fill="#467CBF" d="M349.2,363.6L284.4,251.2h-77.1h-77.1L65.4,363.6c5.101,3.101,11.101,4.9,16.7,4.9h250.4
	C338.1,368.5,344.1,366.7,349.2,363.6z"/>
<path fill="#E83927" d="M284.4,251.2L349.2,363.6c4.6-2.699,8.5-6.399,11-10.699l50.3-86.7c2.5-4.3,3.899-9.601,4.1-15H284.4z"/>
<path fill="#F9BB00" d="M284.4,251.2H414.5c0.2-5.9-1-12-3.8-16.8L381.8,184.3L285,16.1c-2.8-4.8-7.3-9-12.4-11.9l-65.2,113.2
	L246,184.3L284.4,251.2z"/>
<path fill="#007C3C" d="M207.3,117.4L272.5,4.2c-4.7-2.6-9.9-4.2-14.9-4.2H157c-5,0-10.3,1.6-14.9,4.2L207.3,117.4z"/>
<path fill="#1EA74B" d="M207.3,117.4L142,4.2c-5.2,2.9-9.7,7.1-12.4,11.9L32.7,184.3L3.8,234.4c-2.8,4.8-4,10.8-3.8,16.8h130.1
	l38.601-66.9L207.3,117.4z"/>
<path fill="#1C63AF" d="M130.2,251.2H0c0.2,5.3,1.6,10.6,4.1,15l50.3,86.7c2.5,4.3,6.4,8,11,10.699L130.2,251.2z"/>
<g>
	<path fill="#6D6D6D" d="M757.939,181.635c0,30.232-8.971,54.319-26.907,72.254c-20.156,21.365-46.661,32.046-79.51,32.046
		c-31.441,0-58.046-10.884-79.813-32.65c-21.768-21.768-32.651-48.569-32.651-80.417c0-31.843,10.884-58.65,32.651-80.417
		c21.767-21.767,48.371-32.65,79.813-32.65c15.919,0,30.936,2.825,45.046,8.465c14.104,5.645,25.697,13.604,34.767,23.883
		l-19.953,19.953c-6.651-8.059-15.268-14.36-25.849-18.895c-10.581-4.535-21.918-6.802-34.011-6.802
		c-23.581,0-43.534,8.163-59.859,24.488c-16.127,16.528-24.186,37.186-24.186,61.976c0,24.791,8.059,45.452,24.186,61.976
		c16.325,16.325,36.278,24.487,59.859,24.487c21.563,0,39.5-6.046,53.813-18.139c14.309-12.093,22.57-28.721,24.791-49.883h-78.604
		v-26h104.905C757.433,170.955,757.939,176.396,757.939,181.635z"/>
	<path fill="#6D6D6D" d="M776.987,207.03c0-22.773,7.152-41.617,21.465-56.534c14.512-14.913,32.75-22.372,54.72-22.372
		c21.966,0,40.105,7.458,54.418,22.372c14.512,14.917,21.768,33.761,21.768,56.534c0,22.977-7.256,41.824-21.768,56.534
		c-14.313,14.917-32.452,22.371-54.418,22.371c-21.97,0-40.208-7.454-54.72-22.371C784.139,248.651,776.987,229.808,776.987,207.03z
		 M804.8,207.03c0,15.924,4.634,28.824,13.907,38.697c9.268,9.877,20.756,14.813,34.464,14.813c13.704,0,25.192-4.937,34.465-14.813
		c9.269-9.873,13.907-22.773,13.907-38.697c0-15.721-4.639-28.518-13.907-38.395c-9.476-10.076-20.964-15.116-34.465-15.116
		c-13.505,0-24.993,5.041-34.464,15.116C809.434,178.513,804.8,191.31,804.8,207.03z"/>
	<path fill="#6D6D6D" d="M946.285,207.03c0-22.773,7.152-41.617,21.465-56.534c14.512-14.913,32.75-22.372,54.72-22.372
		c21.966,0,40.105,7.458,54.418,22.372c14.512,14.917,21.768,33.761,21.768,56.534c0,22.977-7.256,41.824-21.768,56.534
		c-14.313,14.917-32.452,22.371-54.418,22.371c-21.97,0-40.208-7.454-54.72-22.371C953.438,248.651,946.285,229.808,946.285,207.03z
		 M974.099,207.03c0,15.924,4.634,28.824,13.907,38.697c9.268,9.877,20.756,14.813,34.464,14.813
		c13.704,0,25.192-4.937,34.465-14.813c9.269-9.873,13.907-22.773,13.907-38.697c0-15.721-4.639-28.518-13.907-38.395
		c-9.476-10.076-20.964-15.116-34.465-15.116c-13.505,0-24.993,5.041-34.464,15.116C978.733,178.513,974.099,191.31,974.099,207.03z
		"/>
	<path fill="#6D6D6D" d="M1189.653,351.237c-8.267,0-16.022-1.059-23.278-3.175s-13.859-5.092-19.802-8.918
		c-5.947-3.831-11.035-8.366-15.268-13.604c-4.232-5.243-7.459-11.087-9.674-17.535l26.302-10.883
		c3.023,8.663,8.262,15.616,15.721,20.859c7.454,5.239,16.122,7.86,25.999,7.86c15.116,0,26.907-4.534,35.372-13.604
		c8.465-9.069,12.697-21.568,12.697-37.487v-14.209h-1.209c-5.243,7.86-12.349,14.058-21.313,18.593
		c-8.971,4.534-18.697,6.802-29.175,6.802c-19.348,0-35.976-7.558-49.883-22.674c-13.708-15.518-20.558-34.262-20.558-56.231
		c0-21.966,6.85-40.61,20.558-55.93c13.907-15.314,30.535-22.976,49.883-22.976c10.478,0,20.204,2.267,29.175,6.802
		c8.965,4.535,16.07,10.732,21.313,18.592h1.209v-20.558h26.604V274.75c0,23.779-6.755,42.424-20.256,55.93
		C1230.363,344.383,1212.223,351.237,1189.653,351.237z M1190.56,260.541c13.704,0,24.89-4.937,33.558-14.813
		c9.069-9.873,13.604-22.773,13.604-38.697c0-15.518-4.535-28.314-13.604-38.395c-8.871-10.076-20.057-15.116-33.558-15.116
		c-13.302,0-24.488,5.041-33.558,15.116c-9.069,10.081-13.604,22.877-13.604,38.395c0,15.721,4.535,28.521,13.604,38.395
		C1166.072,255.505,1177.258,260.541,1190.56,260.541z"/>
	<path fill="#6D6D6D" d="M1325.995,64.637v216.462h-27.813V64.637H1325.995z"/>
	<path fill="#6D6D6D" d="M1424.857,285.936c-21.767,0-39.708-7.454-53.813-22.371c-14.109-14.913-21.162-33.757-21.162-56.534
		c0-22.57,6.85-41.366,20.558-56.383c13.704-15.012,31.238-22.522,52.604-22.522c21.965,0,39.452,7.104,52.452,21.313
		s19.5,34.115,19.5,59.708l-0.303,3.023h-116.394c0.401,14.511,5.239,26.202,14.512,35.068c9.268,8.872,20.354,13.303,33.255,13.303
		c17.733,0,31.641-8.867,41.721-26.604l24.79,12.093c-6.65,12.499-15.871,22.272-27.662,29.325
		C1453.124,282.407,1439.77,285.936,1424.857,285.936z M1380.415,189.193h84.952c-0.808-10.279-4.988-18.792-12.546-25.546
		c-7.558-6.75-17.686-10.128-30.383-10.128c-10.482,0-19.5,3.227-27.059,9.674C1387.823,169.646,1382.834,178.31,1380.415,189.193z"
		/>
	<path fill="#6D6D6D" d="M1559.955,64.637h62.883c16.931,0,32.146,2.674,45.65,8.012c13.501,5.343,24.941,12.75,34.313,22.221
		c9.372,9.476,16.524,20.86,21.465,34.162c4.937,13.302,7.407,27.917,7.407,43.836c0,15.924-2.471,30.535-7.407,43.836
		c-4.94,13.303-12.093,24.691-21.465,34.162c-9.372,9.477-20.813,16.883-34.313,22.221c-13.505,5.343-28.72,8.012-45.65,8.012
		h-62.883V64.637z M1622.838,262.657c13.501,0,25.745-2.013,36.732-6.047c10.982-4.029,20.354-9.872,28.115-17.534
		c7.757-7.657,13.756-17.029,17.988-28.116c4.232-11.082,6.349-23.779,6.349-38.092c0-14.105-2.116-26.755-6.349-37.941
		c-4.232-11.186-10.231-20.605-17.988-28.267c-7.761-7.657-17.133-13.5-28.115-17.535c-10.987-4.029-23.231-6.046-36.732-6.046
		h-43.534v179.579H1622.838z"/>
	<path fill="#6D6D6D" d="M1755.862,281.099V132.961H1774v26h1.209c1.408-4.431,3.676-8.512,6.803-12.244
		c3.122-3.727,6.651-6.953,10.581-9.674c3.931-2.721,8.059-4.885,12.396-6.5c4.331-1.611,8.512-2.418,12.546-2.418
		c4.634,0,8.465,0.349,11.488,1.048s5.942,1.861,8.768,3.486l-6.047,17.535c-4.034-2.013-9.575-3.023-16.627-3.023
		c-5.244,0-10.279,1.266-15.116,3.798c-4.837,2.532-9.07,6.023-12.697,10.478c-3.628,4.455-6.553,9.769-8.768,15.942
		c-2.221,6.179-3.326,12.911-3.326,20.194v83.517H1755.862z"/>
	<path fill="#6D6D6D" d="M1868.624,94.567c-4.232,0-7.813-1.46-10.731-4.384c-2.925-2.919-4.384-6.396-4.384-10.43
		c0-4.232,1.459-7.809,4.384-10.732c2.919-2.919,6.499-4.384,10.731-4.384c4.03,0,7.507,1.464,10.431,4.384
		c2.919,2.924,4.384,6.5,4.384,10.732c0,4.034-1.465,7.511-4.384,10.43C1876.131,93.107,1872.655,94.567,1868.624,94.567z
		 M1858.95,281.099V132.961h19.349v148.137H1858.95z"/>
	<path fill="#6D6D6D" d="M1899.459,132.961h20.558l50.487,126.37h0.605l50.789-126.37h20.256l-61.068,148.137h-21.163
		L1899.459,132.961z"/>
	<path fill="#6D6D6D" d="M2186.66,246.029c-2.622,5.442-5.947,10.581-9.977,15.419c-4.034,4.837-8.72,9.069-14.058,12.697
		c-5.343,3.628-11.441,6.5-18.291,8.616c-6.854,2.116-14.412,3.174-22.674,3.174c-10.686,0-20.558-1.965-29.628-5.896
		c-9.069-3.93-16.882-9.419-23.43-16.476c-6.552-7.053-11.639-15.367-15.267-24.942c-3.628-9.57-5.442-20.104-5.442-31.592
		c0-10.681,1.663-20.809,4.988-30.383c3.326-9.57,8.111-17.937,14.36-25.093c6.245-7.152,13.803-12.849,22.674-17.081
		c8.867-4.232,18.844-6.349,29.931-6.349c10.68,0,20.303,1.866,28.871,5.593c8.564,3.732,15.872,8.97,21.918,15.721
		c6.047,6.755,10.732,14.866,14.059,24.337c3.325,9.476,4.988,19.953,4.988,31.441c0,0.604,0,1.21,0,1.814
		c-0.203,0.604-0.303,1.109-0.303,1.512v1.813h-121.835c0.198,10.279,2.012,19.046,5.441,26.302c3.425,7.256,7.757,13.255,13,17.988
		c5.238,4.738,11.082,8.215,17.534,10.43c6.448,2.221,12.698,3.326,18.744,3.326c12.494,0,22.372-2.872,29.628-8.616
		c7.255-5.744,13.302-13.047,18.139-21.918L2186.66,246.029z M2169.428,194.03c-0.203-4.837-1.209-10.076-3.023-15.721
		c-1.813-5.64-4.639-10.884-8.465-15.721c-3.831-4.837-8.918-8.867-15.267-12.093c-6.35-3.222-14.162-4.837-23.431-4.837
		c-6.046,0-11.895,1.058-17.534,3.175c-5.645,2.116-10.732,5.191-15.268,9.221c-4.534,4.034-8.365,9.069-11.488,15.116
		c-3.127,6.046-5.191,13-6.197,20.86H2169.428z"/>
</g>
</svg>
