<?xml version="1.0" encoding="utf-8"?>
<!-- Generator: Adobe Illustrator 24.2.3, SVG Export Plug-In . SVG Version: 6.00 Build 0)  -->
<svg version="1.1" id="Layer_1" xmlns="http://www.w3.org/2000/svg" xmlns:xlink="http://www.w3.org/1999/xlink" x="0px" y="0px"
	 width="414.6px" height="368.5px" viewBox="0 0 414.6 368.5" style="enable-background:new 0 0 414.6 368.5;" xml:space="preserve"
	>
<style type="text/css">
	.st0{fill-rule:evenodd;clip-rule:evenodd;fill:#467CBF;}
	.st1{fill-rule:evenodd;clip-rule:evenodd;fill:#E83927;}
	.st2{fill-rule:evenodd;clip-rule:evenodd;fill:#F9BB00;}
	.st3{fill-rule:evenodd;clip-rule:evenodd;fill:#007C3C;}
	.st4{fill-rule:evenodd;clip-rule:evenodd;fill:#1EA74B;}
	.st5{fill-rule:evenodd;clip-rule:evenodd;fill:#1C63AF;}
</style>
<path class="st0" d="M349.2,363.6l-64.8-112.4h-77.1h-77.1L65.4,363.6c5.1,3.1,11.1,4.9,16.7,4.9l250.4,0
	C338.1,368.5,344.1,366.7,349.2,363.6z"/>
<path class="st1" d="M284.4,251.2l64.8,112.4c4.6-2.7,8.5-6.4,11-10.7l50.3-86.7c2.5-4.3,3.9-9.6,4.1-15H284.4z"/>
<path class="st2" d="M284.4,251.2h130.1c0.2-5.9-1-12-3.8-16.8l-28.9-50.1L285,16.1c-2.8-4.8-7.3-9-12.4-11.9l-65.2,113.2l38.6,66.9
	L284.4,251.2z"/>
<path class="st3" d="M207.3,117.4L272.5,4.2c-4.7-2.6-9.9-4.2-14.9-4.2H157c-5,0-10.3,1.6-14.9,4.2L207.3,117.4z"/>
<path class="st4" d="M207.3,117.4L142,4.2c-5.2,2.9-9.7,7.1-12.4,11.9L32.7,184.3L3.8,234.4c-2.8,4.8-4,10.8-3.8,16.8h130.1
	l38.6-66.9L207.3,117.4z"/>
<path class="st5" d="M130.2,251.2H0c0.2,5.3,1.6,10.6,4.1,15l50.3,86.7c2.5,4.3,6.4,8,11,10.7L130.2,251.2z"/>
</svg>
