<?xml version="1.0" encoding="utf-8"?>
<!-- Generator: Adobe Illustrator 16.0.0, SVG Export Plug-In . SVG Version: 6.00 Build 0)  -->
<!DOCTYPE svg PUBLIC "-//W3C//DTD SVG 1.1//EN" "http://www.w3.org/Graphics/SVG/1.1/DTD/svg11.dtd">
<svg version="1.1" id="Layer_1" xmlns="http://www.w3.org/2000/svg" xmlns:xlink="http://www.w3.org/1999/xlink" x="0px" y="0px"
	 width="1920px" height="1080px" viewBox="0 0 1920 1080" enable-background="new 0 0 1920 1080" xml:space="preserve">
<g>
	<path fill="#FFFFFF" d="M239.446,431.646h-38.087v55.272c-10.981-6.664-23.292-10.074-37.028-10.074
		c-20.106,0-37.25,7.128-51.457,21.384c-14.173,14.218-21.27,31.334-21.27,51.34c0,20.103,7.097,37.235,21.27,51.433
		c14.208,14.201,31.351,21.287,51.457,21.287c13.73,0,26.047-3.393,37.021-10.025v10.025h35.678v-0.401h2.417V431.646z
		 M190.523,577.508c-7.208,7.62-15.938,11.432-26.192,11.432c-10.268,0-19.005-3.812-26.227-11.432
		c-7.229-7.716-10.815-17.035-10.815-27.94c0-10.822,3.586-20.1,10.815-27.806c7.222-7.727,15.959-11.58,26.227-11.58
		c10.254,0,18.985,3.853,26.192,11.58c7.222,7.706,10.829,16.984,10.829,27.806C201.352,560.473,197.745,569.792,190.523,577.508z"
		/>
	<path fill="#FF6B00" d="M59.72,584.1c4.611,4.271,6.917,9.572,6.917,15.896c0,6.318-2.306,11.622-6.917,15.897
		c-4.618,4.269-10.6,6.407-17.953,6.407c-7.339,0-13.328-2.049-17.946-6.151c-4.611-4.099-6.924-9.232-6.924-15.384
		c0-6.665,2.313-12.18,6.924-16.534c4.618-4.362,10.607-6.543,17.946-6.543C49.12,577.689,55.102,579.824,59.72,584.1z
		 M61.769,558.457H21.771l-4.875-126.812h49.74L61.769,558.457z"/>
	<path fill="#FFFFFF" d="M398.063,564.616H293.722c1.869,8.544,6.314,15.298,13.321,20.255c7.007,4.961,15.73,7.434,26.158,7.434
		c7.173,0,13.543-1.063,19.096-3.203c5.553-2.136,10.732-5.518,15.509-10.129l21.284,23.073
		c-12.989,14.868-31.96,22.305-56.927,22.305c-15.551,0-29.301-3.025-41.266-9.101c-11.964-6.063-21.2-14.484-27.695-25.255
		c-6.495-10.763-9.742-22.987-9.742-36.657c0-13.509,3.206-25.684,9.617-36.537c6.411-10.856,15.211-19.317,26.407-25.386
		c11.188-6.065,23.721-9.102,37.561-9.102c13.501,0,25.722,2.905,36.661,8.717c10.939,5.809,19.525,14.142,25.771,25.001
		c6.245,10.856,9.361,23.454,9.361,37.813C398.838,554.356,398.575,557.948,398.063,564.616z M304.481,520.256
		c-6.148,5.134-9.915,12.141-11.279,21.027h67.943c-1.371-8.717-5.124-15.683-11.286-20.896c-6.148-5.213-13.667-7.82-22.558-7.82
		C318.246,512.567,310.636,515.132,304.481,520.256z"/>
	<path fill="#FFFFFF" d="M607.921,615.25c-11.542-6.063-20.563-14.484-27.058-25.255c-6.494-10.763-9.735-22.987-9.735-36.657
		c0-13.679,3.241-25.898,9.735-36.669c6.495-10.77,15.516-19.186,27.058-25.254c11.535-6.065,24.565-9.102,39.105-9.102
		c14.519,0,27.508,3.036,38.967,9.102c11.452,6.068,20.425,14.484,26.919,25.254c6.495,10.771,9.742,22.99,9.742,36.669
		c0,13.67-3.247,25.895-9.742,36.657c-6.495,10.771-15.468,19.192-26.919,25.255c-11.459,6.075-24.448,9.101-38.967,9.101
		C632.486,624.351,619.456,621.325,607.921,615.25z M672.27,581.151c6.578-6.921,9.874-16.191,9.874-27.813
		c0-11.625-3.296-20.9-9.874-27.82c-6.578-6.927-14.997-10.386-25.244-10.386c-10.261,0-18.722,3.459-25.396,10.386
		c-6.661,6.92-9.991,16.195-9.991,27.82c0,11.621,3.33,20.892,9.991,27.813c6.674,6.924,15.135,10.389,25.396,10.389
		C657.273,591.539,665.692,588.074,672.27,581.151z"/>
	<path fill="#FFFFFF" d="M557.724,549.983c0-0.063-0.014-0.124-0.014-0.187v-3.767h-0.166c-0.886-18.307-7.879-34.117-21.118-47.386
		c-14.193-14.256-31.323-21.388-51.422-21.388s-37.243,7.131-51.451,21.388c-14.173,14.221-21.27,31.33-21.27,51.339
		c0,20.1,7.097,37.24,21.27,51.43c14.208,14.204,31.351,21.291,51.451,21.291c13.729,0,26.054-3.393,37.021-10.025v10.025h35.685
		v-72.537C557.71,550.112,557.724,550.042,557.724,549.983z M511.196,577.924c-7.201,7.616-15.932,11.428-26.192,11.428
		c-10.268,0-19.006-3.812-26.228-11.428c-7.221-7.721-10.808-17.036-10.808-27.941c0-10.821,3.586-20.103,10.808-27.802
		c7.222-7.73,15.959-11.583,26.228-11.583c10.261,0,18.992,3.853,26.192,11.583c7.229,7.699,10.829,16.98,10.829,27.802
		C522.025,560.888,518.425,570.203,511.196,577.924z"/>
</g>
<g>
	<g>
		<path fill="#FFFFFF" d="M967.388,477.408l-62.715,144.879h-33.116l-62.5-144.879h36.218l44.083,103.489l44.707-103.489H967.388z"
			/>
		<path fill="#FFFFFF" d="M986.013,490.241c-3.726-3.448-5.587-7.727-5.587-12.833c0-5.103,1.861-9.382,5.587-12.83
			c3.725-3.448,8.558-5.175,14.484-5.175c5.934,0,10.767,1.654,14.491,4.968c3.725,3.31,5.588,7.45,5.588,12.417
			c0,5.383-1.863,9.832-5.588,13.349c-3.725,3.521-8.558,5.279-14.491,5.279C994.57,495.417,989.737,493.693,986.013,490.241z
			 M984.357,510.94h32.285v111.347h-32.285V510.94z"/>
		<path fill="#FFFFFF" d="M1062.174,620.53c-8.828-2.271-15.869-5.138-21.104-8.586l10.76-23.181
			c4.971,3.175,10.967,5.761,18.002,7.762c7.041,2.001,13.938,2.998,20.701,2.998c13.66,0,20.494-3.379,20.494-10.14
			c0-3.172-1.869-5.449-5.594-6.831c-3.725-1.378-9.451-2.551-17.178-3.517c-9.105-1.378-16.625-2.967-22.564-4.76
			c-5.928-1.794-11.064-4.969-15.412-9.524c-4.349-4.552-6.523-11.036-6.523-19.456c0-7.034,2.036-13.275,6.107-18.729
			c4.071-5.449,9.998-9.693,17.794-12.729c7.796-3.033,17.005-4.552,27.64-4.552c7.865,0,15.689,0.862,23.484,2.586
			c7.797,1.728,14.25,4.105,19.359,7.142l-10.766,22.974c-9.797-5.519-20.488-8.281-32.078-8.281c-6.91,0-12.075,0.97-15.523,2.897
			c-3.455,1.936-5.179,4.417-5.179,7.454c0,3.447,1.862,5.863,5.587,7.242c3.732,1.381,9.659,2.689,17.802,3.932
			c9.11,1.521,16.562,3.141,22.349,4.864c5.803,1.728,10.83,4.864,15.109,9.417c4.277,4.556,6.424,10.904,6.424,19.043
			c0,6.9-2.076,13.038-6.217,18.421c-4.141,5.38-10.178,9.555-18.105,12.521c-7.941,2.971-17.357,4.452-28.256,4.452
			C1080.044,623.949,1071.008,622.807,1062.174,620.53z"/>
		<path fill="#FFFFFF" d="M1279.08,510.94v111.347h-30.631v-13.241c-4.277,4.829-9.381,8.52-15.314,11.067
			c-5.934,2.555-12.352,3.836-19.248,3.836c-14.623,0-26.213-4.21-34.771-12.629c-8.557-8.412-12.836-20.902-12.836-37.461V510.94
			h32.291v58.16c0,17.939,7.52,26.905,22.559,26.905c7.727,0,13.938-2.517,18.625-7.554c4.693-5.037,7.041-12.521,7.041-22.457
			V510.94H1279.08z"/>
		<path fill="#FFFFFF" d="M1398.916,521.599c9.25,8.212,13.875,20.595,13.875,37.153v63.535h-30.221v-13.864
			c-6.072,10.348-17.387,15.526-33.947,15.526c-8.559,0-15.967-1.454-22.246-4.348c-6.279-2.895-11.072-6.9-14.381-12.006
			c-3.316-5.104-4.971-10.898-4.971-17.386c0-10.348,3.896-18.49,11.693-24.424c7.789-5.93,19.836-8.9,36.121-8.9h25.66
			c0-7.034-2.141-12.448-6.412-16.247c-4.279-3.794-10.697-5.69-19.248-5.69c-5.939,0-11.77,0.931-17.488,2.793
			c-5.734,1.863-10.594,4.383-14.596,7.553l-11.59-22.557c6.064-4.276,13.348-7.589,21.836-9.936
			c8.488-2.343,17.213-3.517,26.18-3.517C1376.428,509.285,1389.68,513.391,1398.916,521.599z M1371.395,598.387
			c4.271-2.552,7.313-6.314,9.105-11.282v-11.383h-22.143c-13.252,0-19.871,4.349-19.871,13.041c0,4.137,1.619,7.419,4.859,9.828
			c3.242,2.417,7.693,3.625,13.35,3.625C1362.221,602.216,1367.115,600.942,1371.395,598.387z"/>
		<path fill="#FFFFFF" d="M1447.146,468.716h32.279v153.572h-32.279V468.716z"/>
		<path fill="#FFFFFF" d="M1516.273,490.241c-3.725-3.448-5.594-7.727-5.594-12.833c0-5.103,1.869-9.382,5.594-12.83
			c3.725-3.448,8.551-5.175,14.484-5.175c5.928,0,10.76,1.654,14.484,4.968c3.727,3.31,5.596,7.45,5.596,12.417
			c0,5.383-1.869,9.832-5.596,13.349c-3.725,3.521-8.557,5.279-14.484,5.279C1524.824,495.417,1519.998,493.693,1516.273,490.241z
			 M1514.611,510.94h32.293v111.347h-32.293V510.94z"/>
		<path fill="#FFFFFF" d="M1673.775,597.455v24.832h-99.342v-19.452l56.705-67.06h-55.266V510.94h96.039v19.456l-56.711,67.06
			H1673.775z"/>
		<path fill="#FFFFFF" d="M1806.656,575.722h-84.234c1.51,6.903,5.096,12.353,10.76,16.351c5.648,4.006,12.691,6.003,21.109,6.003
			c5.795,0,10.934-0.862,15.42-2.586s8.654-4.452,12.518-8.177l17.186,18.628c-10.49,11.999-25.805,18.009-45.947,18.009
			c-12.559,0-23.672-2.451-33.33-7.35c-9.652-4.895-17.109-11.694-22.35-20.387c-5.248-8.693-7.865-18.556-7.865-29.6
			c0-10.897,2.59-20.729,7.762-29.491s12.275-15.592,21.318-20.491c9.035-4.895,19.143-7.346,30.324-7.346
			c10.898,0,20.758,2.347,29.594,7.034c8.834,4.694,15.758,11.421,20.799,20.18c5.039,8.766,7.561,18.939,7.561,30.53
			C1807.279,567.445,1807.07,570.342,1806.656,575.722z M1731.111,539.916c-4.965,4.141-8.004,9.797-9.105,16.97h54.85
			c-1.107-7.034-4.141-12.656-9.111-16.866c-4.971-4.206-11.037-6.314-18.209-6.314
			C1742.217,533.705,1736.074,535.776,1731.111,539.916z"/>
		<path fill="#FFFFFF" d="M1880.441,513.422c6.551-2.759,14.104-4.137,22.662-4.137v29.803c-3.586-0.277-5.996-0.416-7.242-0.416
			c-9.25,0-16.492,2.59-21.734,7.762c-5.24,5.175-7.865,12.937-7.865,23.284v52.568h-32.285V510.94h30.838v14.696
			C1868.678,520.252,1873.885,516.185,1880.441,513.422z"/>
	</g>
</g>
</svg>
