<?xml version="1.0" encoding="utf-8"?>
<!-- Generator: Adobe Illustrator 16.0.0, SVG Export Plug-In . SVG Version: 6.00 Build 0)  -->
<!DOCTYPE svg PUBLIC "-//W3C//DTD SVG 1.1//EN" "http://www.w3.org/Graphics/SVG/1.1/DTD/svg11.dtd">
<svg version="1.1" id="Layer_1" xmlns="http://www.w3.org/2000/svg" xmlns:xlink="http://www.w3.org/1999/xlink" x="0px" y="0px"
	 width="1920px" height="1080px" viewBox="0 0 1920 1080" enable-background="new 0 0 1920 1080" xml:space="preserve">
<g>
	<path fill="#FF6B00" d="M59.848,734.595c4.629,4.283,6.945,9.601,6.945,15.947c0,6.338-2.316,11.658-6.945,15.944
		c-4.629,4.283-10.627,6.432-18.005,6.432c-7.368,0-13.373-2.055-17.999-6.173c-4.632-4.112-6.948-9.261-6.948-15.434
		c0-6.684,2.316-12.217,6.948-16.585c4.626-4.376,10.631-6.563,17.999-6.563C49.22,728.163,55.219,730.306,59.848,734.595z
		 M61.909,708.873H21.783L16.896,581.66h49.897L61.909,708.873z"/>
	<g>
		<path fill="#FFFFFF" d="M240.145,581.66h-38.212v55.447C190.924,630.422,178.569,627,164.79,627
			c-20.171,0-37.368,7.152-51.618,21.453c-14.217,14.263-21.339,31.43-21.339,51.498c0,20.168,7.122,37.356,21.339,51.598
			c14.25,14.244,31.447,21.357,51.618,21.357c13.772,0,26.134-3.41,37.14-10.061v10.061h35.794v-0.403h2.421V581.66z
			 M191.068,727.983c-7.233,7.642-15.99,11.466-26.278,11.466c-10.3,0-19.065-3.824-26.311-11.466
			c-7.245-7.744-10.844-17.092-10.844-28.032c0-10.855,3.599-20.162,10.844-27.891c7.245-7.753,16.011-11.615,26.311-11.615
			c10.288,0,19.044,3.862,26.278,11.615c7.245,7.729,10.862,17.035,10.862,27.891C201.93,710.892,198.313,720.239,191.068,727.983z"
			/>
		<path fill="#FFFFFF" d="M399.261,715.049H294.586c1.881,8.573,6.338,15.347,13.37,20.318c7.029,4.977,15.773,7.458,26.236,7.458
			c7.197,0,13.586-1.066,19.162-3.214c5.566-2.142,10.76-5.533,15.557-10.159l21.349,23.145
			c-13.034,14.917-32.061,22.379-57.104,22.379c-15.599,0-29.401-3.04-41.405-9.132c-12.003-6.083-21.261-14.532-27.773-25.334
			c-6.519-10.799-9.774-23.061-9.774-36.776c0-13.548,3.211-25.765,9.642-36.649c6.431-10.89,15.263-19.379,26.494-25.467
			c11.225-6.083,23.79-9.129,37.68-9.129c13.544,0,25.8,2.914,36.779,8.744c10.967,5.827,19.582,14.188,25.845,25.079
			s9.39,23.528,9.39,37.936C400.033,704.758,399.778,708.362,399.261,715.049z M305.385,670.55
			c-6.173,5.148-9.945,12.178-11.315,21.093h68.151c-1.373-8.744-5.137-15.73-11.313-20.961c-6.173-5.229-13.719-7.846-22.631-7.846
			C319.188,662.836,311.558,665.41,305.385,670.55z"/>
		<path fill="#FFFFFF" d="M609.776,765.844c-11.577-6.083-20.622-14.532-27.137-25.334c-6.519-10.799-9.774-23.061-9.774-36.776
			c0-13.719,3.256-25.978,9.774-36.782c6.515-10.805,15.56-19.246,27.137-25.334c11.571-6.083,24.646-9.129,39.227-9.129
			c14.569,0,27.596,3.046,39.089,9.129c11.49,6.088,20.489,14.529,27.011,25.334c6.512,10.805,9.769,23.063,9.769,36.782
			c0,13.716-3.256,25.978-9.769,36.776c-6.521,10.802-15.521,19.251-27.011,25.334c-11.493,6.092-24.52,9.132-39.089,9.132
			C634.423,774.976,621.347,771.936,609.776,765.844z M674.335,731.636c6.596-6.941,9.9-16.241,9.9-27.902s-3.304-20.964-9.9-27.905
			c-6.608-6.948-15.049-10.418-25.332-10.418c-10.288,0-18.78,3.47-25.469,10.418c-6.684,6.941-10.027,16.244-10.027,27.905
			s3.344,20.961,10.027,27.902c6.689,6.945,15.181,10.421,25.469,10.421C659.286,742.057,667.727,738.581,674.335,731.636z"/>
		<path fill="#FFFFFF" d="M559.42,700.369c0-0.063-0.012-0.123-0.012-0.187v-3.778h-0.171c-0.88-18.363-7.903-34.227-21.177-47.536
			c-14.235-14.302-31.423-21.454-51.585-21.454c-20.168,0-37.365,7.152-51.618,21.454c-14.214,14.265-21.336,31.429-21.336,51.501
			c0,20.165,7.122,37.355,21.336,51.594c14.253,14.247,31.45,21.36,51.618,21.36c13.772,0,26.133-3.412,37.137-10.063v10.063h35.796
			v-72.771C559.408,700.498,559.42,700.429,559.42,700.369z M512.749,728.397c-7.224,7.642-15.983,11.466-26.274,11.466
			c-10.297,0-19.063-3.824-26.311-11.466c-7.242-7.743-10.844-17.089-10.844-28.028c0-10.855,3.602-20.165,10.844-27.891
			c7.248-7.753,16.013-11.619,26.311-11.619c10.291,0,19.05,3.866,26.274,11.619c7.251,7.726,10.862,17.035,10.862,27.891
			C523.611,711.309,520,720.654,512.749,728.397z"/>
		<g>
			<path fill="#FFFFFF" d="M777.935,765.48c-11.667-6.041-20.787-14.434-27.341-25.166c-6.566-10.736-9.84-22.91-9.84-36.551
				c0-13.623,3.274-25.801,9.84-36.536c6.555-10.732,15.674-19.119,27.341-25.166c11.673-6.05,24.824-9.071,39.482-9.071
				c14.479,0,27.131,3.021,37.944,9.071c10.814,6.047,18.702,14.688,23.634,25.938l-30.916,16.604
				c-7.155-12.606-17.464-18.912-30.921-18.912c-10.394,0-18.99,3.409-25.809,10.222c-6.819,6.819-10.219,16.102-10.219,27.85
				c0,11.76,3.4,21.048,10.219,27.86c6.819,6.815,15.416,10.219,25.809,10.219c13.631,0,23.928-6.302,30.921-18.909l30.916,16.863
				c-4.932,10.907-12.82,19.427-23.634,25.561c-10.813,6.131-23.466,9.194-37.944,9.194
				C802.758,774.552,789.607,771.533,777.935,765.48z"/>
			<path fill="#FFFFFF" d="M1276.734,648.189c10.129,10.138,15.205,25.344,15.205,45.613v78.707h-39.866v-72.57
				c0-10.898-2.253-19.041-6.771-24.403c-4.513-5.371-10.946-8.048-19.297-8.048c-9.366,0-16.773,3.022-22.229,9.069
				c-5.449,6.044-8.177,15.037-8.177,26.953v68.999h-39.861v-72.57c0-21.634-8.687-32.451-26.067-32.451
				c-9.197,0-16.521,3.022-21.976,9.069c-5.449,6.044-8.171,15.037-8.171,26.953v68.999h-39.866v-137.48h38.076v15.842
				c5.106-5.785,11.366-10.219,18.774-13.285c7.419-3.07,15.548-4.596,24.409-4.596c9.708,0,18.485,1.913,26.325,5.749
				c7.828,3.827,14.137,9.408,18.9,16.737c5.623-7.161,12.742-12.697,21.339-16.617c8.604-3.917,18.018-5.869,28.236-5.869
				C1252.926,632.99,1266.6,638.061,1276.734,648.189z"/>
		</g>
		<path fill="#FFFFFF" d="M1038.944,700.369c0-0.063-0.012-0.123-0.012-0.187v-3.778h-0.169
			c-0.883-18.363-7.906-34.227-21.177-47.536c-14.238-14.302-31.426-21.454-51.588-21.454c-20.168,0-37.362,7.152-51.618,21.454
			c-14.214,14.265-21.333,31.429-21.333,51.501c0,20.165,7.119,37.355,21.333,51.594c14.256,14.247,31.45,21.36,51.618,21.36
			c13.775,0,26.134-3.412,37.14-10.063v10.063h35.794v-72.771C1038.933,700.498,1038.944,700.429,1038.944,700.369z
			 M992.276,728.397c-7.228,7.642-15.986,11.466-26.277,11.466c-10.297,0-19.063-3.824-26.308-11.466
			c-7.245-7.743-10.844-17.089-10.844-28.028c0-10.855,3.599-20.165,10.844-27.891c7.245-7.753,16.01-11.619,26.308-11.619
			c10.291,0,19.05,3.866,26.277,11.619c7.251,7.726,10.862,17.035,10.862,27.891C1003.139,711.309,999.527,720.654,992.276,728.397z
			"/>
	</g>
</g>
</svg>
