<?xml version="1.0" encoding="utf-8"?>
<!-- Generator: Adobe Illustrator 16.0.0, SVG Export Plug-In . SVG Version: 6.00 Build 0)  -->
<!DOCTYPE svg PUBLIC "-//W3C//DTD SVG 1.1//EN" "http://www.w3.org/Graphics/SVG/1.1/DTD/svg11.dtd">
<svg version="1.1" id="Layer_1" xmlns="http://www.w3.org/2000/svg" xmlns:xlink="http://www.w3.org/1999/xlink" x="0px" y="0px"
	 width="1920px" height="1080px" viewBox="0 0 1920 1080" enable-background="new 0 0 1920 1080" xml:space="preserve">
<g>
	<path fill="#FFFFFF" d="M656.987,264.576h-93.455v135.621c-26.944-16.352-57.15-24.719-90.856-24.719
		c-49.335,0-91.399,17.489-126.26,52.47c-34.776,34.887-52.189,76.883-52.189,125.972c0,49.327,17.413,91.365,52.189,126.201
		c34.86,34.844,76.925,52.24,126.26,52.24c33.688,0,63.912-8.342,90.839-24.608v24.608h87.543v-0.985h5.93V264.576z
		 M536.944,622.478c-17.686,18.696-39.108,28.049-64.269,28.049c-25.194,0-46.634-9.353-64.354-28.049
		c-17.736-18.934-26.536-41.801-26.536-68.558c0-26.554,8.8-49.318,26.536-68.227c17.72-18.96,39.159-28.414,64.354-28.414
		c25.16,0,46.583,9.454,64.269,28.414c17.72,18.908,26.57,41.673,26.57,68.227C563.515,580.677,554.664,603.544,536.944,622.478z"/>
	<path fill="#FF6B00" d="M215.993,638.652c11.314,10.481,16.972,23.486,16.972,39.006c0,15.502-5.657,28.516-16.972,39.006
		c-11.332,10.474-26.01,15.732-44.052,15.732c-18.009,0-32.704-5.029-44.035-15.104c-11.314-10.058-16.989-22.654-16.989-37.749
		c0-16.352,5.675-29.883,16.989-40.569c11.331-10.702,26.026-16.054,44.035-16.054C189.983,622.92,204.661,628.16,215.993,638.652z
		 M221.021,575.734h-98.144l-11.961-311.157h122.048L221.021,575.734z"/>
	<path fill="#FFFFFF" d="M1046.183,590.845H790.162c4.587,20.964,15.493,37.537,32.687,49.7
		c17.192,12.173,38.598,18.238,64.184,18.238c17.6,0,33.229-2.608,46.854-7.857c13.625-5.241,26.333-13.54,38.055-24.854
		l52.224,56.614c-31.871,36.483-78.42,54.738-139.682,54.738c-38.156,0-71.896-7.433-101.253-22.34
		c-29.356-14.874-52.02-35.541-67.955-61.967c-15.936-26.409-23.903-56.402-23.903-89.947c0-33.145,7.866-63.02,23.598-89.649
		c15.731-26.639,37.324-47.398,64.795-62.289c27.454-14.883,58.204-22.332,92.164-22.332c33.128,0,63.113,7.127,89.956,21.389
		c26.842,14.254,47.908,34.7,63.231,61.347c15.324,26.639,22.969,57.55,22.969,92.784
		C1048.085,565.667,1047.439,574.485,1046.183,590.845z M816.563,481.998c-15.086,12.597-24.328,29.79-27.675,51.595h166.711
		c-3.364-21.389-12.572-38.479-27.691-51.272c-15.087-12.792-33.536-19.188-55.35-19.188
		C850.336,463.132,831.665,469.426,816.563,481.998z"/>
	<path fill="#FFFFFF" d="M1561.111,715.084c-28.319-14.874-50.456-35.541-66.392-61.967c-15.936-26.409-23.886-56.402-23.886-89.947
		c0-33.562,7.95-63.546,23.886-89.973c15.936-26.426,38.072-47.075,66.392-61.966c28.304-14.883,60.277-22.332,95.953-22.332
		c35.625,0,67.496,7.449,95.613,22.332c28.1,14.891,50.115,35.54,66.051,61.966c15.936,26.427,23.904,56.411,23.904,89.973
		c0,33.545-7.969,63.538-23.904,89.947c-15.936,26.426-37.951,47.093-66.051,61.967c-28.117,14.907-59.988,22.34-95.613,22.34
		C1621.389,737.424,1589.415,729.991,1561.111,715.084z M1719.006,631.414c16.139-16.98,24.225-39.729,24.225-68.244
		c0-28.524-8.086-51.28-24.225-68.261c-16.141-16.997-36.799-25.483-61.941-25.483c-25.178,0-45.938,8.486-62.314,25.483
		c-16.344,16.98-24.516,39.736-24.516,68.261c0,28.516,8.172,51.264,24.516,68.244c16.377,16.988,37.137,25.491,62.314,25.491
		C1682.207,656.906,1702.865,648.403,1719.006,631.414z"/>
	<path fill="#FFFFFF" d="M1437.943,554.94c0-0.153-0.034-0.307-0.034-0.459v-9.242h-0.407
		c-2.175-44.918-19.334-83.712-51.816-116.271c-34.826-34.98-76.856-52.479-126.175-52.479s-91.383,17.498-126.244,52.479
		c-34.775,34.895-52.189,76.874-52.189,125.972c0,49.318,17.414,91.374,52.189,126.192c34.861,34.853,76.926,52.249,126.244,52.249
		c33.688,0,63.929-8.342,90.839-24.608v24.608h87.56V555.39C1437.909,555.253,1437.943,555.083,1437.943,554.94z M1323.779,623.497
		c-17.669,18.688-39.092,28.04-64.269,28.04c-25.194,0-46.635-9.353-64.354-28.04c-17.72-18.942-26.52-41.801-26.52-68.558
		c0-26.554,8.8-49.327,26.52-68.219c17.719-18.968,39.159-28.422,64.354-28.422c25.177,0,46.6,9.454,64.269,28.422
		c17.735,18.892,26.57,41.665,26.57,68.219C1350.35,581.697,1341.515,604.555,1323.779,623.497z"/>
</g>
</svg>
