<?xml version="1.0" encoding="utf-8"?>
<!-- Generator: Adobe Illustrator 16.0.0, SVG Export Plug-In . SVG Version: 6.00 Build 0)  -->
<!DOCTYPE svg PUBLIC "-//W3C//DTD SVG 1.1//EN" "http://www.w3.org/Graphics/SVG/1.1/DTD/svg11.dtd">
<svg version="1.1" id="圖層_1" xmlns="http://www.w3.org/2000/svg" xmlns:xlink="http://www.w3.org/1999/xlink" x="0px" y="0px"
	 width="230.848px" height="35px" viewBox="0 0 230.848 35" enable-background="new 0 0 230.848 35" xml:space="preserve">
<g>
	<path fill="#ED6A1B" d="M7.776,27.689c0.838,0.775,1.257,1.737,1.257,2.887c0,1.147-0.419,2.11-1.257,2.887
		c-0.838,0.775-1.924,1.165-3.26,1.165c-1.334,0-2.421-0.373-3.259-1.118C0.419,32.766,0,31.833,0,30.716
		c0-1.211,0.419-2.212,1.258-3.003c0.838-0.792,1.925-1.188,3.259-1.188C5.853,26.524,6.938,26.912,7.776,27.689z M8.15,23.032
		H0.885L0,0h9.034L8.15,23.032z"/>
	<g>
		<path fill="#FFFFFF" d="M40.42,0h-6.918v10.039c-1.994-1.21-4.23-1.83-6.725-1.83c-3.652,0-6.766,1.295-9.346,3.884
			c-2.574,2.583-3.864,5.69-3.864,9.324c0,3.651,1.29,6.763,3.864,9.342c2.58,2.579,5.694,3.866,9.346,3.866
			c2.492,0,4.73-0.617,6.723-1.821v1.821h6.48v-0.072h0.439V0z M31.535,26.492c-1.311,1.384-2.896,2.075-4.758,2.075
			c-1.865,0-3.453-0.691-4.764-2.075c-1.313-1.402-1.964-3.095-1.964-5.075c0-1.966,0.651-3.65,1.964-5.05
			c1.311-1.404,2.898-2.103,4.764-2.103c1.861,0,3.447,0.699,4.758,2.103c1.311,1.399,1.965,3.084,1.965,5.05
			C33.5,23.397,32.846,25.09,31.535,26.492z"/>
		<path fill="#FFFFFF" d="M69.229,24.15H50.275c0.342,1.552,1.148,2.778,2.422,3.679c1.271,0.9,2.855,1.35,4.75,1.35
			c1.303,0,2.459-0.192,3.469-0.582c1.008-0.388,1.947-1.001,2.816-1.839l3.865,4.19C65.238,33.649,61.793,35,57.26,35
			c-2.824,0-5.324-0.551-7.496-1.653c-2.174-1.102-3.85-2.631-5.029-4.587c-1.18-1.955-1.77-4.175-1.77-6.658
			c0-2.453,0.582-4.665,1.746-6.635c1.164-1.972,2.764-3.509,4.797-4.611c2.031-1.102,4.307-1.653,6.822-1.653
			c2.451,0,4.67,0.527,6.658,1.583c1.986,1.055,3.545,2.569,4.68,4.541c1.133,1.972,1.699,4.26,1.699,6.868
			C69.367,22.287,69.32,22.939,69.229,24.15z M52.23,16.094c-1.117,0.932-1.799,2.205-2.047,3.818h12.338
			c-0.248-1.583-0.93-2.848-2.049-3.795c-1.117-0.946-2.482-1.42-4.098-1.42C54.73,14.697,53.35,15.163,52.23,16.094z"/>
		<path fill="#FFFFFF" d="M107.342,33.347c-2.096-1.102-3.734-2.631-4.914-4.587c-1.18-1.955-1.77-4.175-1.77-6.658
			s0.59-4.703,1.77-6.659c1.18-1.957,2.818-3.485,4.914-4.587c2.094-1.102,4.461-1.653,7.102-1.653c2.639,0,4.996,0.551,7.078,1.653
			c2.08,1.102,3.709,2.63,4.889,4.587c1.18,1.956,1.77,4.176,1.77,6.659s-0.59,4.703-1.77,6.658
			c-1.18,1.956-2.809,3.485-4.889,4.587c-2.082,1.103-4.439,1.653-7.078,1.653S109.436,34.449,107.342,33.347z M119.029,27.153
			c1.195-1.257,1.793-2.94,1.793-5.052s-0.598-3.796-1.793-5.052c-1.195-1.258-2.725-1.887-4.586-1.887
			c-1.863,0-3.4,0.629-4.611,1.887c-1.209,1.256-1.814,2.94-1.814,5.052s0.605,3.795,1.814,5.052
			c1.211,1.257,2.748,1.887,4.611,1.887C116.305,29.04,117.834,28.41,119.029,27.153z"/>
		<path fill="#FFFFFF" d="M98.225,21.492c0-0.011-0.002-0.022-0.002-0.033v-0.685h-0.031c-0.16-3.324-1.432-6.197-3.834-8.606
			c-2.578-2.589-5.689-3.884-9.34-3.884s-6.766,1.295-9.346,3.884c-2.572,2.583-3.863,5.69-3.863,9.324
			c0,3.651,1.291,6.764,3.863,9.342c2.58,2.579,5.695,3.866,9.346,3.866c2.494,0,4.732-0.617,6.725-1.821V34.7h6.48V21.525
			C98.223,21.516,98.225,21.503,98.225,21.492z M89.775,26.566c-1.309,1.384-2.895,2.076-4.758,2.076s-3.451-0.692-4.764-2.076
			c-1.311-1.401-1.963-3.094-1.963-5.074c0-1.965,0.652-3.65,1.963-5.05c1.313-1.403,2.898-2.104,4.764-2.104
			c1.863,0,3.449,0.7,4.758,2.104c1.313,1.399,1.967,3.085,1.967,5.05C91.742,23.473,91.088,25.165,89.775,26.566z"/>
		<g>
			<path fill="#FFFFFF" d="M137.787,33.28c-2.113-1.094-3.764-2.612-4.951-4.556c-1.188-1.944-1.781-4.148-1.781-6.618
				c0-2.466,0.594-4.671,1.781-6.614s2.838-3.462,4.951-4.557c2.113-1.095,4.494-1.642,7.148-1.642c2.621,0,4.912,0.547,6.869,1.642
				c1.959,1.095,3.387,2.659,4.279,4.696l-5.598,3.006c-1.295-2.282-3.162-3.424-5.598-3.424c-1.883,0-3.439,0.617-4.674,1.851
				c-1.234,1.234-1.85,2.915-1.85,5.042c0,2.13,0.615,3.812,1.85,5.044c1.234,1.234,2.791,1.851,4.674,1.851
				c2.467,0,4.332-1.141,5.598-3.424l5.598,3.054c-0.893,1.975-2.32,3.517-4.279,4.628c-1.957,1.109-4.248,1.664-6.869,1.664
				C142.281,34.923,139.9,34.377,137.787,33.28z"/>
			<path fill="#FFFFFF" d="M228.094,12.045c1.834,1.835,2.754,4.589,2.754,8.259v14.25h-7.219v-13.14
				c0-1.973-0.406-3.447-1.225-4.418c-0.818-0.973-1.982-1.457-3.494-1.457c-1.695,0-3.037,0.548-4.025,1.643
				c-0.986,1.094-1.48,2.722-1.48,4.88v12.492h-7.217v-13.14c0-3.916-1.572-5.875-4.719-5.875c-1.666,0-2.99,0.548-3.979,1.643
				c-0.986,1.094-1.479,2.722-1.479,4.88v12.492h-7.219V9.663h6.895v2.868c0.924-1.047,2.057-1.85,3.398-2.405
				c1.344-0.556,2.814-0.832,4.42-0.832c1.756,0,3.346,0.346,4.766,1.041c1.416,0.693,2.559,1.704,3.422,3.03
				c1.018-1.296,2.307-2.299,3.863-3.008c1.557-0.709,3.262-1.063,5.111-1.063C223.783,9.293,226.26,10.211,228.094,12.045z"/>
		</g>
		<path fill="#FFFFFF" d="M185.043,21.492c0-0.011-0.002-0.022-0.002-0.033v-0.685h-0.031c-0.16-3.324-1.432-6.197-3.834-8.606
			c-2.578-2.589-5.689-3.884-9.34-3.884c-3.652,0-6.764,1.295-9.346,3.884c-2.574,2.583-3.861,5.69-3.861,9.324
			c0,3.651,1.287,6.764,3.861,9.342c2.582,2.579,5.693,3.866,9.346,3.866c2.494,0,4.73-0.617,6.725-1.821V34.7h6.48V21.525
			C185.041,21.516,185.043,21.503,185.043,21.492z M176.594,26.566c-1.309,1.384-2.895,2.076-4.758,2.076s-3.451-0.692-4.764-2.076
			c-1.311-1.401-1.963-3.094-1.963-5.074c0-1.965,0.652-3.65,1.963-5.05c1.313-1.403,2.898-2.104,4.764-2.104
			c1.863,0,3.449,0.7,4.758,2.104c1.313,1.399,1.967,3.085,1.967,5.05C178.561,23.473,177.906,25.165,176.594,26.566z"/>
	</g>
</g>
</svg>
