<?xml version="1.0" encoding="utf-8"?>
<!-- Generator: Adobe Illustrator 16.0.0, SVG Export Plug-In . SVG Version: 6.00 Build 0)  -->
<!DOCTYPE svg PUBLIC "-//W3C//DTD SVG 1.1//EN" "http://www.w3.org/Graphics/SVG/1.1/DTD/svg11.dtd">
<svg version="1.1" id="圖層_1" xmlns="http://www.w3.org/2000/svg" xmlns:xlink="http://www.w3.org/1999/xlink" x="0px" y="0px"
	 width="60px" height="60px" viewBox="0 0 60 60" enable-background="new 0 0 60 60" xml:space="preserve">
<g>
	<path fill="#FF6B00" d="M23.41,21.408c-0.225-0.225-0.59-0.225-0.814,0l-1.469,1.469v-5.111c0-0.318-0.258-0.576-0.576-0.576
		c-0.318,0-0.576,0.258-0.576,0.576v5.04l-1.398-1.397c-0.225-0.225-0.59-0.225-0.815,0c-0.225,0.225-0.225,0.59,0,0.815
		l2.299,2.299c0.066,0.106,0.166,0.202,0.285,0.247c0.076,0.034,0.157,0.064,0.238,0.064c0,0,0.001,0,0.001,0c0,0,0,0,0.001,0
		c0.147,0,0.295-0.068,0.407-0.181c0.007-0.007,0.013-0.021,0.019-0.027l2.396-2.399C23.635,22.001,23.635,21.633,23.41,21.408z"/>
	<path fill="#FF6B00" d="M15.25,27.215c0.212,0,0.346,0.134,0.346,0.346v13.674c0,0.212-0.134,0.423-0.346,0.423H1.575
		c-0.212,0-0.422-0.211-0.422-0.423V27.561c0-0.212,0.21-0.346,0.422-0.346h13.637 M15.25,26.063H1.575
		C0.726,26.063,0,26.712,0,27.561v13.674c0,0.849,0.726,1.575,1.575,1.575H15.25c0.849,0,1.498-0.727,1.498-1.575V27.561
		C16.748,26.712,16.098,26.063,15.25,26.063L15.25,26.063z"/>
	<path fill="#808080" d="M39.757,27.215c0.212,0,0.346,0.134,0.346,0.346v13.674c0,0.212-0.134,0.423-0.346,0.423H26.082
		c-0.212,0-0.423-0.211-0.423-0.423V27.561c0-0.212,0.211-0.346,0.423-0.346h13.637 M39.757,26.063H26.082
		c-0.849,0-1.575,0.65-1.575,1.499v13.674c0,0.849,0.727,1.575,1.575,1.575h13.675c0.849,0,1.498-0.727,1.498-1.575V27.561
		C41.255,26.712,40.605,26.063,39.757,26.063L39.757,26.063z"/>
	<path fill="#808080" d="M58.502,27.215c0.212,0,0.346,0.134,0.346,0.346v13.674c0,0.212-0.134,0.423-0.346,0.423H44.827
		c-0.212,0-0.423-0.211-0.423-0.423V27.561c0-0.212,0.211-0.346,0.423-0.346h13.637 M58.502,26.063H44.827
		c-0.849,0-1.575,0.65-1.575,1.499v13.674c0,0.849,0.727,1.575,1.575,1.575h13.675c0.849,0,1.498-0.727,1.498-1.575V27.561
		C60,26.712,59.351,26.063,58.502,26.063L58.502,26.063z"/>
</g>
</svg>
