<?xml version="1.0" encoding="utf-8"?>
<!-- Generator: Adobe Illustrator 16.0.0, SVG Export Plug-In . SVG Version: 6.00 Build 0)  -->
<!DOCTYPE svg PUBLIC "-//W3C//DTD SVG 1.1//EN" "http://www.w3.org/Graphics/SVG/1.1/DTD/svg11.dtd">
<svg version="1.1" id="圖層_1" xmlns="http://www.w3.org/2000/svg" xmlns:xlink="http://www.w3.org/1999/xlink" x="0px" y="0px"
	 width="50px" height="50px" viewBox="0 0 50 50" enable-background="new 0 0 50 50" xml:space="preserve">
<g>
	<g>
		<circle fill="#040000" cx="8.2" cy="12.06" r="3.2"/>
		<path fill="#040000" d="M41.8,8.86H18.601c-1.768,0-3.2,1.433-3.2,3.2c0,1.768,1.433,3.201,3.2,3.201H41.8
			c1.769,0,3.2-1.433,3.2-3.201S43.566,8.86,41.8,8.86z"/>
	</g>
	<g>
		<circle fill="#040000" cx="8.2" cy="25" r="3.2"/>
		<path fill="#040000" d="M41.8,21.8H18.601c-1.768,0-3.2,1.433-3.2,3.2c0,1.767,1.433,3.2,3.2,3.2H41.8c1.769,0,3.2-1.434,3.2-3.2
			C45,23.233,43.566,21.8,41.8,21.8z"/>
	</g>
	<g>
		<circle fill="#040000" cx="8.2" cy="37.94" r="3.2"/>
		<path fill="#040000" d="M41.8,34.74H18.601c-1.768,0-3.2,1.434-3.2,3.201c0,1.766,1.433,3.199,3.2,3.199H41.8
			c1.769,0,3.2-1.435,3.2-3.199C45,36.174,43.566,34.74,41.8,34.74z"/>
	</g>
</g>
</svg>
