<?xml version="1.0" encoding="utf-8"?>
<!-- Generator: Adobe Illustrator 16.0.0, SVG Export Plug-In . SVG Version: 6.00 Build 0)  -->
<!DOCTYPE svg PUBLIC "-//W3C//DTD SVG 1.1//EN" "http://www.w3.org/Graphics/SVG/1.1/DTD/svg11.dtd">
<svg version="1.1" id="Layer_1" xmlns="http://www.w3.org/2000/svg" xmlns:xlink="http://www.w3.org/1999/xlink" x="0px" y="0px"
	 width="1920px" height="1080px" viewBox="0 0 1920 1080" enable-background="new 0 0 1920 1080" xml:space="preserve">
<g>
	<g>
		<circle cx="540" cy="203.5" r="80"/>
		<path d="M1380,123.5H800c-44.184,0-80,35.815-80,80c0,44.183,35.816,80,80,80h580c44.183,0,80-35.817,80-80
			C1460,159.317,1424.183,123.5,1380,123.5z"/>
	</g>
	<g>
		<circle cx="540" cy="527" r="80"/>
		<path d="M1380,447H800c-44.184,0-80,35.815-80,80c0,44.183,35.816,80,80,80h580c44.183,0,80-35.817,80-80
			C1460,482.817,1424.183,447,1380,447z"/>
	</g>
	<g>
		<circle cx="540" cy="850.5" r="80"/>
		<path d="M1380,770.5H800c-44.184,0-80,35.815-80,80c0,44.183,35.816,80,80,80h580c44.183,0,80-35.817,80-80
			C1460,806.317,1424.183,770.5,1380,770.5z"/>
	</g>
</g>
</svg>
