<svg xmlns="http://www.w3.org/2000/svg" width="31.001" height="45.796" viewBox="0 0 31.001 45.796"><defs><style>.a{fill:#fff;stroke:#fff;}</style></defs><g transform="translate(-489.143 -147.41)"><g transform="translate(482.143 151.201)"><g transform="translate(7.5 -3.291)"><path class="a" d="M661.764,489.115a.8.8,0,0,0-.809.784,17.417,17.417,0,0,1-1.771,6.754c-2.238,4.424-6.133,6.666-11.578,6.666-5.39,0-9.288-2.23-11.582-6.626a17.8,17.8,0,0,1-1.884-6.808.8.8,0,0,0-1.591.049,19.173,19.173,0,0,0,2.037,7.444c1.715,3.313,5.219,7.239,12.225,7.515v7.118h-7.558a.8.8,0,0,0,0,1.591h16.575a.8.8,0,1,0,0-1.591H648.4v-7.117c7.051-.276,10.522-4.206,12.2-7.523a18.9,18.9,0,0,0,1.945-7.446A.8.8,0,0,0,661.764,489.115Z" transform="translate(-632.548 -468.807)"/><path class="a" d="M760.722,59.848h1.061a9.294,9.294,0,0,0,9.283-9.283V38.189a9.337,9.337,0,0,0-9.283-9.371h-1.061a9.34,9.34,0,0,0-9.283,9.354V50.565A9.294,9.294,0,0,0,760.722,59.848Zm8.454-9.059c-.5,4.326-3.39,6.844-7.491,6.844h-.864a7.29,7.29,0,0,1-7.488-6.844l0-12.875c.548-4.421,3.7-7.115,7.485-7.115h.864c3.784,0,6.927,2.724,7.482,7.115Z" transform="translate(-746.194 -28.818)"/></g></g></g></svg>