<?xml version="1.0" encoding="utf-8"?>
<!-- Generator: Adobe Illustrator 16.0.0, SVG Export Plug-In . SVG Version: 6.00 Build 0)  -->
<!DOCTYPE svg PUBLIC "-//W3C//DTD SVG 1.1//EN" "http://www.w3.org/Graphics/SVG/1.1/DTD/svg11.dtd">
<svg version="1.1" id="圖層_1" xmlns="http://www.w3.org/2000/svg" xmlns:xlink="http://www.w3.org/1999/xlink" x="0px" y="0px"
	 width="45px" height="45px" viewBox="0 0 45 45" enable-background="new 0 0 45 45" xml:space="preserve">
<g>
	<path fill="#070001" d="M34.14,20.581c-0.463,0-0.847,0.378-0.856,0.845c0,0.027-0.054,2.731-1.429,5.445
		c-1.796,3.552-4.929,5.353-9.307,5.353c-4.336,0-7.469-1.79-9.312-5.321c-1.408-2.694-1.521-5.461-1.521-5.492
		c-0.017-0.465-0.395-0.83-0.883-0.83l0,0C10.36,20.596,9.987,20.992,10,21.464c0.004,0.127,0.118,3.145,1.693,6.189
		c1.398,2.701,4.266,5.964,9.998,6.261v5.435H15.7c-0.472,0-0.856,0.384-0.856,0.856c0,0.474,0.384,0.858,0.856,0.858h13.585
		c0.474,0,0.859-0.385,0.859-0.858c0-0.473-0.386-0.856-0.859-0.856h-5.88v-5.434c5.768-0.295,8.608-3.563,9.979-6.27
		c1.538-3.037,1.613-6.064,1.616-6.192C35.006,20.979,34.627,20.588,34.14,20.581z"/>
	<path fill="#070001" d="M22.112,29.779h0.869c4.31,0,7.814-3.505,7.814-7.814V11.821c0-4.348-3.505-7.886-7.814-7.886h-0.869
		c-4.301,0-7.806,3.531-7.814,7.872v10.158C14.298,26.274,17.803,29.779,22.112,29.779z M16.262,22.148l0.001-10.527
		c0.418-3.381,2.802-5.652,5.931-5.652h0.708c3.12,0,5.503,2.271,5.928,5.626l0.01,10.53c-0.393,3.4-2.612,5.429-5.938,5.429h-0.708
		C18.989,27.554,16.661,25.423,16.262,22.148z"/>
</g>
</svg>
