<?xml version="1.0" encoding="utf-8"?>
<!-- Generator: Adobe Illustrator 16.0.0, SVG Export Plug-In . SVG Version: 6.00 Build 0)  -->
<!DOCTYPE svg PUBLIC "-//W3C//DTD SVG 1.1//EN" "http://www.w3.org/Graphics/SVG/1.1/DTD/svg11.dtd">
<svg version="1.1" id="Layer_1" xmlns="http://www.w3.org/2000/svg" xmlns:xlink="http://www.w3.org/1999/xlink" x="0px" y="0px"
	 width="1920px" height="1080px" viewBox="0 0 1920 1080" enable-background="new 0 0 1920 1080" xml:space="preserve">
<g>
	<g>
		<path fill="#FFFFFF" d="M1293.174,488.578c-9.902-0.203-18.121,7.744-18.309,17.697c0,0.75-1.686,77.053-40.023,152.76
			c-50.643,100.025-138.721,150.752-261.838,150.752c-121.891,0-210.037-50.438-261.938-149.85
			c-39.582-75.775-42.611-153.186-42.611-153.951c-0.34-9.938-8.576-17.646-18.531-17.408c-9.953,0.307-17.748,8.594-17.441,18.531
			c0.102,3.455,3.113,85.357,46.047,168.33c38.799,74.908,118.029,163.684,276.488,169.947v160.979H784.084
			c-9.938,0-17.986,8.064-17.986,17.986c0,9.938,8.049,17.986,17.986,17.986h374.828c9.938,0,18.004-8.049,18.004-17.986
			c0-9.922-8.066-17.986-18.004-17.986h-167.92V845.403c159.463-6.244,237.961-95.123,275.926-170.115
			c42.064-83.043,43.887-164.979,43.955-168.416C1311.025,496.934,1303.113,488.733,1293.174,488.578z"/>
		<path fill="#FFFFFF" d="M961.008,731.033h23.994c115.748,0,209.918-94.17,209.918-209.918V241.223
			c0-116.854-94.17-211.908-209.918-211.908h-23.994c-115.611,0-209.715,94.867-209.918,211.518v280.283
			C751.09,636.864,845.26,731.033,961.008,731.033z M1152.191,526.153c-11.248,97.846-76.66,154.783-169.402,154.783h-19.553
			c-86.291,0-157.184-54.98-169.316-154.783l0.051-291.141c12.406-99.973,83.654-160.91,169.266-160.91h19.553
			c85.561,0,156.639,61.602,169.18,160.91L1152.191,526.153z"/>
	</g>
	<path fill="#FFFFFF" d="M551.482,971.514c-5.582,0-11.146-2.127-15.4-6.381c-8.508-8.508-8.508-22.293,0-30.801l816.992-816.973
		c8.508-8.51,22.291-8.51,30.799,0c8.51,8.508,8.51,22.291,0,30.799l-816.99,816.975
		C562.629,969.387,557.064,971.514,551.482,971.514z"/>
</g>
</svg>
