<?xml version="1.0" encoding="utf-8"?>
<!-- Generator: Adobe Illustrator 16.0.0, SVG Export Plug-In . SVG Version: 6.00 Build 0)  -->
<!DOCTYPE svg PUBLIC "-//W3C//DTD SVG 1.1//EN" "http://www.w3.org/Graphics/SVG/1.1/DTD/svg11.dtd">
<svg version="1.1" id="Layer_1" xmlns="http://www.w3.org/2000/svg" xmlns:xlink="http://www.w3.org/1999/xlink" x="0px" y="0px"
	 width="1920px" height="1080px" viewBox="0 0 1920 1080" enable-background="new 0 0 1920 1080" xml:space="preserve">
<g>
	<path fill="#FFFFFF" d="M1294.763,489.119c-9.907-0.179-18.145,7.79-18.342,17.768c0,0.736-1.687,77.208-40.13,153.087
		c-50.735,100.269-139.016,151.094-262.418,151.094c-122.165,0-210.518-50.538-262.528-150.179
		c-39.679-75.951-42.713-153.536-42.713-154.308c-0.358-9.96-8.596-17.677-18.575-17.462c-9.978,0.323-17.785,8.615-17.498,18.575
		c0.107,3.464,3.159,85.571,46.177,168.718c38.873,75.091,118.288,164.071,277.1,170.335v161.342H784.515
		c-9.96,0-18.037,8.094-18.037,18.036c0,9.961,8.076,18.037,18.037,18.037h375.681c9.962,0,18.055-8.076,18.055-18.037
		c0-9.942-8.093-18.036-18.055-18.036H991.909V846.765c159.816-6.246,238.496-95.334,276.543-170.514
		c42.14-83.202,44.007-165.327,44.078-168.772C1312.674,497.518,1304.74,489.281,1294.763,489.119z"/>
	<path fill="#FFFFFF" d="M961.849,732.138h24.049c116.008,0,210.408-94.4,210.408-210.409v-280.51
		c0-117.14-94.4-212.401-210.408-212.401h-24.049c-115.866,0-210.195,95.1-210.41,212.024v280.887
		C751.439,637.738,845.839,732.138,961.849,732.138z M1153.467,526.808c-11.288,98.062-76.83,155.133-169.795,155.133h-19.58
		c-86.504,0-157.557-55.115-169.725-155.133l0.072-291.834c12.419-100.197,83.848-161.271,169.652-161.271h19.58
		c85.768,0,156.999,61.737,169.598,161.271L1153.467,526.808z"/>
</g>
</svg>
