<?xml version="1.0" encoding="utf-8"?>
<!-- Generator: Adobe Illustrator 16.0.0, SVG Export Plug-In . SVG Version: 6.00 Build 0)  -->
<!DOCTYPE svg PUBLIC "-//W3C//DTD SVG 1.1//EN" "http://www.w3.org/Graphics/SVG/1.1/DTD/svg11.dtd">
<svg version="1.1" id="圖層_1" xmlns="http://www.w3.org/2000/svg" xmlns:xlink="http://www.w3.org/1999/xlink" x="0px" y="0px"
	 width="80px" height="80px" viewBox="0 0 80 80" enable-background="new 0 0 80 80" xml:space="preserve">
<g>
	<path fill="#070001" d="M54.201,37.66c-0.564,0-1.032,0.461-1.044,1.031c0,0.033-0.066,3.332-1.743,6.643
		c-2.192,4.333-6.013,6.53-11.355,6.53c-5.29,0-9.112-2.185-11.36-6.492c-1.718-3.287-1.855-6.663-1.856-6.7
		c-0.021-0.567-0.481-1.012-1.077-1.012h0c-0.576,0.018-1.031,0.501-1.015,1.077c0.005,0.155,0.144,3.836,2.066,7.551
		c1.706,3.296,5.204,7.276,12.197,7.639v6.63h-7.309c-0.576,0-1.045,0.469-1.045,1.045c0,0.577,0.469,1.046,1.045,1.046h16.575
		c0.577,0,1.047-0.469,1.047-1.046c0-0.576-0.47-1.045-1.047-1.045h-7.175v-6.629c7.037-0.36,10.503-4.347,12.174-7.648
		c1.877-3.707,1.969-7.399,1.972-7.556C55.258,38.146,54.796,37.669,54.201,37.66z"/>
	<path fill="#070001" d="M39.528,48.882h1.061c5.257,0,9.533-4.276,9.533-9.533V26.973c0-5.305-4.276-9.621-9.533-9.621h-1.061
		c-5.247,0-9.523,4.308-9.533,9.604v12.393C29.995,44.605,34.271,48.882,39.528,48.882z M32.39,39.572l0.001-12.844
		c0.511-4.125,3.419-6.896,7.236-6.896h0.864c3.806,0,6.713,2.771,7.232,6.865l0.011,12.846c-0.478,4.148-3.186,6.624-7.243,6.624
		h-0.864C35.718,46.167,32.877,43.566,32.39,39.572z"/>
</g>
</svg>
