<?xml version="1.0" encoding="utf-8"?>
<!-- Generator: Adobe Illustrator 16.0.0, SVG Export Plug-In . SVG Version: 6.00 Build 0)  -->
<!DOCTYPE svg PUBLIC "-//W3C//DTD SVG 1.1//EN" "http://www.w3.org/Graphics/SVG/1.1/DTD/svg11.dtd">
<svg version="1.1" id="圖層_1" xmlns="http://www.w3.org/2000/svg" xmlns:xlink="http://www.w3.org/1999/xlink" x="0px" y="0px"
	 width="80px" height="80px" viewBox="0 0 80 80" enable-background="new 0 0 80 80" xml:space="preserve">
<path d="M40.045,48.762h1.059c5.191,0,9.412-4.223,9.412-9.411v-8.06l8.295-8.294c0.432-0.433,0.432-1.136,0-1.568
	c-0.42-0.419-1.148-0.419-1.568,0l-6.727,6.726V27c0-5.238-4.221-9.5-9.412-9.5h-1.059c-5.18,0-9.402,4.254-9.412,9.483v12.368
	c0,2.315,0.857,4.537,2.414,6.272l-2.236,2.237c-0.66-0.769-1.205-1.572-1.664-2.452c-1.736-3.324-1.863-6.693-1.863-6.729
	c-0.018-0.512-0.432-0.911-0.969-0.911h-0.002c-0.25,0.007-0.484,0.11-0.656,0.293c-0.174,0.183-0.266,0.423-0.258,0.678
	c0.016,0.39,0.197,3.911,2.049,7.492c0.564,1.088,1.244,2.087,2.021,2.972l-8.281,8.279c-0.43,0.432-0.43,1.136,0,1.569
	c0.416,0.415,1.148,0.417,1.57,0l8.307-8.31c2.303,1.873,5.186,2.902,8.568,3.062v6.814h-7.396c-0.518,0-0.941,0.422-0.941,0.94
	c0,0.52,0.424,0.941,0.941,0.941h16.543c0.52,0,0.941-0.422,0.941-0.941c0-0.519-0.422-0.94-0.941-0.94h-7.262v-6.814
	c7.039-0.326,10.496-4.296,12.16-7.582c1.861-3.677,1.953-7.342,1.955-7.497c0.008-0.52-0.408-0.949-0.945-0.957
	c-0.508,0-0.93,0.416-0.939,0.928c0,0.033-0.086,3.391-1.75,6.676c-2.209,4.36-6.053,6.571-11.424,6.571
	c-3.283,0-6.033-0.852-8.176-2.534l2.316-2.314C36.293,48.186,38.133,48.762,40.045,48.762z M48.326,30.344L34.707,43.965
	c-1.023-1.137-1.676-2.657-1.889-4.391l0.002-12.831c0.518-4.17,3.461-6.972,7.322-6.972h0.863c3.852,0,6.793,2.802,7.318,6.954
	L48.326,30.344z M36.457,45.351L48.33,33.479l0.004,6.078c-0.48,4.194-3.221,6.698-7.328,6.698h-0.863
	C38.807,46.255,37.535,45.942,36.457,45.351z"/>
</svg>
