<?xml version="1.0" encoding="utf-8"?>
<!-- Generator: Adobe Illustrator 16.0.0, SVG Export Plug-In . SVG Version: 6.00 Build 0)  -->
<!DOCTYPE svg PUBLIC "-//W3C//DTD SVG 1.1//EN" "http://www.w3.org/Graphics/SVG/1.1/DTD/svg11.dtd">
<svg version="1.1" id="Layer_1" xmlns="http://www.w3.org/2000/svg" xmlns:xlink="http://www.w3.org/1999/xlink" x="0px" y="0px"
	 width="1920px" height="1080px" viewBox="0 0 1920 1080" enable-background="new 0 0 1920 1080" xml:space="preserve">
<g>
	<g>
		<rect x="919.5" y="148.5" width="45" height="31"/>
		<path d="M964.5,813.5h-45v-63h45V813.5z M964.5,686.5h-45v-63h45V686.5z M964.5,559.5h-45v-63h45V559.5z M964.5,432.5h-45v-64h45
			V432.5z M964.5,305.5h-45v-63h45V305.5z"/>
		<rect x="919.5" y="870.5" width="45" height="31"/>
	</g>
	<path d="M571.593,284.347L739.5,329.023v349.589l-168,44.966V284.5 M518.5,215.021v577.517l274-73.323v-430.78L518.5,215.021
		L518.5,215.021z"/>
	<path d="M1315.406,723.432L1147.5,678.535v-349.59l168-44.966V723.5 M1368.5,792.537V215.021l-274,73.323v430.78L1368.5,792.537
		L1368.5,792.537z"/>
</g>
</svg>
