<?xml version="1.0" encoding="utf-8"?>
<!-- Generator: Adobe Illustrator 16.0.0, SVG Export Plug-In . SVG Version: 6.00 Build 0)  -->
<!DOCTYPE svg PUBLIC "-//W3C//DTD SVG 1.1//EN" "http://www.w3.org/Graphics/SVG/1.1/DTD/svg11.dtd">
<svg version="1.1" id="圖層_1" xmlns="http://www.w3.org/2000/svg" xmlns:xlink="http://www.w3.org/1999/xlink" x="0px" y="0px"
	 width="45px" height="45px" viewBox="0 0 45 45" enable-background="new 0 0 45 45" xml:space="preserve">
<g>
	<g>
		<rect x="21.371" y="4.783" width="2.118" height="1.458"/>
		<path d="M23.489,36.075h-2.118v-2.964h2.118V36.075z M23.489,30.099h-2.118v-2.964h2.118V30.099z M23.489,24.122h-2.118v-2.961
			h2.118V24.122z M23.489,18.148h-2.118v-3.012h2.118V18.148z M23.489,12.172h-2.118V9.208h2.118V12.172z"/>
		<rect x="21.371" y="38.761" width="2.118" height="1.456"/>
	</g>
	<path d="M4.998,11.177l7.902,2.102V29.73l-7.907,2.116V11.182 M2.5,7.914v27.179l12.895-3.452V11.368L2.5,7.914L2.5,7.914z"/>
	<path d="M40.002,31.839l-7.903-2.113V13.274l7.908-2.115v20.683 M42.5,35.093V7.914l-12.895,3.45v20.272L42.5,35.093L42.5,35.093z"
		/>
</g>
</svg>
