<?xml version="1.0" encoding="utf-8"?>
<!-- Generator: Adobe Illustrator 16.0.0, SVG Export Plug-In . SVG Version: 6.00 Build 0)  -->
<!DOCTYPE svg PUBLIC "-//W3C//DTD SVG 1.1//EN" "http://www.w3.org/Graphics/SVG/1.1/DTD/svg11.dtd">
<svg version="1.1" id="Layer_1" xmlns="http://www.w3.org/2000/svg" xmlns:xlink="http://www.w3.org/1999/xlink" x="0px" y="0px"
	 width="1920px" height="1080px" viewBox="0 0 1920 1080" enable-background="new 0 0 1920 1080" xml:space="preserve">
<g>
	<g>
		<rect x="1339.5" y="500.5" width="28" height="42"/>
		<path d="M1286.5,542.5h-52v-42h52V542.5z M1182.5,542.5h-53v-42h53V542.5z M1077.5,542.5h-53v-42h53V542.5z M972.5,542.5h-53v-42
			h53V542.5z M867.5,542.5h-53v-42h53V542.5z M762.5,542.5h-52v-42h52V542.5z M657.5,542.5h-52v-42h52V542.5z"/>
		<rect x="517.5" y="500.5" width="28" height="42"/>
	</g>
	<path d="M1146.854,239.454L1108.692,365.5H778.284l-38.47-126H1146.5 M1213.5,189.5H672.815l68.74,226h403.851l68.094-226.482
		V189.5z"/>
	<path d="M1108.425,675.43l38.784,126.07H739.814l38.47-126H1108.5 M1145.406,626.5H741.556l-68.74,225h541.417L1145.406,626.5
		L1145.406,626.5z"/>
</g>
</svg>
