<?xml version="1.0" encoding="utf-8"?>
<!-- Generator: Adobe Illustrator 16.0.0, SVG Export Plug-In . SVG Version: 6.00 Build 0)  -->
<!DOCTYPE svg PUBLIC "-//W3C//DTD SVG 1.1//EN" "http://www.w3.org/Graphics/SVG/1.1/DTD/svg11.dtd">
<svg version="1.1" id="圖層_1" xmlns="http://www.w3.org/2000/svg" xmlns:xlink="http://www.w3.org/1999/xlink" x="0px" y="0px"
	 width="45px" height="45px" viewBox="0 0 45 45" enable-background="new 0 0 45 45" xml:space="preserve">
<path fill="#040000" d="M38.822,5.789H16.777c-0.653,0-1.183,0.529-1.183,1.183v20.742c-1.116-0.924-2.549-1.473-4.107-1.473
	c-3.574,0-6.486,2.907-6.486,6.485c0,3.574,2.912,6.485,6.486,6.485c1.735,0,3.362-0.67,4.58-1.895
	c1.22-1.224,1.893-2.846,1.893-4.58V16.838h19.677v10.88c-1.119-0.928-2.554-1.478-4.114-1.478c-3.584,0-6.491,2.907-6.491,6.485
	c0,3.574,2.907,6.485,6.491,6.485c3.57,0,6.479-2.904,6.479-6.475V6.971C40.002,6.317,39.473,5.789,38.822,5.789z M11.488,36.846
	c-2.273,0-4.121-1.851-4.121-4.12c0-2.279,1.848-4.125,4.121-4.125c2.266,0,4.107,1.853,4.107,4.136
	C15.595,35.001,13.754,36.846,11.488,36.846z M17.96,14.476V8.153h19.677v6.323H17.96z M33.522,36.846
	c-2.278,0-4.13-1.851-4.13-4.12c0-2.279,1.852-4.125,4.13-4.125c2.266,0,4.114,1.853,4.114,4.136
	C37.637,35.001,35.788,36.846,33.522,36.846z"/>
</svg>
