<?xml version="1.0" encoding="utf-8"?>
<!-- Generator: Adobe Illustrator 16.0.0, SVG Export Plug-In . SVG Version: 6.00 Build 0)  -->
<!DOCTYPE svg PUBLIC "-//W3C//DTD SVG 1.1//EN" "http://www.w3.org/Graphics/SVG/1.1/DTD/svg11.dtd">
<svg version="1.1" id="圖層_1" xmlns="http://www.w3.org/2000/svg" xmlns:xlink="http://www.w3.org/1999/xlink" x="0px" y="0px"
	 width="45px" height="45px" viewBox="0 0 45 45" enable-background="new 0 0 45 45" xml:space="preserve">
<g>
	<path d="M31.08,13.401c-0.483-0.483-1.267-0.483-1.75,0l-6.937,6.937l-4.351-4.352c-0.484-0.483-1.268-0.483-1.751,0
		c-0.483,0.484-0.483,1.268,0,1.751l5.226,5.226c0.242,0.242,0.559,0.363,0.876,0.363s0.634-0.121,0.875-0.363l7.812-7.811
		C31.563,14.668,31.563,13.885,31.08,13.401z"/>
	<path d="M39.186,25.086c0-0.607-0.479-1.121-1.086-1.121h-9.848c-0.607,0-1.047,0.514-1.047,1.121v8.221
		c-0.451-0.146-0.823-0.229-1.257-0.229c-1.907,0-3.474,1.553-3.474,3.461S24.021,40,25.929,40c1.903,0,3.471-1.551,3.471-3.455
		c0-0.131-0.005-0.26-0.005-0.387v-6.074h7.601v3.24c-0.45-0.158-0.824-0.246-1.275-0.246c-1.908,0-3.46,1.553-3.46,3.461
		S33.813,40,35.721,40c1.907,0,3.459-1.553,3.459-3.457c0-0.006,0-0.018,0-0.018h0.006V25.086L39.186,25.086z M25.922,37.799
		c-0.694,0-1.26-0.564-1.26-1.26s0.592-1.26,1.286-1.26c0.611,0,1.128,0.445,1.257,1.029v0.217h-0.031c0,0,0,0.012,0,0.018
		C27.174,37.234,26.612,37.799,25.922,37.799z M29.396,27.83v-1.676h7.6v1.676H29.396z M35.722,37.799
		c-0.694,0-1.26-0.564-1.26-1.26s0.565-1.26,1.26-1.26c0.693,0,1.258,0.568,1.258,1.266C36.979,37.236,36.415,37.799,35.722,37.799z
		"/>
	<g>
		<path d="M34.51,9.975C31.302,6.767,27.037,5,22.5,5s-8.802,1.767-12.01,4.975c-3.208,3.208-4.975,7.473-4.975,12.01
			s1.791,8.801,4.999,12.01c2.786,2.785,6.32,4.484,10.249,4.883v-2.383C13.486,35.617,7.9,29.443,7.9,21.984
			c0-8.061,6.549-14.619,14.609-14.619s14.614,6.572,14.614,14.633c0,0.006-0.007,0.035-0.007,0.035h2.367c0,0,0-0.029,0-0.035
			C39.484,17.461,37.718,13.182,34.51,9.975z"/>
	</g>
</g>
</svg>
