<?xml version="1.0" encoding="utf-8"?>
<!-- Generator: Adobe Illustrator 16.0.0, SVG Export Plug-In . SVG Version: 6.00 Build 0)  -->
<!DOCTYPE svg PUBLIC "-//W3C//DTD SVG 1.1//EN" "http://www.w3.org/Graphics/SVG/1.1/DTD/svg11.dtd">
<svg version="1.1" id="圖層_1" xmlns="http://www.w3.org/2000/svg" xmlns:xlink="http://www.w3.org/1999/xlink" x="0px" y="0px"
	 width="25px" height="25px" viewBox="0 0 25 25" enable-background="new 0 0 25 25" xml:space="preserve">
<g>
	<path d="M7.766,7.007c1.27-1.085,2.917-1.714,4.717-1.714c4.009,0,7.259,3.254,7.273,7.276H16.99l4.005,3.933L25,12.569h-2.805
		c-0.015-5.297-4.357-9.715-9.713-9.715c-2.473,0-4.729,0.917-6.443,2.444L7.766,7.007z"/>
	<path d="M17.235,17.968c-1.27,1.085-2.917,1.74-4.718,1.74c-4.008,0-7.258-3.256-7.273-7.25h2.767L4.006,8.525L0,12.458h2.806
		c0.015,5.353,4.357,9.688,9.712,9.688c2.474,0,4.729-0.931,6.444-2.457L17.235,17.968z"/>
</g>
</svg>
