<?xml version="1.0" encoding="utf-8"?>
<!-- Generator: Adobe Illustrator 16.0.0, SVG Export Plug-In . SVG Version: 6.00 Build 0)  -->
<!DOCTYPE svg PUBLIC "-//W3C//DTD SVG 1.1//EN" "http://www.w3.org/Graphics/SVG/1.1/DTD/svg11.dtd">
<svg version="1.1" id="Capa_1" xmlns="http://www.w3.org/2000/svg" xmlns:xlink="http://www.w3.org/1999/xlink" x="0px" y="0px"
	 width="841.89px" height="595.281px" viewBox="0 0 841.89 595.281" enable-background="new 0 0 841.89 595.281"
	 xml:space="preserve">
<path fill="none" stroke="#FFFFFF" stroke-width="35" stroke-miterlimit="10" d="M629.5,331"/>
<path d="M668.499,21.14h-373c-11.046,0-20.054,9.312-20.054,20.357v351.071c-19-15.643-43.097-25.048-69.453-25.048
	c-60.534,0-109.768,49.248-109.768,109.781c0,60.534,49.254,109.782,109.789,109.782c29.323,0,56.818-11.389,77.464-32.068
	c20.63-20.664,31.968-48.194,31.968-77.519V208.14h333v184.493c-19-15.682-43.227-25.112-69.672-25.112
	c-60.533,0-109.769,49.248-109.769,109.781c0,60.534,49.229,109.782,109.763,109.782c60.488,0,109.678-49.16,109.678-109.587v-436
	C688.445,30.452,679.545,21.14,668.499,21.14z M206.02,547.085c-38.478,0-69.782-31.304-69.782-69.782
	c0-38.478,31.304-69.781,69.782-69.781c38.311,0,69.479,31.392,69.479,69.977C275.499,515.868,244.331,547.085,206.02,547.085z
	 M315.445,168.14v-107h333v107H315.445z M578.8,547.085c-38.478,0-69.782-31.304-69.782-69.782
	c0-38.478,31.305-69.781,69.782-69.781c38.433,0,69.698,31.392,69.698,69.977C648.499,515.868,617.233,547.085,578.8,547.085z"/>
</svg>
