<?xml version="1.0" encoding="utf-8"?>
<!-- Generator: Adobe Illustrator 16.0.0, SVG Export Plug-In . SVG Version: 6.00 Build 0)  -->
<!DOCTYPE svg PUBLIC "-//W3C//DTD SVG 1.1//EN" "http://www.w3.org/Graphics/SVG/1.1/DTD/svg11.dtd">
<svg version="1.1" id="Capa_1" xmlns="http://www.w3.org/2000/svg" xmlns:xlink="http://www.w3.org/1999/xlink" x="0px" y="0px"
	 width="841.89px" height="595.281px" viewBox="0 0 841.89 595.281" enable-background="new 0 0 841.89 595.281"
	 xml:space="preserve">
<path d="M583.61,162.13c-7.504-7.505-19.672-7.505-27.178,0L448.739,269.824l-67.55-67.551c-7.505-7.505-19.672-7.505-27.178,0
	c-7.504,7.505-7.504,19.673,0,27.178l81.14,81.14c3.754,3.753,8.672,5.629,13.589,5.629c4.919,0,9.838-1.876,13.589-5.629
	L583.61,189.308C591.116,181.803,591.116,169.635,583.61,162.13z"/>
<path d="M709.445,343.551c0-9.435-7.425-17.41-16.859-17.41H539.702c-9.434,0-16.257,7.976-16.257,17.41v127.626
	c-7-2.28-12.784-3.541-19.51-3.541c-29.623,0-53.932,24.101-53.932,53.726c0,29.624,23.998,53.726,53.621,53.726
	c29.557,0,53.883-24.064,53.883-53.646c0-2.028-0.063-4.026-0.063-5.997V421.14h118v50.317c-7-2.457-12.801-3.822-19.806-3.822
	c-29.624,0-53.71,24.101-53.71,53.726c0,29.624,24.107,53.726,53.732,53.726c29.605,0,53.695-24.097,53.695-53.677
	c0-0.08-0.003-0.27-0.003-0.27h0.091V343.551z M503.523,540.923c-10.787,0-19.563-8.776-19.563-19.562s9.189-19.562,19.975-19.562
	c9.484,0,17.51,6.902,19.51,15.995v3.346h-0.49c0.002,0,0.006,0.189,0.006,0.27C522.96,532.15,514.241,540.923,503.523,540.923z
	 M557.445,386.14v-26h118v26H557.445z M655.668,540.923c-10.786,0-19.562-8.776-19.562-19.562s8.775-19.562,19.562-19.562
	c10.767,0,19.527,8.812,19.527,19.642C675.196,532.182,666.435,540.923,655.668,540.923z"/>
<g>
	<path d="M636.853,108.928c-49.804-49.805-116.022-77.234-186.457-77.234c-70.436,0-136.655,27.429-186.459,77.234
		s-77.233,116.024-77.233,186.458c0,70.435,27.808,136.654,77.612,186.458c43.25,43.249,98.13,69.613,159.13,75.807v-36.976
		c-113-13.642-199.713-109.467-199.713-225.29c0-125.149,101.666-226.965,226.815-226.965c125.148,0,226.89,102.026,226.89,227.175
		c0,0.112-0.096,0.545-0.097,0.545h36.742c0,0,0.003-0.433,0.003-0.545C714.084,225.162,686.658,158.733,636.853,108.928z"/>
</g>
</svg>
