<?xml version="1.0" encoding="utf-8"?>
<!-- Generator: Adobe Illustrator 16.0.0, SVG Export Plug-In . SVG Version: 6.00 Build 0)  -->
<!DOCTYPE svg PUBLIC "-//W3C//DTD SVG 1.1//EN" "http://www.w3.org/Graphics/SVG/1.1/DTD/svg11.dtd">
<svg version="1.1" id="Capa_1" xmlns="http://www.w3.org/2000/svg" xmlns:xlink="http://www.w3.org/1999/xlink" x="0px" y="0px"
	 width="486.547px" height="486.547px" viewBox="0 0 486.547 486.547" enable-background="new 0 0 486.547 486.547"
	 xml:space="preserve">
<g>
	<path d="M408.979,418.106c-3.845,0-7.688-1.467-10.622-4.398L78.399,93.75c-5.866-5.867-5.866-15.377,0-21.244
		c5.866-5.866,15.378-5.866,21.244,0l319.958,319.957c5.867,5.867,5.867,15.378,0,21.244
		C416.669,416.64,412.824,418.106,408.979,418.106z"/>
	<path d="M348.439,286.653V91.721c0-6.193-2.267-11.555-6.787-16.083c-4.535-4.517-9.892-6.787-16.084-6.787
		c-6.199,0-11.562,2.264-16.084,6.787l-104.91,67.151L348.439,286.653z"/>
	<path d="M101.803,151.802h-4.932c-6.2,0-11.561,2.265-16.083,6.787c-4.53,4.528-6.788,9.883-6.788,16.076v137.217
		c0,6.199,2.264,11.562,6.787,16.083c4.522,4.529,9.884,6.787,16.083,6.787h93.624l118.998,76.157
		c4.521,4.527,9.883,6.786,16.083,6.786c6.191,0,11.549-2.266,16.077-6.786c3.683-3.684,5.843-7.936,6.527-12.731L101.803,151.802z"
		/>
</g>
</svg>
