<?xml version="1.0" encoding="utf-8"?>
<!-- Generator: Adobe Illustrator 16.0.0, SVG Export Plug-In . SVG Version: 6.00 Build 0)  -->
<!DOCTYPE svg PUBLIC "-//W3C//DTD SVG 1.1//EN" "http://www.w3.org/Graphics/SVG/1.1/DTD/svg11.dtd">
<svg version="1.1" id="圖層_1" xmlns="http://www.w3.org/2000/svg" xmlns:xlink="http://www.w3.org/1999/xlink" x="0px" y="0px"
	 width="35px" height="60px" viewBox="0 0 35 60" enable-background="new 0 0 35 60" xml:space="preserve">
<path d="M1.737,6.242L25.495,30L1.737,53.758c-1.428,1.428-1.428,3.743,0,5.171c1.428,1.429,3.744,1.428,5.172,0l26.117-26.118
	c0.081-0.068,0.16-0.138,0.236-0.214c0.718-0.717,1.073-1.657,1.07-2.597c0.003-0.939-0.354-1.879-1.07-2.596
	c-0.076-0.076-0.155-0.146-0.236-0.214L6.909,1.071C6.194,0.357,5.259,0,4.323,0S2.45,0.357,1.737,1.071
	C0.31,2.499,0.31,4.814,1.737,6.242z"/>
</svg>
