<?xml version="1.0" encoding="utf-8"?>
<!-- Generator: Adobe Illustrator 16.0.0, SVG Export Plug-In . SVG Version: 6.00 Build 0)  -->
<!DOCTYPE svg PUBLIC "-//W3C//DTD SVG 1.1//EN" "http://www.w3.org/Graphics/SVG/1.1/DTD/svg11.dtd">
<svg version="1.1" id="圖層_1" xmlns="http://www.w3.org/2000/svg" xmlns:xlink="http://www.w3.org/1999/xlink" x="0px" y="0px"
	 width="40px" height="40px" viewBox="0 0 40 40" enable-background="new 0 0 40 40" xml:space="preserve">
<g>
	<path d="M17,26c0,0.553-0.447,1-1,1h-2c-0.553,0-1-0.447-1-1V14c0-0.553,0.447-1,1-1h2c0.553,0,1,0.447,1,1V26z"/>
	<path d="M27,26c0,0.553-0.447,1-1,1h-2c-0.553,0-1-0.447-1-1V14c0-0.553,0.447-1,1-1h2c0.553,0,1,0.447,1,1V26z"/>
</g>
</svg>
