<?xml version="1.0" encoding="utf-8"?>
<!-- Generator: Adobe Illustrator 16.0.0, SVG Export Plug-In . SVG Version: 6.00 Build 0)  -->
<!DOCTYPE svg PUBLIC "-//W3C//DTD SVG 1.1//EN" "http://www.w3.org/Graphics/SVG/1.1/DTD/svg11.dtd">
<svg version="1.1" id="圖層_1" xmlns="http://www.w3.org/2000/svg" xmlns:xlink="http://www.w3.org/1999/xlink" x="0px" y="0px"
	 width="20px" height="20px" viewBox="0 0 20 20" enable-background="new 0 0 20 20" xml:space="preserve">
<g>
	<circle fill="#FFFFFF" cx="10" cy="10" r="10"/>
	<path fill="#3C3C3C" d="M15.013,8.987h-4v-4c0-0.552-0.448-1-1-1c-0.553,0-1,0.448-1,1v4h-4c-0.552,0-1,0.448-1,1
		c0,0.553,0.448,1,1,1h4v4c0,0.553,0.447,1,1,1c0.552,0,1-0.447,1-1v-4h4c0.552,0,1-0.447,1-1
		C16.013,9.436,15.564,8.987,15.013,8.987z"/>
</g>
</svg>
