<?xml version="1.0" encoding="utf-8"?>
<!-- Generator: Adobe Illustrator 16.0.0, SVG Export Plug-In . SVG Version: 6.00 Build 0)  -->
<!DOCTYPE svg PUBLIC "-//W3C//DTD SVG 1.1//EN" "http://www.w3.org/Graphics/SVG/1.1/DTD/svg11.dtd">
<svg version="1.1" id="圖層_1" xmlns="http://www.w3.org/2000/svg" xmlns:xlink="http://www.w3.org/1999/xlink" x="0px" y="0px"
	 width="10px" height="10px" viewBox="0 0 10 10" enable-background="new 0 0 10 10" xml:space="preserve">
<path d="M4.474,8.707c0.299-0.3,0.299-0.792,0-1.091L2.615,5.751h6.618C9.657,5.751,10,5.409,10,4.986
	c0-0.423-0.343-0.764-0.767-0.764H2.62l1.854-1.849c0.299-0.3,0.299-0.782,0-1.082C4.174,0.993,3.689,0.994,3.389,1.293L0.252,4.431
	C0.244,4.44,0.233,4.449,0.224,4.458C0.075,4.607,0,4.803,0,5C0,5,0,5,0,5.001c0,0,0,0.001,0,0.002c0,0.195,0.075,0.393,0.224,0.541
	c0.01,0.01,0.02,0.018,0.029,0.026l3.137,3.137C3.689,9.006,4.174,9.006,4.474,8.707z"/>
</svg>
