<?xml version="1.0" encoding="utf-8"?>
<!-- Generator: Adobe Illustrator 16.0.0, SVG Export Plug-In . SVG Version: 6.00 Build 0)  -->
<!DOCTYPE svg PUBLIC "-//W3C//DTD SVG 1.1//EN" "http://www.w3.org/Graphics/SVG/1.1/DTD/svg11.dtd">
<svg version="1.1" id="圖層_1" xmlns="http://www.w3.org/2000/svg" xmlns:xlink="http://www.w3.org/1999/xlink" x="0px" y="0px"
	 width="50px" height="50px" viewBox="0 0 50 50" enable-background="new 0 0 50 50" xml:space="preserve">
<path d="M22.894,39.826c1.198-1.197,1.198-3.168,0-4.363L15.461,28h26.473C43.627,28,45,26.637,45,24.944
	c0-1.693-1.372-3.057-3.066-3.057H15.479l7.414-7.394c1.197-1.197,1.197-3.127,0-4.324s-3.138-1.192-4.335,0.005L6.012,22.725
	c-0.038,0.035-0.077,0.068-0.114,0.104C5.3,23.427,5,24.212,5,24.997c0,0.002,0,0.004,0,0.006s0,0.004,0,0.006
	c0,0.784,0.3,1.569,0.897,2.167c0.037,0.037,0.076,0.068,0.114,0.104l12.547,12.547C19.756,41.023,21.696,41.023,22.894,39.826z"/>
</svg>
