<?xml version="1.0" encoding="utf-8"?>
<!-- Generator: Adobe Illustrator 16.0.0, SVG Export Plug-In . SVG Version: 6.00 Build 0)  -->
<!DOCTYPE svg PUBLIC "-//W3C//DTD SVG 1.1//EN" "http://www.w3.org/Graphics/SVG/1.1/DTD/svg11.dtd">
<svg version="1.1" id="Layer_1" xmlns="http://www.w3.org/2000/svg" xmlns:xlink="http://www.w3.org/1999/xlink" x="0px" y="0px"
	 width="841.89px" height="595.281px" viewBox="0 0 841.89 595.281" enable-background="new 0 0 841.89 595.281"
	 xml:space="preserve">
<path d="M388.753,187c-20.333,0-19.309-22.75-19.309-22.75s0-74.583,0-100.583c0-36-37.85-0.513-37.85-0.513L114.486,239.667
	c-15.5,14.417,0.007,29.333,0.007,29.333s203.462,167.509,222.005,182.357c31.196,24.977,33.117-3.857,33.117-3.857l-0.17-86.5
	v-30.166c0,0-2.348-17.334,23.049-19.322c178.607-13.986,263.813,166.997,279.951,212.156C689.361,571,687.889,531,687.889,531
	C687.889,205,406.236,187,388.753,187z"/>
</svg>
