<?xml version="1.0" encoding="utf-8"?>
<!-- Generator: Adobe Illustrator 16.0.0, SVG Export Plug-In . SVG Version: 6.00 Build 0)  -->
<!DOCTYPE svg PUBLIC "-//W3C//DTD SVG 1.1//EN" "http://www.w3.org/Graphics/SVG/1.1/DTD/svg11.dtd">
<svg version="1.1" id="Layer_1" xmlns="http://www.w3.org/2000/svg" xmlns:xlink="http://www.w3.org/1999/xlink" x="0px" y="0px"
	 width="841.89px" height="595.281px" viewBox="0 0 841.89 595.281" enable-background="new 0 0 841.89 595.281"
	 xml:space="preserve">
<path d="M410.949,507.335c17.433-17.428,17.433-46.123,0-63.549L302.735,335.14h385.461c24.652,0,44.635-19.85,44.635-44.499
	s-19.982-44.501-44.635-44.501H303l107.949-107.651c17.431-17.43,17.431-45.539,0-62.967c-17.43-17.434-45.689-17.358-63.117,0.075
	L165.143,258.329c-0.553,0.497-1.129,0.985-1.662,1.518c-8.717,8.713-13.072,20.143-13.072,31.567c0,0.028,0.004,0.057,0.004,0.084
	c0,0.026-0.004,0.055-0.004,0.082c0,11.422,4.357,22.845,13.072,31.562c0.533,0.529,1.109,1,1.662,1.498l182.689,182.695
	C365.26,524.767,393.52,524.767,410.949,507.335z"/>
</svg>
