<?xml version="1.0" encoding="utf-8"?>
<!-- Generator: Adobe Illustrator 16.0.0, SVG Export Plug-In . SVG Version: 6.00 Build 0)  -->
<!DOCTYPE svg PUBLIC "-//W3C//DTD SVG 1.1//EN" "http://www.w3.org/Graphics/SVG/1.1/DTD/svg11.dtd">
<svg version="1.1" id="圖層_1" xmlns="http://www.w3.org/2000/svg" xmlns:xlink="http://www.w3.org/1999/xlink" x="0px" y="0px"
	 width="35px" height="60px" viewBox="0 0 35 60" enable-background="new 0 0 35 60" xml:space="preserve">
<path d="M33.263,53.758L9.505,30L33.263,6.242c1.428-1.428,1.428-3.743,0-5.171s-3.744-1.428-5.172,0L1.974,27.189
	c-0.081,0.068-0.161,0.138-0.237,0.214C1.02,28.12,0.664,29.061,0.667,30c-0.002,0.939,0.354,1.879,1.07,2.596
	c0.076,0.076,0.156,0.146,0.236,0.214l26.118,26.118C28.806,59.643,29.741,60,30.677,60s1.873-0.357,2.586-1.071
	C34.69,57.501,34.69,55.186,33.263,53.758z"/>
</svg>
