<?xml version="1.0" encoding="utf-8"?>
<!-- Generator: Adobe Illustrator 16.0.0, SVG Export Plug-In . SVG Version: 6.00 Build 0)  -->
<!DOCTYPE svg PUBLIC "-//W3C//DTD SVG 1.1//EN" "http://www.w3.org/Graphics/SVG/1.1/DTD/svg11.dtd">
<svg version="1.1" id="Layer_1" xmlns="http://www.w3.org/2000/svg" xmlns:xlink="http://www.w3.org/1999/xlink" x="0px" y="0px"
	 width="1920px" height="1080px" viewBox="0 0 1920 1080" enable-background="new 0 0 1920 1080" xml:space="preserve">
<g>
	<g>
		<path d="M814.155,240.357c54.196-46.31,124.475-73.713,201.282-73.713c171.02,0,309.721,138.856,310.356,309.856h-118.021
			l170.884,167.822L1549.554,476.5h-119.694c-0.638-225-185.928-413.914-414.422-413.914c-105.511,0-201.796,39.442-274.96,104.559
			L814.155,240.357z"/>
		<path d="M1105.815,834.169c-54.194,46.31-124.47,74.444-201.284,74.444c-171.019,0-309.713-139.113-310.354-309.113h118.025
			L541.311,431.678L370.422,599.5H490.11c0.644,228,185.93,413.176,414.421,413.176c105.521,0,201.795-39.809,274.964-104.919
			L1105.815,834.169z"/>
	</g>
	<g>
		<g>
			<path d="M767.186,655.862V410.787h50.206v96.458h98.375v-96.458h50.206v245.075h-50.206V548.704h-98.375v107.158H767.186z"/>
			<path d="M1007.053,655.862V619.25l67.508-76.397c11.079-12.48,19.276-21.34,24.593-26.581c-5.541,0.334-12.835,0.56-21.88,0.67
				l-63.606,0.334v-38.952h148.923v33.269l-68.865,78.236l-24.254,25.912c13.231-0.778,21.428-1.171,24.595-1.171h73.781v41.292
				H1007.053z"/>
		</g>
	</g>
</g>
</svg>
