<?xml version="1.0" encoding="utf-8"?>
<!-- Generator: Adobe Illustrator 16.0.0, SVG Export Plug-In . SVG Version: 6.00 Build 0)  -->
<!DOCTYPE svg PUBLIC "-//W3C//DTD SVG 1.1//EN" "http://www.w3.org/Graphics/SVG/1.1/DTD/svg11.dtd">
<svg version="1.1" id="圖層_1" xmlns="http://www.w3.org/2000/svg" xmlns:xlink="http://www.w3.org/1999/xlink" x="0px" y="0px"
	 width="45px" height="45px" viewBox="0 0 45 45" enable-background="new 0 0 45 45" xml:space="preserve">
<g>
	<path d="M13.977,12.611c2.287-1.953,5.251-3.085,8.492-3.085c7.214,0,13.065,5.858,13.092,13.097h-4.979l7.209,7.08L45,22.623
		h-5.049c-0.027-9.535-7.844-17.486-17.482-17.486c-4.451,0-8.513,1.651-11.6,4.398L13.977,12.611z"/>
	<path d="M31.023,32.341c-2.286,1.953-5.251,3.132-8.491,3.132c-7.214,0-13.065-5.86-13.092-13.05h4.979l-7.209-7.079L0,22.423H5.05
		c0.027,9.635,7.843,17.439,17.482,17.439c4.451,0,8.513-1.675,11.6-4.422L31.023,32.341z"/>
</g>
</svg>
