<?xml version="1.0" encoding="utf-8"?>
<!-- Generator: Adobe Illustrator 16.0.0, SVG Export Plug-In . SVG Version: 6.00 Build 0)  -->
<!DOCTYPE svg PUBLIC "-//W3C//DTD SVG 1.1//EN" "http://www.w3.org/Graphics/SVG/1.1/DTD/svg11.dtd">
<svg version="1.1" id="Layer_1" xmlns="http://www.w3.org/2000/svg" xmlns:xlink="http://www.w3.org/1999/xlink" x="0px" y="0px"
	 width="1920px" height="1080px" viewBox="0 0 1920 1080" enable-background="new 0 0 1920 1080" xml:space="preserve">
<g>
	<path d="M759.017,341.948c45.798-39.136,105.188-61.792,170.096-61.792c144.521,0,261.732,117.344,262.269,262.344h-99.736
		l144.41,141.82l144.418-141.82h-101.149c-0.538-191-157.119-350.282-350.211-350.282c-89.164,0-170.532,33.082-232.358,88.111
		L759.017,341.948z"/>
	<path d="M1100.49,737.161c-45.8,39.136-105.186,62.735-170.1,62.735c-144.52,0-261.727-117.396-262.267-261.396h99.736
		L623.448,396.679L479.036,538.5h101.143c0.545,193,157.123,349.334,350.212,349.334c89.174,0,170.53-33.549,232.364-88.576
		L1100.49,737.161z"/>
</g>
</svg>
