<?xml version="1.0" encoding="utf-8"?>
<!-- Generator: Adobe Illustrator 16.0.0, SVG Export Plug-In . SVG Version: 6.00 Build 0)  -->
<!DOCTYPE svg PUBLIC "-//W3C//DTD SVG 1.1//EN" "http://www.w3.org/Graphics/SVG/1.1/DTD/svg11.dtd">
<svg version="1.1" id="圖層_1" xmlns="http://www.w3.org/2000/svg" xmlns:xlink="http://www.w3.org/1999/xlink" x="0px" y="0px"
	 width="45px" height="45px" viewBox="0 0 45 45" enable-background="new 0 0 45 45" xml:space="preserve">
<g>
	<path d="M45,35.561c0,2.223-1.802,4.023-4.025,4.023H4.025C1.802,39.584,0,37.783,0,35.561V9.441c0-2.223,1.802-4.025,4.025-4.025
		h36.95C43.198,5.417,45,7.218,45,9.441V35.561z M42.954,9.446c0-1.07-0.867-1.938-1.938-1.938H4.03
		c-1.07,0-1.938,0.868-1.938,1.938v26.108c0,1.07,0.868,1.938,1.938,1.938h36.987c1.07,0,1.938-0.867,1.938-1.938V9.446
		L42.954,9.446z"/>
	<polygon points="13.667,33.82 5.718,33.82 5.718,25.871 7.949,25.871 7.949,31.588 13.667,31.588 	"/>
	<polygon points="39.654,18.758 37.469,18.758 37.469,13.04 31.704,13.04 31.704,10.855 39.654,10.855 	"/>
</g>
</svg>
