<?xml version="1.0" encoding="utf-8"?>
<!-- Generator: Adobe Illustrator 16.0.0, SVG Export Plug-In . SVG Version: 6.00 Build 0)  -->
<!DOCTYPE svg PUBLIC "-//W3C//DTD SVG 1.1//EN" "http://www.w3.org/Graphics/SVG/1.1/DTD/svg11.dtd">
<svg version="1.1" id="Layer_1" xmlns="http://www.w3.org/2000/svg" xmlns:xlink="http://www.w3.org/1999/xlink" x="0px" y="0px"
	 width="1920px" height="1080px" viewBox="0 0 1920 1080" enable-background="new 0 0 1920 1080" xml:space="preserve">
<g>
	<path d="M1453.5,842.916c0,47.819-38.765,86.584-86.583,86.584H572.083c-47.818,0-86.583-38.765-86.583-86.584V281.084
		c0-47.818,38.765-86.584,86.583-86.584h794.834c47.818,0,86.583,38.766,86.583,86.584V842.916z M1409.5,281.188
		c0-23.024-18.664-41.688-41.688-41.688H572.188c-23.024,0-41.688,18.664-41.688,41.688v561.623
		c0,23.023,18.665,41.688,41.688,41.688h795.623c23.024,0,41.688-18.665,41.688-41.688V281.188z"/>
	<polygon points="779.5,805.5 608.5,805.5 608.5,634.5 656.5,634.5 656.5,757.5 779.5,757.5 	"/>
	<polygon points="1338.5,481.5 1291.5,481.5 1291.5,358.5 1167.5,358.5 1167.5,311.5 1338.5,311.5 	"/>
</g>
</svg>
