<?xml version="1.0" encoding="utf-8"?>
<!-- Generator: Adobe Illustrator 16.0.0, SVG Export Plug-In . SVG Version: 6.00 Build 0)  -->
<!DOCTYPE svg PUBLIC "-//W3C//DTD SVG 1.1//EN" "http://www.w3.org/Graphics/SVG/1.1/DTD/svg11.dtd">
<svg version="1.1" id="圖層_1" xmlns="http://www.w3.org/2000/svg" xmlns:xlink="http://www.w3.org/1999/xlink" x="0px" y="0px"
	 width="45px" height="45px" viewBox="0 0 45 45" enable-background="new 0 0 45 45" xml:space="preserve">
<g>
	<path d="M40.126,31.58c3.531-9.502-1.15-20.181-10.611-23.984c-4.659-1.874-9.769-1.82-14.388,0.149S6.933,13.366,5.059,18.024
		c-1.771,4.405-1.813,9.201-0.186,13.557L0,33.659l9.254,4.904l2.867-10.073l-4.626,1.973C6.163,26.8,6.213,22.781,7.699,19.086
		c1.59-3.954,4.624-7.052,8.544-8.724s8.256-1.717,12.21-0.127c8.041,3.233,12.014,12.316,8.992,20.389l-4.857-1.732l3.471,9.881
		L45,33.318L40.126,31.58z"/>
	<circle cx="22.449" cy="23.007" r="4.81"/>
</g>
</svg>
