<?xml version="1.0" encoding="utf-8"?>
<!-- Generator: Adobe Illustrator 16.0.0, SVG Export Plug-In . SVG Version: 6.00 Build 0)  -->
<!DOCTYPE svg PUBLIC "-//W3C//DTD SVG 1.1//EN" "http://www.w3.org/Graphics/SVG/1.1/DTD/svg11.dtd">
<svg version="1.1" id="Layer_1" xmlns="http://www.w3.org/2000/svg" xmlns:xlink="http://www.w3.org/1999/xlink" x="0px" y="0px"
	 width="1920px" height="1080px" viewBox="0 0 1920 1080" enable-background="new 0 0 1920 1080" xml:space="preserve">
<g>
	<path d="M1313.367,714.895c71.161-191.486-23.17-406.67-213.828-483.333c-93.89-37.752-196.86-36.683-289.939,3.016
		c-93.083,39.694-165.137,113.264-202.885,207.151c-35.695,88.774-36.537,185.407-3.75,273.183l-98.203,41.876l186.491,98.822
		l57.783-202.989l-93.231,39.757c-26.855-73.81-25.832-154.794,4.11-229.259c32.037-79.679,93.183-142.111,172.178-175.8
		c78.993-33.685,166.375-34.599,246.057-2.558c162.029,65.152,242.08,248.19,181.207,410.868l-97.889-34.917l69.943,199.123
		l180.18-109.905L1313.367,714.895z"/>
	<circle cx="957.15" cy="542.127" r="96.928"/>
</g>
</svg>
