<?xml version="1.0" encoding="utf-8"?>
<!-- Generator: Adobe Illustrator 16.0.0, SVG Export Plug-In . SVG Version: 6.00 Build 0)  -->
<!DOCTYPE svg PUBLIC "-//W3C//DTD SVG 1.1//EN" "http://www.w3.org/Graphics/SVG/1.1/DTD/svg11.dtd">
<svg version="1.1" id="圖層_1" xmlns="http://www.w3.org/2000/svg" xmlns:xlink="http://www.w3.org/1999/xlink" x="0px" y="0px"
	 width="50px" height="50px" viewBox="0 0 50 50" enable-background="new 0 0 50 50" xml:space="preserve">
<path d="M38.242,14.125h-2.367v-2.369c0-2.35-1.906-4.256-4.256-4.256H11.756C9.406,7.5,7.5,9.406,7.5,11.756v19.863
	c0,2.35,1.906,4.256,4.256,4.256h2.369v2.367c0,2.352,1.905,4.258,4.256,4.258h19.86c2.352,0,4.258-1.906,4.258-4.258v-19.86
	C42.5,16.031,40.594,14.125,38.242,14.125z M11.756,31.859c-0.133,0-0.241-0.107-0.241-0.24V11.756c0-0.133,0.108-0.241,0.241-0.241
	h19.835h0.013c0.134,0,0.255,0.108,0.255,0.241v2.369v4.016v13.478c0,0.133-0.107,0.24-0.24,0.24H18.141h-4.016H11.756z
	 M38.486,38.242c0,0.134-0.11,0.244-0.244,0.244h-19.86c-0.133,0-0.241-0.11-0.241-0.244v-2.367h13.478
	c2.35,0,4.256-1.906,4.256-4.256V18.141h2.343h0.013c0.133,0,0.256,0.107,0.256,0.241V38.242z"/>
</svg>
