<?xml version="1.0" encoding="utf-8"?>
<!-- Generator: Adobe Illustrator 16.0.0, SVG Export Plug-In . SVG Version: 6.00 Build 0)  -->
<!DOCTYPE svg PUBLIC "-//W3C//DTD SVG 1.1//EN" "http://www.w3.org/Graphics/SVG/1.1/DTD/svg11.dtd">
<svg version="1.1" id="圖層_1" xmlns="http://www.w3.org/2000/svg" xmlns:xlink="http://www.w3.org/1999/xlink" x="0px" y="0px"
	 width="50px" height="50px" viewBox="0 0 50 50" enable-background="new 0 0 50 50" xml:space="preserve">
<g>
	<g>
		<path d="M41.451,28.836l-3.217-2.516c0.041-0.389,0.076-0.842,0.076-1.322c0-0.479-0.034-0.933-0.076-1.321l3.22-2.517
			c0.599-0.472,0.761-1.311,0.381-2.009l-3.346-5.789c-0.356-0.653-1.14-0.989-1.935-0.695l-3.797,1.524
			c-0.728-0.525-1.49-0.968-2.279-1.323l-0.577-4.026C29.807,8.078,29.142,7.5,28.355,7.5h-6.708c-0.786,0-1.449,0.578-1.542,1.33
			l-0.579,4.041c-0.764,0.344-1.515,0.782-2.275,1.323l-3.807-1.528c-0.713-0.276-1.566,0.033-1.92,0.684l-3.35,5.796
			c-0.396,0.668-0.232,1.536,0.379,2.02l3.217,2.516c-0.051,0.492-0.076,0.919-0.076,1.32s0.025,0.828,0.076,1.321l-3.22,2.517
			c-0.598,0.475-0.76,1.313-0.379,2.01l3.345,5.789c0.357,0.651,1.133,0.99,1.935,0.695l3.796-1.524
			c0.726,0.524,1.489,0.967,2.278,1.323l0.578,4.024c0.095,0.767,0.758,1.345,1.545,1.345h6.709c0.785,0,1.451-0.578,1.544-1.33
			l0.579-4.039c0.764-0.346,1.514-0.782,2.275-1.324l3.806,1.527c0.184,0.072,0.375,0.108,0.571,0.108c0.566,0,1.087-0.31,1.35-0.79
			l3.359-5.818C42.215,30.15,42.053,29.313,41.451,28.836z M25.001,30.834c-3.217,0-5.833-2.617-5.833-5.834
			c0-3.217,2.616-5.833,5.833-5.833s5.833,2.616,5.833,5.833C30.834,28.217,28.219,30.834,25.001,30.834z"/>
	</g>
</g>
</svg>
