<?xml version="1.0" encoding="utf-8"?>
<!-- Generator: Adobe Illustrator 16.0.0, SVG Export Plug-In . SVG Version: 6.00 Build 0)  -->
<!DOCTYPE svg PUBLIC "-//W3C//DTD SVG 1.1//EN" "http://www.w3.org/Graphics/SVG/1.1/DTD/svg11.dtd">
<svg version="1.1" id="Layer_1" xmlns="http://www.w3.org/2000/svg" xmlns:xlink="http://www.w3.org/1999/xlink" x="0px" y="0px"
	 width="1920px" height="1080px" viewBox="0 0 1920 1080" enable-background="new 0 0 1920 1080" xml:space="preserve">
<path d="M1280.925,380.974c-18.95-44.803-46.074-85.036-80.619-119.58c-34.544-34.544-74.776-61.668-119.579-80.618
	c-46.397-19.625-95.671-29.575-146.45-29.575s-100.053,9.95-146.45,29.575c-44.803,18.95-85.035,46.074-119.579,80.618
	c-34.545,34.544-61.669,74.777-80.619,119.58c-19.624,46.397-29.574,95.67-29.574,146.45c0,50.779,9.95,100.053,29.574,146.449
	c18.95,44.804,46.074,85.036,80.619,119.58c34.544,34.545,74.776,61.668,119.579,80.619c46.397,19.624,95.671,29.574,146.45,29.574
	s100.053-9.95,146.45-29.574c44.803-18.951,85.035-46.074,119.579-80.619c34.545-34.544,61.669-74.776,80.619-119.58
	c19.624-46.396,29.574-95.67,29.574-146.449C1310.499,476.644,1300.549,427.371,1280.925,380.974z M1251.24,624.5H1041.77
	l164.514-285.395c37.306,53.592,59.216,118.888,59.216,188.991C1265.499,561.534,1260.499,593.5,1251.24,624.5z M827.439,520.686
	l51.308-89.186h111.062l55.529,96.499l-55.53,96.501H879.611L827.439,520.686z M1175.956,301.187l-104.638,181.237L906.732,197.356
	c9.086-0.751,18.268-1.154,27.544-1.154C1029.514,196.201,1115.477,236.62,1175.956,301.187z M859.08,205.073L963.827,386.5H634.695
	C677.404,296.5,759.719,228.227,859.08,205.073z M617.313,431.5h209.473L662.27,716.321
	c-37.306-53.593-59.216-118.601-59.216-188.704C603.054,494.178,608.054,462.5,617.313,431.5z M692.598,753.662l107.938-186.953
	l147.021,291.648c-4.408,0.174-8.83,0.289-13.28,0.289C839.039,858.647,753.076,818.229,692.598,753.662z M995.25,853.895
	L902.297,669.5h331.561C1189.127,763.5,1100.949,834.145,995.25,853.895z"/>
</svg>
