<?xml version="1.0" encoding="utf-8"?>
<!-- Generator: Adobe Illustrator 16.0.0, SVG Export Plug-In . SVG Version: 6.00 Build 0)  -->
<!DOCTYPE svg PUBLIC "-//W3C//DTD SVG 1.1//EN" "http://www.w3.org/Graphics/SVG/1.1/DTD/svg11.dtd">
<svg version="1.1" id="圖層_1" xmlns="http://www.w3.org/2000/svg" xmlns:xlink="http://www.w3.org/1999/xlink" x="0px" y="0px"
	 width="40px" height="40px" viewBox="0 0 40 40" enable-background="new 0 0 40 40" xml:space="preserve">
<path fill="#040000" d="M38.428,12.215c-1.008-2.382-2.449-4.521-4.285-6.357c-1.838-1.836-3.977-3.278-6.357-4.286
	C25.318,0.529,22.699,0,20,0c-2.699,0-5.319,0.529-7.785,1.572C9.833,2.58,7.694,4.021,5.857,5.858s-3.278,3.975-4.286,6.357
	C0.528,14.681,0,17.3,0,20c0,2.699,0.529,5.318,1.572,7.785c1.007,2.382,2.449,4.521,4.286,6.357
	c1.836,1.836,3.975,3.278,6.357,4.285C14.681,39.471,17.3,40,20,40c2.7,0,5.319-0.529,7.786-1.572
	c2.381-1.007,4.52-2.449,6.357-4.285c1.836-1.837,3.277-3.976,4.285-6.357C39.471,25.318,40,22.699,40,20
	C40,17.3,39.471,14.681,38.428,12.215z M36.85,25.16H25.714l8.745-15.171c1.984,2.849,3.148,6.32,3.148,10.047
	C37.607,21.813,37.342,23.513,36.85,25.16z M14.32,19.642l2.728-4.741h5.904l2.952,5.129l-2.952,5.13h-5.858L14.32,19.642z
	 M32.848,7.973l-5.563,9.634l-8.75-15.154c0.483-0.04,0.971-0.062,1.464-0.062C25.063,2.392,29.633,4.541,32.848,7.973z
	 M16.002,2.864l5.568,9.645H4.074C6.344,7.724,10.72,4.095,16.002,2.864z M3.15,14.901h11.135L5.54,30.042
	c-1.983-2.85-3.148-6.305-3.148-10.031C2.392,18.232,2.657,16.549,3.15,14.901z M7.152,32.027l5.738-9.938l7.816,15.504
	c-0.234,0.009-0.469,0.015-0.706,0.015C14.937,37.607,10.367,35.459,7.152,32.027z M23.24,37.355l-4.941-9.803h17.626
	C33.547,32.55,28.859,36.306,23.24,37.355z"/>
</svg>
