<?xml version="1.0" encoding="utf-8"?>
<!-- Generator: Adobe Illustrator 16.0.0, SVG Export Plug-In . SVG Version: 6.00 Build 0)  -->
<!DOCTYPE svg PUBLIC "-//W3C//DTD SVG 1.1//EN" "http://www.w3.org/Graphics/SVG/1.1/DTD/svg11.dtd">
<svg version="1.1" id="Layer_1" xmlns="http://www.w3.org/2000/svg" xmlns:xlink="http://www.w3.org/1999/xlink" x="0px" y="0px"
	 width="1920px" height="1080px" viewBox="0 0 1920 1080" enable-background="new 0 0 1920 1080" xml:space="preserve">
<g>
	<path d="M1185.689,211.757c11.524,0,20.9,9.375,20.9,20.902v530.322c0,11.526-9.376,20.902-20.9,20.902H655.366
		c-11.526,0-20.902-9.376-20.902-20.902V232.657c0-11.525,9.375-20.902,20.902-20.902L1185.689,211.757 M1195.938,169.035h-550.82
		c-29.479,0-53.375,23.896-53.375,53.375v550.82c0,29.479,23.896,53.374,53.375,53.374h550.82c29.479,0,53.373-23.896,53.373-53.374
		V222.409C1249.311,192.931,1225.416,169.035,1195.938,169.035L1195.938,169.035z"/>
	<path d="M877.404,406.767c23.544,13.64,67.032,38.846,91.595,53.145c-23.636,13.743-67.201,39.084-91.595,53.349V406.767
		 M853.286,356.396c-5.473,0-10.945,2.235-10.945,11.177v182.843c0,0,0.371,14.218,11.396,14.218c3.223,0,7.354-1.214,12.654-4.351
		c23.433-13.875,150.775-87.875,150.775-87.875s20.35-12.95,0-24.976c-20.349-12.025-152.935-88.799-152.935-88.799
		S858.759,356.396,853.286,356.396L853.286,356.396z"/>
	<path d="M1281.873,279.87v500.337c0,40.726-33.13,73.855-73.854,73.855H703.938c-0.139,0-0.272-0.01-0.411-0.01
		c8.54,18.973,27.596,38.447,49.753,38.447h461.741c67.988,0,104.479-61.051,104.479-108.121V328.595
		C1319.5,307.287,1299.683,288.847,1281.873,279.87z"/>
	<path d="M1082.029,310.767c7.056,0,12.797,5.741,12.797,12.796v265.619c0,7.057-5.741,12.797-12.797,12.797H759.594
		c-7.057,0-12.797-5.74-12.797-12.797V323.565c0-7.057,5.74-12.797,12.797-12.797L1082.029,310.767 M1097.974,269.069H743.65
		c-22.843,0-41.361,18.518-41.361,41.361v291.888c0,22.843,18.518,41.361,41.361,41.361h354.324c22.842,0,41.36-18.519,41.36-41.361
		V310.43C1139.334,287.586,1120.817,269.069,1097.974,269.069L1097.974,269.069z"/>
</g>
</svg>
