<?xml version="1.0" encoding="utf-8"?>
<!-- Generator: Adobe Illustrator 16.0.0, SVG Export Plug-In . SVG Version: 6.00 Build 0)  -->
<!DOCTYPE svg PUBLIC "-//W3C//DTD SVG 1.1//EN" "http://www.w3.org/Graphics/SVG/1.1/DTD/svg11.dtd">
<svg version="1.1" id="圖層_1" xmlns="http://www.w3.org/2000/svg" xmlns:xlink="http://www.w3.org/1999/xlink" x="0px" y="0px"
	 width="40px" height="40px" viewBox="0 0 40 40" enable-background="new 0 0 40 40" xml:space="preserve">
<g>
	<path fill="#040000" d="M32.646,2.362c0.633,0,1.148,0.518,1.148,1.156v29.321c0,0.638-0.516,1.154-1.148,1.154H3.497
		c-0.634,0-1.149-0.517-1.149-1.154V3.518c0-0.637,0.516-1.156,1.149-1.156L32.646,2.362 M33.209,0H2.934C1.313,0,0,1.321,0,2.951
		v30.455c0,1.629,1.313,2.951,2.934,2.951h30.275c1.62,0,2.934-1.322,2.934-2.951V2.951C36.143,1.321,34.829,0,33.209,0L33.209,0z"
		/>
	<path fill="#040000" d="M15.701,13.144c1.294,0.754,3.684,2.147,5.034,2.938c-1.3,0.759-3.694,2.161-5.034,2.95V13.144
		 M14.375,10.359c-0.301,0-0.602,0.124-0.602,0.618v10.109c0,0,0.021,0.787,0.627,0.787c0.177,0,0.404-0.068,0.695-0.241
		c1.287-0.767,8.287-4.859,8.287-4.859s1.118-0.715,0-1.381c-1.119-0.664-8.406-4.909-8.406-4.909S14.676,10.359,14.375,10.359
		L14.375,10.359z"/>
	<path fill="#040000" d="M37.932,6.128v27.663c0,2.252-1.82,4.083-4.059,4.083H6.166c-0.007,0-0.014,0-0.021,0
		C6.613,38.923,7.66,40,8.879,40h25.379C37.994,40,40,36.624,40,34.021V8.822C40,7.644,38.911,6.624,37.932,6.128z"/>
	<path fill="#040000" d="M26.947,7.836c0.389,0,0.704,0.317,0.704,0.708v14.685c0,0.392-0.315,0.708-0.704,0.708H9.226
		c-0.388,0-0.703-0.316-0.703-0.708V8.544c0-0.39,0.315-0.708,0.703-0.708H26.947 M27.824,5.531H8.35
		c-1.256,0-2.273,1.024-2.273,2.287v16.138c0,1.264,1.018,2.287,2.273,2.287h19.475c1.256,0,2.273-1.023,2.273-2.287V7.818
		C30.098,6.555,29.08,5.531,27.824,5.531L27.824,5.531z"/>
</g>
</svg>
