<?xml version="1.0" encoding="utf-8"?>
<!-- Generator: Adobe Illustrator 16.0.0, SVG Export Plug-In . SVG Version: 6.00 Build 0)  -->
<!DOCTYPE svg PUBLIC "-//W3C//DTD SVG 1.1//EN" "http://www.w3.org/Graphics/SVG/1.1/DTD/svg11.dtd">
<svg version="1.1" id="圖層_1" xmlns="http://www.w3.org/2000/svg" xmlns:xlink="http://www.w3.org/1999/xlink" x="0px" y="0px"
	 width="40px" height="20px" viewBox="0 0 40 20" enable-background="new 0 0 40 20" xml:space="preserve">
<g>
	<path fill="#FFFFFF" d="M10,20c-5.523,0-10-4.455-10-9.951c0-5.495,4.477-9.95,10-9.95L30,0c5.522,0,10,4.455,10,9.951
		c0,5.495-4.478,9.95-10,9.95L10,20z"/>
	<g>
		<path fill="#3C3C3C" d="M10.017,2.1c4.411,0,8,3.567,8,7.951c0,4.354-3.541,7.902-7.911,7.95h-0.089c-4.411,0-8-3.566-8-7.951
			c0-4.354,3.541-7.902,7.911-7.95H10.017 M10.017,0.099c-5.5,0-10,4.455-10,9.95c0,5.496,4.5,9.951,10,9.951l0,0
			c5.5,0,10-4.455,10-9.95C20.017,4.555,15.517,0.1,10.017,0.099L10.017,0.099L10.017,0.099z"/>
	</g>
</g>
</svg>
