<?xml version="1.0" encoding="utf-8"?>
<!-- Generator: Adobe Illustrator 16.0.0, SVG Export Plug-In . SVG Version: 6.00 Build 0)  -->
<!DOCTYPE svg PUBLIC "-//W3C//DTD SVG 1.1//EN" "http://www.w3.org/Graphics/SVG/1.1/DTD/svg11.dtd">
<svg version="1.1" id="圖層_1" xmlns="http://www.w3.org/2000/svg" xmlns:xlink="http://www.w3.org/1999/xlink" x="0px" y="0px"
	 width="50px" height="50px" viewBox="0 0 50 50" enable-background="new 0 0 50 50" xml:space="preserve">
<path d="M46.201,11.624c0-1.726-1.398-3.124-3.124-3.124H6.922c-1.725,0-3.123,1.398-3.123,3.124v26.753
	c0,1.725,1.398,3.123,3.123,3.123h36.155c1.726,0,3.124-1.398,3.124-3.123V11.624z M19.826,28.565v-7.067h10.348v7.067H19.826z
	 M30.174,30.458v7.257H19.826v-7.257H30.174z M7.585,21.498h10.348v7.067H7.585V21.498z M19.826,19.605v-7.319h10.348v7.319H19.826z
	 M32.067,21.498h10.348v7.067H32.067V21.498z M42.415,19.605H32.067v-7.319h10.348V19.605z M17.933,12.286v7.319H7.585v-7.319
	H17.933z M7.585,30.458h10.348v7.257H7.585V30.458z M32.067,37.715v-7.257h10.348v7.257H32.067z"/>
</svg>
