<?xml version="1.0" encoding="utf-8"?>
<!-- Generator: Adobe Illustrator 16.0.0, SVG Export Plug-In . SVG Version: 6.00 Build 0)  -->
<!DOCTYPE svg PUBLIC "-//W3C//DTD SVG 1.1//EN" "http://www.w3.org/Graphics/SVG/1.1/DTD/svg11.dtd">
<svg version="1.1" id="Layer_1" xmlns="http://www.w3.org/2000/svg" xmlns:xlink="http://www.w3.org/1999/xlink" x="0px" y="0px"
	 width="841.89px" height="595.281px" viewBox="0 0 841.89 595.281" enable-background="new 0 0 841.89 595.281"
	 xml:space="preserve">
<path d="M767.445,77.64c0-27.338-22.162-49.5-49.5-49.5h-573c-27.338,0-49.5,22.162-49.5,49.5v424c0,27.338,22.162,49.5,49.5,49.5
	h573c27.338,0,49.5-22.162,49.5-49.5V77.64z M349.445,346.14v-112h164v112H349.445z M513.445,376.14v115h-164v-115H513.445z
	 M155.445,234.14h164v112h-164V234.14z M349.445,204.14v-116h164v116H349.445z M543.445,234.14h164v112h-164V234.14z
	 M707.445,204.14h-164v-116h164V204.14z M319.445,88.14v116h-164v-116H319.445z M155.445,376.14h164v115h-164V376.14z
	 M543.445,491.14v-115h164v115H543.445z"/>
</svg>
