<?xml version="1.0" encoding="utf-8"?>
<!-- Generator: Adobe Illustrator 16.0.0, SVG Export Plug-In . SVG Version: 6.00 Build 0)  -->
<!DOCTYPE svg PUBLIC "-//W3C//DTD SVG 1.1//EN" "http://www.w3.org/Graphics/SVG/1.1/DTD/svg11.dtd">
<svg version="1.1" id="Layer_1" xmlns="http://www.w3.org/2000/svg" xmlns:xlink="http://www.w3.org/1999/xlink" x="0px" y="0px"
	 width="1920px" height="1080px" viewBox="0 0 1920 1080" enable-background="new 0 0 1920 1080" xml:space="preserve">
<g>
	<path d="M1386.216,249.716c9.429-9.428,9.429-24.714,0-34.142c-9.428-9.431-24.716-9.431-34.143,0l-95.598,95.295
		C1187.771,247.643,1100.5,210.71,1007.5,205.156V115.5h82.002c13.334,0,24.143-10.666,24.143-24s-10.809-24-24.143-24h-220.73
		c-13.333,0-24.143,10.666-24.143,24s10.809,24,24.143,24H958.5v89.595c-92,5.333-179.358,42.03-248.174,105.017l-94.17-94.5
		c-9.428-9.428-24.548-9.428-33.977,0c-9.429,9.428-9.346,24.714,0.083,34.142l95.016,94.974
		C613.938,418.033,579.4,510.582,579.4,608.444c0,107.927,42.04,209.394,118.354,285.71
		C774.072,970.47,875.545,1012.5,983.47,1012.5c107.927,0,209.396-42.03,285.713-118.346
		c76.315-76.316,118.348-177.783,118.348-285.71c0-97.485-34.301-189.696-97.178-262.868L1386.216,249.716z M983.477,964.215
		c-196.173,0-355.771-159.598-355.771-355.771c0-196.171,159.598-355.768,355.771-355.768
		c196.171,0,355.769,159.597,355.769,355.768C1339.245,804.617,1179.647,964.215,983.477,964.215z"/>
	<path d="M1035.67,628.907c2.923-6.779,4.549-14.252,4.549-22.104c0-30.883-25.035-55.92-55.918-55.92
		c-30.884,0-55.921,25.037-55.921,55.92c0,30.882,25.037,55.917,55.921,55.917c7.854,0,15.324-1.626,22.104-4.549l150.545,150.545
		c4.041,4.04,9.336,6.061,14.632,6.061c5.297,0,10.593-2.021,14.633-6.061c8.082-8.081,8.082-21.185,0-29.265L1035.67,628.907z"/>
</g>
</svg>
