<?xml version="1.0" encoding="utf-8"?>
<!-- Generator: Adobe Illustrator 16.0.0, SVG Export Plug-In . SVG Version: 6.00 Build 0)  -->
<!DOCTYPE svg PUBLIC "-//W3C//DTD SVG 1.1//EN" "http://www.w3.org/Graphics/SVG/1.1/DTD/svg11.dtd">
<svg version="1.1" id="圖層_1" xmlns="http://www.w3.org/2000/svg" xmlns:xlink="http://www.w3.org/1999/xlink" x="0px" y="0px"
	 width="45px" height="45px" viewBox="0 0 45 45" enable-background="new 0 0 45 45" xml:space="preserve">
<g>
	<path d="M41.643,8.677c0.449-0.449,0.449-1.177,0-1.625c-0.449-0.449-1.177-0.449-1.626,0l-4.552,4.538
		c-3.271-3.011-7.428-4.77-11.856-5.034v-4.27h3.905c0.635,0,1.149-0.508,1.149-1.143C28.663,0.508,28.148,0,27.514,0H17.002
		c-0.635,0-1.149,0.508-1.149,1.143c0,0.635,0.515,1.143,1.149,1.143h4.273v4.267c-4.381,0.254-8.541,2.001-11.818,5l-4.484-4.5
		c-0.449-0.449-1.169-0.449-1.618,0C2.906,7.502,2.91,8.23,3.359,8.679l4.524,4.522C4.868,16.692,3.223,21.1,3.223,25.76
		c0,5.139,2.001,9.971,5.636,13.605S17.325,45,22.465,45c5.139,0,9.971-2,13.604-5.635c3.635-3.635,5.636-8.467,5.636-13.605
		c0-4.642-1.633-9.033-4.627-12.518L41.643,8.677z M22.465,42.701c-9.342,0-16.941-7.6-16.941-16.941
		c0-9.341,7.6-16.941,16.941-16.941s16.941,7.6,16.941,16.941C39.406,35.102,31.806,42.701,22.465,42.701z"/>
	<path d="M24.95,26.734c0.139-0.322,0.217-0.68,0.217-1.053c0-1.471-1.192-2.662-2.663-2.662s-2.663,1.191-2.663,2.662
		s1.192,2.662,2.663,2.662c0.374,0,0.729-0.076,1.053-0.217l7.169,7.17c0.192,0.191,0.444,0.289,0.696,0.289
		c0.253,0,0.505-0.098,0.697-0.289c0.385-0.385,0.385-1.01,0-1.395L24.95,26.734z"/>
</g>
</svg>
