<?xml version="1.0" encoding="utf-8"?>
<!-- Generator: Adobe Illustrator 16.0.0, SVG Export Plug-In . SVG Version: 6.00 Build 0)  -->
<!DOCTYPE svg PUBLIC "-//W3C//DTD SVG 1.1//EN" "http://www.w3.org/Graphics/SVG/1.1/DTD/svg11.dtd">
<svg version="1.1" id="圖層_1" xmlns="http://www.w3.org/2000/svg" xmlns:xlink="http://www.w3.org/1999/xlink" x="0px" y="0px"
	 width="50px" height="50px" viewBox="0 0 50 50" enable-background="new 0 0 50 50" xml:space="preserve">
<g>
	<g>
		<path fill="#FFAA00" d="M35.391,45.996c-0.043,0-0.08,0.004-0.109,0.004H14.926c-1.578,0-2.938-0.541-3.938-1.554
			c-1.822-1.847-1.854-4.612-1.854-4.973V18.081c0-0.819,0.674-1.484,1.494-1.484s1.494,0.665,1.494,1.484v21.401
			c0,0.006,0,0.012,0,0.019c0,0.508,0.166,2.023,0.996,2.857c0.441,0.442,1.023,0.652,1.807,0.652h20.387c0.047,0,0.047,0,0.084,0
			c0,0,0,0,0.002,0c0.113,0,0.873-0.019,1.482-0.611c0.674-0.655,1.055-1.848,1.055-3.456V18.081c0-0.819,0.676-1.484,1.496-1.484
			c0.818,0,1.494,0.665,1.494,1.484v20.862c0,2.512-0.709,4.418-2.037,5.661C37.533,45.874,35.932,45.996,35.391,45.996z"/>
		<path fill="#FFAA00" d="M17.92,39.16c-0.586,0-1.057-0.475-1.057-1.061V23.086c0-0.586,0.471-1.061,1.057-1.061
			s1.059,0.475,1.059,1.061V38.1C18.979,38.686,18.506,39.16,17.92,39.16z"/>
		<path fill="#FFAA00" d="M24.994,39.16c-0.586,0-1.059-0.475-1.059-1.061V23.086c0-0.586,0.473-1.061,1.059-1.061
			c0.584,0,1.057,0.475,1.057,1.061V38.1C26.051,38.686,25.578,39.16,24.994,39.16z"/>
		<path fill="#FFAA00" d="M31.848,39.16c-0.586,0-1.057-0.475-1.057-1.061V23.086c0-0.586,0.471-1.061,1.057-1.061
			s1.057,0.475,1.057,1.061V38.1C32.904,38.686,32.434,39.16,31.848,39.16z"/>
	</g>
	<path fill="#FFAA00" d="M42.695,4.98c-1.343-0.946-2.92-1.265-4.685-0.951l-5.175,0.92l-0.338-1.901
		c-0.363-2.039-2.503-3.37-4.69-2.98L17.62,1.88c-2.187,0.389-3.647,2.36-3.284,4.399l0.338,1.902L9.482,9.105
		C9.443,9.112,9.391,9.117,9.327,9.128c-0.605,0.107-2.156,0.5-3.447,1.818C4.748,12.1,3.542,14.274,4.221,18.09
		c0.144,0.808,0.914,1.342,1.721,1.199l38.87-6.916c0.802-0.143,1.34-0.902,1.204-1.705C45.99,10.512,45.342,6.844,42.695,4.98z
		 M17.279,5.756c-0.073-0.413,0.309-0.833,0.864-0.931l10.186-1.813c0.558-0.099,1.153,0.147,1.227,0.56l0.338,1.901L17.618,7.658
		L17.279,5.756L17.279,5.756z M6.998,16.139c-0.035-1.401,0.31-2.383,1.005-3.093c0.73-0.744,1.666-0.954,1.846-0.986
		c0.014-0.002,0.026,0.002,0.034,0.001c0.037-0.003,0.05,0.001,0.088-0.006l28.563-5.082c0.968-0.172,1.77-0.014,2.449,0.461
		c0.795,0.557,1.332,1.458,1.683,2.359L6.998,16.139z"/>
</g>
</svg>
