<?xml version="1.0" encoding="utf-8"?>
<!-- Generator: Adobe Illustrator 16.0.0, SVG Export Plug-In . SVG Version: 6.00 Build 0)  -->
<!DOCTYPE svg PUBLIC "-//W3C//DTD SVG 1.1//EN" "http://www.w3.org/Graphics/SVG/1.1/DTD/svg11.dtd">
<svg version="1.1" id="圖層_1" xmlns="http://www.w3.org/2000/svg" xmlns:xlink="http://www.w3.org/1999/xlink" x="0px" y="0px"
	 width="50px" height="50px" viewBox="0 0 50 50" enable-background="new 0 0 50 50" xml:space="preserve">
<g>
	<g>
		<path fill="#FFFFFF" d="M35.391,45.996c-0.043,0-0.08,0.004-0.109,0.004H14.926c-1.578,0-2.938-0.541-3.938-1.554
			c-1.822-1.847-1.854-4.612-1.854-4.973V18.081c0-0.819,0.674-1.484,1.494-1.484s1.494,0.665,1.494,1.484v21.401
			c0,0.006,0,0.012,0,0.019c0,0.508,0.166,2.023,0.996,2.857c0.441,0.442,1.023,0.652,1.807,0.652h20.387c0.047,0,0.047,0,0.084,0
			c0,0,0,0,0.002,0c0.113,0,0.873-0.019,1.482-0.611c0.674-0.655,1.055-1.848,1.055-3.456V18.081c0-0.819,0.676-1.484,1.496-1.484
			c0.818,0,1.494,0.665,1.494,1.484v20.862c0,2.512-0.709,4.418-2.037,5.661C37.533,45.874,35.932,45.996,35.391,45.996z"/>
		<path fill="#FFFFFF" d="M17.92,39.16c-0.586,0-1.057-0.475-1.057-1.061V23.086c0-0.586,0.471-1.061,1.057-1.061
			s1.059,0.475,1.059,1.061V38.1C18.979,38.686,18.506,39.16,17.92,39.16z"/>
		<path fill="#FFFFFF" d="M24.994,39.16c-0.586,0-1.059-0.475-1.059-1.061V23.086c0-0.586,0.473-1.061,1.059-1.061
			c0.584,0,1.057,0.475,1.057,1.061V38.1C26.051,38.686,25.578,39.16,24.994,39.16z"/>
		<path fill="#FFFFFF" d="M31.848,39.16c-0.586,0-1.057-0.475-1.057-1.061V23.086c0-0.586,0.471-1.061,1.057-1.061
			s1.057,0.475,1.057,1.061V38.1C32.904,38.686,32.434,39.16,31.848,39.16z"/>
	</g>
	<path fill="#FFFFFF" d="M43.918,11.444c-1.156-1.167-2.652-1.757-4.445-1.757h-5.256V7.756c0-2.07-1.873-3.756-4.096-3.756H19.773
		c-2.221,0-4.004,1.685-4.004,3.756v1.932h-5.273c-0.039,0-0.092-0.005-0.156-0.005c-0.615,0-2.211,0.115-3.713,1.187
		c-1.316,0.938-2.885,2.867-2.885,6.743c0,0.82,0.664,1.481,1.484,1.481h39.48c0.814,0,1.477-0.653,1.484-1.468
		C46.193,17.468,46.197,13.743,43.918,11.444z M18.76,7.756c0-0.419,0.449-0.766,1.014-0.766h10.346
		c0.566,0,1.109,0.347,1.109,0.766v1.932H18.76V7.756L18.76,7.756z M6.818,16.178c0.211-1.386,0.723-2.292,1.531-2.869
		c0.85-0.604,1.807-0.647,1.99-0.647c0.014,0,0.025,0.007,0.033,0.007c0.037,0.003,0.049,0.01,0.088,0.01h29.012
		c0.982,0,1.744,0.296,2.33,0.883c0.686,0.688,1.057,1.669,1.244,2.617H6.818z"/>
</g>
</svg>
