<?xml version="1.0" encoding="utf-8"?>
<!-- Generator: Adobe Illustrator 16.0.0, SVG Export Plug-In . SVG Version: 6.00 Build 0)  -->
<!DOCTYPE svg PUBLIC "-//W3C//DTD SVG 1.1//EN" "http://www.w3.org/Graphics/SVG/1.1/DTD/svg11.dtd">
<svg version="1.1" id="圖層_1" xmlns="http://www.w3.org/2000/svg" xmlns:xlink="http://www.w3.org/1999/xlink" x="0px" y="0px"
	 width="45px" height="45px" viewBox="0 0 45 45" enable-background="new 0 0 45 45" xml:space="preserve">
<g>
	<path d="M30.925,28.457c1.719,0.996,4.895,2.836,6.688,3.88c-1.726,1.004-4.906,2.854-6.688,3.896V28.457 M29.164,24.779
		c-0.4,0-0.8,0.163-0.8,0.815v13.351c0,0,0.027,1.038,0.832,1.038c0.235,0,0.537-0.089,0.925-0.317
		c1.711-1.013,11.009-6.416,11.009-6.416s1.485-0.945,0-1.824c-1.486-0.878-11.167-6.483-11.167-6.483S29.563,24.779,29.164,24.779
		L29.164,24.779z"/>
	<path d="M29.552,13.656c-0.498-0.498-1.306-0.498-1.804,0l-7.147,7.147l-4.483-4.483c-0.498-0.498-1.306-0.498-1.804,0
		s-0.498,1.306,0,1.804l5.385,5.385c0.249,0.249,0.576,0.373,0.902,0.373c0.327,0,0.653-0.124,0.902-0.373l8.049-8.049
		C30.05,14.961,30.05,14.154,29.552,13.656z"/>
	<path d="M26.783,36.287c-1.813,0.819-3.912,1.275-6.066,1.275c-8.306,0-15.066-6.758-15.066-15.063
		c0-8.306,6.756-15.063,15.061-15.063c8.306,0,15.063,6.757,15.063,15.062c0,1.34-0.178,2.638-0.507,3.875
		c0.726,0.421,1.462,0.848,2.18,1.265c0.503-1.644,0.764-3.372,0.764-5.139c0-4.675-1.82-9.069-5.126-12.375
		C29.779,6.82,25.385,5,20.71,5s-9.069,1.82-12.374,5.125C5.031,13.431,3.21,17.825,3.21,22.5c0,4.674,1.82,9.068,5.126,12.374
		C11.642,38.179,16.042,40,20.717,40c2.102,0,4.189-0.369,6.066-1.075V36.287L26.783,36.287z"/>
</g>
</svg>
