<?xml version="1.0" encoding="utf-8"?>
<!-- Generator: Adobe Illustrator 16.0.0, SVG Export Plug-In . SVG Version: 6.00 Build 0)  -->
<!DOCTYPE svg PUBLIC "-//W3C//DTD SVG 1.1//EN" "http://www.w3.org/Graphics/SVG/1.1/DTD/svg11.dtd">
<svg version="1.1" id="Capa_1" xmlns="http://www.w3.org/2000/svg" xmlns:xlink="http://www.w3.org/1999/xlink" x="0px" y="0px"
	 width="486.547px" height="486.547px" viewBox="0 0 486.547 486.547" enable-background="new 0 0 486.547 486.547"
	 xml:space="preserve">
<path d="M98.773,462.773h56V363.9c0-20.766-17.13-37.127-37.896-37.127H18.773v56h80V462.773z"/>
<path d="M98.773,18.773v80h-80v56h98.104c20.766,0,37.896-16.879,37.896-37.646V18.773H98.773z"/>
<path d="M382.773,18.773h-56v98.354c0,20.767,16.11,37.646,36.876,37.646h99.124v-56h-80V18.773z"/>
<path d="M382.773,462.773v-80h80v-56h-99.124c-20.766,0-36.876,16.361-36.876,37.127v98.873H382.773z"/>
</svg>
