<?xml version="1.0" encoding="utf-8"?>
<!-- Generator: Adobe Illustrator 16.0.0, SVG Export Plug-In . SVG Version: 6.00 Build 0)  -->
<!DOCTYPE svg PUBLIC "-//W3C//DTD SVG 1.1//EN" "http://www.w3.org/Graphics/SVG/1.1/DTD/svg11.dtd">
<svg version="1.1" id="Layer_1" xmlns="http://www.w3.org/2000/svg" xmlns:xlink="http://www.w3.org/1999/xlink" x="0px" y="0px"
	 width="1920px" height="1080px" viewBox="0 0 1920 1080" enable-background="new 0 0 1920 1080" xml:space="preserve">
<path d="M1482.36,294.219c-6.148-3.582-13.738-3.628-19.93-0.12l-197.673,112.023V292.077c0-57.518-46.794-104.312-104.312-104.312
	H554.02c-57.517,0-104.311,46.794-104.311,104.312v472.144c0,57.518,46.793,104.312,104.311,104.312h606.427
	c57.518,0,104.312-46.794,104.312-104.312V655.939l198.063,106.469c2.961,1.592,6.217,2.384,9.469,2.384
	c3.557,0,7.108-0.947,10.263-2.833c6.04-3.611,9.738-10.13,9.738-17.167V311.499C1492.291,304.383,1488.51,297.802,1482.36,294.219z
	 M1224.758,764.221c0,35.462-28.85,64.312-64.312,64.312H554.02c-35.461,0-64.311-28.85-64.311-64.312V292.077
	c0-35.461,28.85-64.312,64.311-64.312h606.427c35.462,0,64.312,28.85,64.312,64.312V764.221z M1452.291,711.334l-187.533-100.81
	V452.099l187.533-106.277V711.334z"/>
</svg>
