<?xml version="1.0" encoding="utf-8"?>
<!-- Generator: Adobe Illustrator 16.0.0, SVG Export Plug-In . SVG Version: 6.00 Build 0)  -->
<!DOCTYPE svg PUBLIC "-//W3C//DTD SVG 1.1//EN" "http://www.w3.org/Graphics/SVG/1.1/DTD/svg11.dtd">
<svg version="1.1" id="圖層_1" xmlns="http://www.w3.org/2000/svg" xmlns:xlink="http://www.w3.org/1999/xlink" x="0px" y="0px"
	 width="80px" height="80px" viewBox="0 0 80 80" enable-background="new 0 0 80 80" xml:space="preserve">
<path fill="#070001" d="M64.649,28.565c-0.364-0.212-0.836-0.216-1.204-0.007l-9.107,5.161v-5.04c0-2.897-2.356-5.254-5.253-5.254
	H20.003c-2.896,0-5.253,2.357-5.253,5.254v22.643c0,2.896,2.356,5.252,5.253,5.252h29.082c2.896,0,5.253-2.356,5.253-5.252v-4.775
	l9.131,4.907c0.37,0.2,0.829,0.189,1.192-0.026s0.589-0.613,0.589-1.037V29.609C65.25,29.181,65.02,28.781,64.649,28.565z
	 M62.832,31.685v16.682l-8.494-4.565v-7.303L62.832,31.685z M17.168,28.68c0-1.564,1.272-2.836,2.835-2.836h29.082
	c1.563,0,2.835,1.272,2.835,2.836v22.643c0,1.563-1.271,2.834-2.835,2.834H20.003c-1.563,0-2.835-1.271-2.835-2.834V28.68z"/>
</svg>
