<?xml version="1.0" encoding="utf-8"?>
<!-- Generator: Adobe Illustrator 16.0.0, SVG Export Plug-In . SVG Version: 6.00 Build 0)  -->
<!DOCTYPE svg PUBLIC "-//W3C//DTD SVG 1.1//EN" "http://www.w3.org/Graphics/SVG/1.1/DTD/svg11.dtd">
<svg version="1.1" id="Capa_1" xmlns="http://www.w3.org/2000/svg" xmlns:xlink="http://www.w3.org/1999/xlink" x="0px" y="0px"
	 width="486.547px" height="486.547px" viewBox="0 0 486.547 486.547" enable-background="new 0 0 486.547 486.547"
	 xml:space="preserve">
<g>
	<g>
		<path d="M74.773,326.773h-56v98.873c0,20.766,17.13,37.127,37.896,37.127h98.104v-56h-80V326.773z"/>
		<path d="M74.773,154.773v-80h80v-56H56.669c-20.766,0-37.896,16.879-37.896,37.645v98.355H74.773z"/>
	</g>
	<g>
		<path d="M406.773,154.773h56V56.418c0-20.766-16.11-37.645-36.876-37.645h-99.124v56h80V154.773z"/>
		<path d="M406.773,326.773v80h-80v56h99.124c20.766,0,36.876-16.361,36.876-37.127v-98.873H406.773z"/>
	</g>
</g>
</svg>
