<?xml version="1.0" encoding="utf-8"?>
<!-- Generator: Adobe Illustrator 16.0.0, SVG Export Plug-In . SVG Version: 6.00 Build 0)  -->
<!DOCTYPE svg PUBLIC "-//W3C//DTD SVG 1.1//EN" "http://www.w3.org/Graphics/SVG/1.1/DTD/svg11.dtd">
<svg version="1.1" id="Capa_1" xmlns="http://www.w3.org/2000/svg" xmlns:xlink="http://www.w3.org/1999/xlink" x="0px" y="0px"
	 width="841.89px" height="595.281px" viewBox="0 0 841.89 595.281" enable-background="new 0 0 841.89 595.281"
	 xml:space="preserve">
<path fill="none" stroke="#FFFFFF" stroke-width="35" stroke-miterlimit="10" d="M629.5,331"/>
<g>
	<path d="M580.641,388.838c27.479,15.918,78.235,45.338,106.904,62.026c-27.588,16.038-78.432,45.616-106.904,62.265V388.838
		 M552.493,330.048c-6.388,0-12.774,2.607-12.774,13.043v213.404c0,0,0.434,16.595,13.302,16.595c3.761,0,8.582-1.418,14.77-5.079
		c27.347-16.193,175.974-102.562,175.974-102.562s23.751-15.113,0-29.152c-23.75-14.035-178.495-103.64-178.495-103.64
		S558.878,330.048,552.493,330.048L552.493,330.048z"/>
	<path d="M558.69,152.245c-7.961-7.962-20.869-7.962-28.831,0L415.613,266.49l-71.661-71.661c-7.962-7.962-20.87-7.962-28.832,0
		c-7.96,7.962-7.96,20.87,0,28.832l86.077,86.077c3.982,3.98,9.199,5.971,14.416,5.971c5.218,0,10.436-1.99,14.416-5.971
		L558.69,181.076C566.652,173.115,566.652,160.206,558.69,152.245z"/>
	<path d="M514.445,514.01c-29,13.087-62.529,20.373-96.975,20.373c-132.765,0-240.825-108.011-240.825-240.774
		S284.632,52.834,417.395,52.834c132.764,0,240.762,108.011,240.762,240.774c0,21.405-2.828,42.161-8.095,61.931
		c11.599,6.726,23.367,13.555,34.848,20.217c8.03-26.278,12.198-53.893,12.198-82.147c0-74.72-29.099-144.967-81.933-197.803
		C562.339,42.97,492.091,13.873,417.371,13.873c-74.719,0-144.968,29.098-197.803,81.933
		c-52.835,52.835-81.934,123.083-81.934,197.803s29.099,144.968,81.934,197.803c52.835,52.835,123.182,81.933,197.902,81.933
		c33.59,0,66.975-5.899,96.975-17.173V514.01z"/>
</g>
</svg>
