<?xml version="1.0" encoding="utf-8"?>
<!-- Generator: Adobe Illustrator 16.0.0, SVG Export Plug-In . SVG Version: 6.00 Build 0)  -->
<!DOCTYPE svg PUBLIC "-//W3C//DTD SVG 1.1//EN" "http://www.w3.org/Graphics/SVG/1.1/DTD/svg11.dtd">
<svg version="1.1" id="Capa_1" xmlns="http://www.w3.org/2000/svg" xmlns:xlink="http://www.w3.org/1999/xlink" x="0px" y="0px"
	 width="841.89px" height="595.281px" viewBox="0 0 841.89 595.281" enable-background="new 0 0 841.89 595.281"
	 xml:space="preserve">
<g>
	<path d="M798.445,516.641c0,37.279-30.221,67.5-67.5,67.5h-620c-37.279,0-67.5-30.221-67.5-67.5v-438
		c0-37.279,30.221-67.5,67.5-67.5h620c37.279,0,67.5,30.221,67.5,67.5V516.641z M763.445,78.641c0-17.949-14.551-32.5-32.5-32.5
		h-620c-17.949,0-32.5,14.551-32.5,32.5v438c0,17.949,14.551,32.5,32.5,32.5h620c17.949,0,32.5-14.551,32.5-32.5V78.641z"/>
	<polygon points="272.445,487.141 139.445,487.141 139.445,354.141 176.445,354.141 176.445,450.141 272.445,450.141 	"/>
	<polygon points="708.445,235.141 671.445,235.141 671.445,139.141 575.445,139.141 575.445,102.141 708.445,102.141 	"/>
</g>
<path d="M379.909,243.752c23.544,13.639,67.032,38.846,91.595,53.145c-23.636,13.742-67.2,39.084-91.595,53.348V243.752
	 M355.791,193.381c-5.473,0-10.944,2.234-10.944,11.176V387.4c0,0,0.371,14.219,11.396,14.219c3.223,0,7.354-1.215,12.654-4.352
	c23.432-13.875,150.774-87.875,150.774-87.875s20.35-12.949,0-24.977c-20.349-12.025-152.935-88.799-152.935-88.799
	S361.262,193.381,355.791,193.381L355.791,193.381z"/>
</svg>
