<?xml version="1.0" encoding="utf-8"?>
<!-- Generator: Adobe Illustrator 16.0.0, SVG Export Plug-In . SVG Version: 6.00 Build 0)  -->
<!DOCTYPE svg PUBLIC "-//W3C//DTD SVG 1.1//EN" "http://www.w3.org/Graphics/SVG/1.1/DTD/svg11.dtd">
<svg version="1.1" id="Capa_1" xmlns="http://www.w3.org/2000/svg" xmlns:xlink="http://www.w3.org/1999/xlink" x="0px" y="0px"
	 width="841.89px" height="595.281px" viewBox="0 0 841.89 595.281" enable-background="new 0 0 841.89 595.281"
	 xml:space="preserve">
<g>
	<path d="M525.614,575c-62.087,0-102.131-23.929-124.791-44.002c-24.896-22.053-34.918-44.515-35.333-45.462
		c-1.599-3.648-1.711-7.776-0.31-11.508c0.412-1.095,10.349-27.105,34.293-53.012c32-34.623,73.993-52.924,121.439-52.924
		c44.557,0,85.049,16.718,117.096,48.347c24.015,23.698,34.904,47.538,35.355,48.541c1.81,4.018,1.796,8.62-0.036,12.626
		c-0.459,1.004-11.501,24.84-34.905,48.604C606.983,558.129,567.974,575,525.614,575z M396.479,478.796
		c4.001,6.706,12.187,18.576,25.684,30.276c27.073,23.471,61.879,35.371,103.45,35.371c34.149,0,64.543-13.109,90.334-38.965
		c13.164-13.197,21.82-26.604,26.204-34.237c-4.342-7.532-12.983-20.775-26.387-33.818c-26.443-25.729-58.356-38.775-94.853-38.775
		c-38.867,0-71.924,14.234-98.251,42.305C408.814,455.717,400.421,470.727,396.479,478.796z"/>
	<path d="M522.512,530.474c-32.733,0-59.365-26.632-59.365-59.366s26.632-59.365,59.365-59.365
		c32.735,0,59.366,26.631,59.366,59.365S555.248,530.474,522.512,530.474z M522.512,442.298c-15.885,0-28.811,12.926-28.811,28.811
		c0,15.887,12.926,28.811,28.811,28.811c15.887,0,28.811-12.924,28.811-28.811C551.323,455.223,538.399,442.298,522.512,442.298z"/>
	<g>
		<path d="M257.145,487.344c29.064-16.957,64.363-37.521,101.924-59.388c0.001-0.002,0.002-0.004,0.003-0.004
			C321.512,449.822,286.211,470.387,257.145,487.344z"/>
		<path d="M658.404,252.323c-53.49-31.61-402.016-233.424-402.016-233.424s-14.09-5.879-28.474-5.879
			c-14.386,0-28.469,5.874-28.469,29.378v480.64c0,0,0.675,37.376,29.657,37.376c8.472,0,19.181-3.193,33.114-11.44
			c12.557-7.435,25.134-14.847,55.24-32.431c7.364-37.14,23.491-67.696,41.637-88.586c-37.561,21.867-72.431,42.431-101.497,59.388
			c-2.229,1.302-5.151,2.581-6.151,3.839V79.616c92,52.706,258.836,150.126,353.766,205.388
			c-22.103,12.851-48.729,28.33-77.709,45.189c21.443,0.96,50.71,4.964,79.893,17.472c31.087-18.075,51.039-29.686,51.039-29.686
			S711.898,283.94,658.404,252.323z"/>
		<path d="M527.283,330.193c28.979-16.859,55.385-32.338,77.488-45.189c-22.101,12.85-48.611,28.328-77.587,45.184
			C527.215,330.189,527.249,330.19,527.283,330.193z"/>
		<polygon points="596.437,354.003 596.43,354.007 596.449,354.01 596.456,354.007 		"/>
		<path d="M527.176,330.193c0.032,0.001,0.066,0.003,0.099,0.004c0.003-0.001,0.005-0.003,0.008-0.004
			c-0.034-0.003-0.067-0.004-0.099-0.005C527.18,330.189,527.178,330.191,527.176,330.193z"/>
		<path d="M527.184,330.188c0.031,0.001,0.064,0.002,0.099,0.005C527.249,330.19,527.215,330.189,527.184,330.188L527.184,330.188z"
			/>
		<path d="M527.275,330.197c21.443,0.97,50.837,4.98,79.987,17.48c0.007-0.005,0.015-0.009,0.021-0.013
			c-29.183-12.508-58.558-16.512-80.001-17.472C527.28,330.194,527.278,330.196,527.275,330.197z"/>
	</g>
</g>
</svg>
