<?xml version="1.0" encoding="utf-8"?>
<!-- Generator: Adobe Illustrator 16.0.0, SVG Export Plug-In . SVG Version: 6.00 Build 0)  -->
<!DOCTYPE svg PUBLIC "-//W3C//DTD SVG 1.1//EN" "http://www.w3.org/Graphics/SVG/1.1/DTD/svg11.dtd">
<svg version="1.1" id="圖層_1" xmlns="http://www.w3.org/2000/svg" xmlns:xlink="http://www.w3.org/1999/xlink" x="0px" y="0px"
	 width="50px" height="50px" viewBox="0 0 50 50" enable-background="new 0 0 50 50" xml:space="preserve">
<path fill="#FFFFFF" d="M2.877,0C2.371,0,1.894,0.132,1.436,0.394C0.528,0.919,0,1.889,0,2.941v44.121
	c0,1.051,0.528,2.019,1.436,2.545C1.894,49.868,2.386,50,2.893,50c0.509,0,1.006-0.132,1.461-0.394l38.207-22.059
	c0.914-0.525,1.467-1.495,1.467-2.547c0-1.05-0.557-2.02-1.471-2.544L4.347,0.394C3.89,0.132,3.385,0,2.877,0L2.877,0z"/>
<g>
	<path fill="#FFFFFF" d="M22.227,49.906V44.18h2.16c0.381,0,0.672,0.019,0.871,0.055c0.281,0.047,0.518,0.136,0.707,0.268
		c0.191,0.132,0.344,0.315,0.459,0.553c0.117,0.237,0.174,0.497,0.174,0.781c0,0.487-0.154,0.899-0.465,1.236
		c-0.309,0.337-0.869,0.506-1.68,0.506h-1.469v2.328H22.227z M22.984,46.902h1.48c0.49,0,0.838-0.091,1.043-0.273
		c0.207-0.183,0.309-0.438,0.309-0.77c0-0.239-0.061-0.444-0.182-0.615s-0.279-0.283-0.479-0.338
		c-0.127-0.034-0.363-0.051-0.707-0.051h-1.465V46.902z"/>
	<path fill="#FFFFFF" d="M27.465,49.906v-4.148h0.633v0.629c0.161-0.294,0.311-0.488,0.447-0.582s0.287-0.141,0.451-0.141
		c0.237,0,0.478,0.075,0.723,0.227l-0.242,0.652c-0.172-0.102-0.344-0.152-0.516-0.152c-0.153,0-0.292,0.046-0.414,0.139
		s-0.21,0.221-0.262,0.385c-0.078,0.25-0.117,0.523-0.117,0.82v2.172H27.465z"/>
	<path fill="#FFFFFF" d="M32.977,48.57l0.727,0.09c-0.114,0.425-0.327,0.754-0.637,0.988S32.36,50,31.879,50
		c-0.606,0-1.088-0.187-1.443-0.561s-0.533-0.897-0.533-1.572c0-0.698,0.18-1.239,0.539-1.625s0.825-0.578,1.398-0.578
		c0.555,0,1.008,0.188,1.359,0.566s0.527,0.909,0.527,1.594c0,0.042-0.001,0.104-0.004,0.188h-3.094
		c0.026,0.456,0.155,0.805,0.387,1.047s0.521,0.363,0.867,0.363c0.258,0,0.478-0.067,0.66-0.203S32.87,48.867,32.977,48.57z
		 M30.668,47.434h2.316c-0.031-0.349-0.12-0.61-0.266-0.785c-0.224-0.271-0.515-0.406-0.871-0.406c-0.323,0-0.595,0.108-0.814,0.324
		S30.691,47.071,30.668,47.434z"/>
	<path fill="#FFFFFF" d="M35.738,49.906l-1.578-4.148h0.742l0.891,2.484c0.097,0.269,0.185,0.547,0.266,0.836
		c0.063-0.219,0.149-0.481,0.262-0.789l0.922-2.531h0.723l-1.57,4.148H35.738z"/>
	<path fill="#FFFFFF" d="M38.59,44.988V44.18h0.703v0.809H38.59z M38.59,49.906v-4.148h0.703v4.148H38.59z"/>
	<path fill="#FFFFFF" d="M43.203,48.57l0.727,0.09c-0.114,0.425-0.327,0.754-0.637,0.988S42.587,50,42.105,50
		c-0.606,0-1.088-0.187-1.443-0.561s-0.533-0.897-0.533-1.572c0-0.698,0.18-1.239,0.539-1.625s0.825-0.578,1.398-0.578
		c0.555,0,1.008,0.188,1.359,0.566s0.527,0.909,0.527,1.594c0,0.042-0.001,0.104-0.004,0.188h-3.094
		c0.026,0.456,0.155,0.805,0.387,1.047s0.521,0.363,0.867,0.363c0.258,0,0.478-0.067,0.66-0.203S43.097,48.867,43.203,48.57z
		 M40.895,47.434h2.316c-0.031-0.349-0.12-0.61-0.266-0.785c-0.224-0.271-0.515-0.406-0.871-0.406c-0.323,0-0.595,0.108-0.814,0.324
		S40.918,47.071,40.895,47.434z"/>
	<path fill="#FFFFFF" d="M45.578,49.906l-1.27-4.148h0.727l0.66,2.395l0.246,0.891c0.011-0.044,0.082-0.329,0.215-0.855l0.66-2.43
		h0.723l0.621,2.406l0.207,0.793l0.238-0.801l0.711-2.398H50l-1.297,4.148h-0.73l-0.66-2.484l-0.16-0.707l-0.84,3.191H45.578z"/>
</g>
</svg>
