<?xml version="1.0" encoding="utf-8"?>
<!-- Generator: Adobe Illustrator 16.0.0, SVG Export Plug-In . SVG Version: 6.00 Build 0)  -->
<!DOCTYPE svg PUBLIC "-//W3C//DTD SVG 1.1//EN" "http://www.w3.org/Graphics/SVG/1.1/DTD/svg11.dtd">
<svg version="1.1" id="圖層_1" xmlns="http://www.w3.org/2000/svg" xmlns:xlink="http://www.w3.org/1999/xlink" x="0px" y="0px"
	 width="45px" height="45px" viewBox="0 0 45 45" enable-background="new 0 0 45 45" xml:space="preserve">
<g>
	<g>
		<path d="M45,35.553c0,2.223-1.801,4.023-4.023,4.023H4.023C1.801,39.576,0,37.775,0,35.553V9.447c0-2.222,1.801-4.023,4.023-4.023
			h36.954C43.199,5.424,45,7.225,45,9.447V35.553z M42.914,9.447c0-1.07-0.867-1.937-1.938-1.937H4.023
			c-1.07,0-1.937,0.867-1.937,1.937v26.105c0,1.07,0.867,1.938,1.937,1.938h36.954c1.07,0,1.938-0.867,1.938-1.938V9.447z"/>
		<polygon points="13.649,33.795 5.722,33.795 5.722,25.868 7.927,25.868 7.927,31.59 13.649,31.59 		"/>
		<polygon points="39.636,18.775 37.431,18.775 37.431,13.053 31.709,13.053 31.709,10.848 39.636,10.848 		"/>
	</g>
	<path d="M20.054,19.288c1.403,0.813,3.995,2.315,5.459,3.168c-1.409,0.818-4.005,2.329-5.459,3.18V19.288 M18.617,16.286
		c-0.326,0-0.652,0.133-0.652,0.666v10.898c0,0,0.022,0.848,0.679,0.848c0.192,0,0.438-0.073,0.754-0.26
		c1.396-0.827,8.987-5.238,8.987-5.238s1.213-0.771,0-1.488s-9.116-5.292-9.116-5.292S18.943,16.286,18.617,16.286L18.617,16.286z"
		/>
</g>
</svg>
