<?xml version="1.0" encoding="utf-8"?>
<!-- Generator: Adobe Illustrator 16.0.0, SVG Export Plug-In . SVG Version: 6.00 Build 0)  -->
<!DOCTYPE svg PUBLIC "-//W3C//DTD SVG 1.1//EN" "http://www.w3.org/Graphics/SVG/1.1/DTD/svg11.dtd">
<svg version="1.1" id="Layer_1" xmlns="http://www.w3.org/2000/svg" xmlns:xlink="http://www.w3.org/1999/xlink" x="0px" y="0px"
	 width="1920px" height="1080px" viewBox="0 0 1920 1080" enable-background="new 0 0 1920 1080" xml:space="preserve">
<g>
	<g>
		<path fill="#FFFFFF" d="M368.019,440.698l-96.905,223.866h-51.169l-96.572-223.866h55.962l68.116,159.907l69.078-159.907H368.019z
			"/>
		<path fill="#FFFFFF" d="M396.797,460.528c-5.756-5.328-8.634-11.938-8.634-19.829c0-7.885,2.878-14.495,8.634-19.823
			c5.755-5.329,13.222-7.996,22.38-7.996c9.168,0,16.636,2.557,22.391,7.675c5.755,5.112,8.633,11.511,8.633,19.187
			c0,8.318-2.878,15.192-8.633,20.626c-5.755,5.439-13.223,8.157-22.391,8.157C410.019,468.524,402.552,465.862,396.797,460.528z
			 M394.24,492.51h49.886v172.054H394.24V492.51z"/>
		<path fill="#FFFFFF" d="M514.477,661.846c-13.64-3.52-24.521-7.943-32.608-13.27l16.625-35.818
			c7.681,4.904,16.946,8.9,27.815,11.992c10.88,3.092,21.536,4.633,31.989,4.633c21.106,0,31.667-5.221,31.667-15.668
			c0-4.9-2.889-8.418-8.645-10.553c-5.756-2.129-14.604-3.941-26.543-5.436c-14.067-2.129-25.687-4.584-34.865-7.355
			c-9.158-2.77-17.096-7.676-23.814-14.715c-6.719-7.033-10.078-17.053-10.078-30.063c0-10.868,3.145-20.512,9.436-28.939
			c6.291-8.419,15.448-14.978,27.495-19.669c12.046-4.686,26.274-7.032,42.707-7.032c12.154,0,24.244,1.332,36.288,3.994
			c12.047,2.671,22.018,6.345,29.913,11.036l-16.635,35.498c-15.138-8.528-31.657-12.797-49.566-12.797
			c-10.677,0-18.657,1.498-23.984,4.479c-5.339,2.989-8.003,6.825-8.003,11.516c0,5.326,2.878,9.063,8.633,11.191
			c5.767,2.133,14.925,4.154,27.506,6.076c14.078,2.348,25.59,4.852,34.533,7.516c8.966,2.668,16.733,7.514,23.344,14.549
			c6.611,7.039,9.928,16.85,9.928,29.424c0,10.662-3.208,20.145-9.607,28.463c-6.398,8.313-15.726,14.766-27.976,19.348
			c-12.271,4.584-26.821,6.875-43.66,6.875C542.089,667.121,528.128,665.362,514.477,661.846z"/>
		<path fill="#FFFFFF" d="M849.63,492.51v172.054h-47.33v-20.467c-6.613,7.463-14.497,13.164-23.665,17.105
			c-9.168,3.943-19.085,5.918-29.741,5.918c-22.595,0-40.504-6.5-53.726-19.51c-13.223-12.998-19.835-32.297-19.835-57.883V492.51
			h49.898v89.865c0,27.719,11.617,41.572,34.854,41.572c11.939,0,21.535-3.889,28.777-11.672
			c7.254-7.781,10.881-19.348,10.881-34.699V492.51H849.63z"/>
		<path fill="#FFFFFF" d="M1034.793,508.98c14.293,12.687,21.439,31.823,21.439,57.407v98.178h-46.697v-21.43
			c-9.383,15.994-26.863,23.986-52.452,23.986c-13.224,0-24.672-2.236-34.375-6.713c-9.703-4.479-17.106-10.662-22.22-18.551
			c-5.123-7.887-7.68-16.84-7.68-26.863c0-15.99,6.022-28.57,18.068-37.738c12.036-9.164,30.65-13.752,55.814-13.752h39.646
			c0-10.869-3.307-19.234-9.907-25.104c-6.611-5.863-16.529-8.794-29.739-8.794c-9.18,0-18.188,1.439-27.025,4.316
			c-8.858,2.878-16.368,6.771-22.553,11.671l-17.908-34.855c9.371-6.605,20.625-11.724,33.743-15.351
			c13.115-3.621,26.595-5.435,40.449-5.435C1000.045,489.954,1020.521,496.299,1034.793,508.98z M992.269,627.629
			c6.602-3.943,11.297-9.758,14.068-17.434v-17.588h-34.212c-20.477,0-30.705,6.719-30.705,20.15c0,6.393,2.503,11.463,7.511,15.188
			c5.006,3.73,11.885,5.6,20.625,5.6C978.093,633.545,985.656,631.576,992.269,627.629z"/>
		<path fill="#FFFFFF" d="M1109.317,427.268h49.874v237.297h-49.874V427.268z"/>
		<path fill="#FFFFFF" d="M1216.128,460.528c-5.755-5.328-8.645-11.938-8.645-19.829c0-7.885,2.89-14.495,8.645-19.823
			c5.756-5.329,13.213-7.996,22.381-7.996c9.158,0,16.625,2.557,22.38,7.675c5.756,5.112,8.646,11.511,8.646,19.187
			c0,8.318-2.89,15.192-8.646,20.626c-5.755,5.439-13.222,8.157-22.38,8.157C1229.341,468.524,1221.884,465.862,1216.128,460.528z
			 M1213.56,492.51h49.898v172.054h-49.898V492.51z"/>
		<path fill="#FFFFFF" d="M1459.49,626.19v38.375h-153.498v-30.063l87.619-103.618h-85.393V492.51h148.394v30.062l-87.629,103.618
			H1459.49z"/>
		<path fill="#FFFFFF" d="M1664.81,592.608h-130.154c2.333,10.666,7.875,19.086,16.625,25.264c8.729,6.189,19.61,9.275,32.62,9.275
			c8.954,0,16.892-1.332,23.824-3.996s13.373-6.879,19.342-12.635l26.553,28.783c-16.208,18.545-39.871,27.822-70.993,27.822
			c-19.406,0-36.576-3.781-51.501-11.352c-14.912-7.564-26.436-18.068-34.533-31.502c-8.108-13.43-12.152-28.67-12.152-45.734
			c0-16.838,4-32.029,11.992-45.568c7.991-13.537,18.968-24.092,32.939-31.661c13.961-7.563,29.58-11.351,46.858-11.351
			c16.838,0,32.071,3.627,45.723,10.869c13.651,7.253,24.351,17.646,32.14,31.18c7.787,13.544,11.682,29.265,11.682,47.173
			C1665.773,579.819,1665.452,584.295,1664.81,592.608z M1548.082,537.282c-7.671,6.398-12.367,15.138-14.068,26.222h84.752
			c-1.711-10.869-6.398-19.557-14.08-26.06c-7.681-6.501-17.053-9.759-28.136-9.759
			C1565.242,527.685,1555.753,530.885,1548.082,537.282z"/>
		<path fill="#FFFFFF" d="M1778.82,496.344c10.121-4.263,21.793-6.391,35.016-6.391v46.05c-5.543-0.429-9.266-0.642-11.19-0.642
			c-14.292,0-25.482,4-33.582,11.992c-8.099,7.998-12.152,19.99-12.152,35.979v81.232h-49.887V492.51h47.65v22.707
			C1760.645,506.899,1768.69,500.613,1778.82,496.344z"/>
	</g>
</g>
</svg>
