<?xml version="1.0" encoding="utf-8"?>
<!-- Generator: Adobe Illustrator 16.0.0, SVG Export Plug-In . SVG Version: 6.00 Build 0)  -->
<!DOCTYPE svg PUBLIC "-//W3C//DTD SVG 1.1//EN" "http://www.w3.org/Graphics/SVG/1.1/DTD/svg11.dtd">
<svg version="1.1" id="圖層_1" xmlns="http://www.w3.org/2000/svg" xmlns:xlink="http://www.w3.org/1999/xlink" x="0px" y="0px"
	 width="45px" height="45px" viewBox="0 0 45 45" enable-background="new 0 0 45 45" xml:space="preserve">
<g>
	<g>
		<g>
			<path d="M39.6,37.666l-9.874-9.875c4.499-5.474,4.192-13.6-0.92-18.712c-5.438-5.438-14.288-5.438-19.727,0
				s-5.438,14.288,0,19.727c5.111,5.111,13.236,5.42,18.712,0.92l9.875,9.874c0.534,0.534,1.399,0.534,1.934,0
				S40.134,38.2,39.6,37.666z M26.872,26.872c-4.372,4.372-11.486,4.372-15.859,0c-4.372-4.373-4.372-11.486,0-15.859
				c4.373-4.372,11.486-4.372,15.859,0C31.244,15.386,31.244,22.499,26.872,26.872z"/>
		</g>
	</g>
	<path d="M11.102,20.555c-0.666,0-1.205-0.54-1.205-1.205c0-5.021,4.083-9.104,9.104-9.104c0.665,0,1.205,0.54,1.205,1.206
		c0,0.665-0.54,1.205-1.205,1.205c-3.69,0-6.693,3.002-6.693,6.693C12.307,20.015,11.767,20.555,11.102,20.555z"/>
</g>
</svg>
